<svg class="brxe-svg" id="brxe-tsviyx" xmlns="http://www.w3.org/2000/svg" width="537" height="630" viewBox="0 0 537 630" fill="none"><mask id="mask0_1_287" style="mask-type:alpha" maskUnits="userSpaceOnUse" x="0" y="0" width="537" height="630"><rect x="537" y="630" width="537" height="630" transform="rotate(-180 537 630)" fill="#D9D9D9"></rect></mask><g mask="url(#mask0_1_287)"><path d="M40.6717 26.2113C68.7263 27.1849 96.9228 27.7303 124.812 29.9003C152.66 32.0082 180.309 36.3882 205.653 44.667C230.91 52.9751 253.776 65.2114 272.236 80.0826C290.564 95.0747 304.831 112.584 315.428 131.111C320.79 140.391 325.633 149.847 329.916 159.417C334.372 168.928 337.535 178.726 340.01 188.605C345.001 208.426 347.97 228.552 352.1 248.512C356.444 268.476 361.558 288.483 370.852 307.604C380.105 326.663 394.217 345.062 415.364 358.869C425.851 365.802 437.834 371.468 450.669 375.856C463.591 380.215 476.934 383.442 490.454 386.458C517.5 392.335 545.067 396.59 571.999 401.974C599.019 407.327 625.526 413.995 649.173 424.522C673.176 434.624 694.47 447.85 712.665 462.963C730.815 478.167 745.433 495.406 757.675 513.375C769.697 531.494 779.856 550.322 789.11 569.38C798.149 588.436 806.496 607.726 813.982 627.156C817.618 636.869 821.591 646.772 828.419 655.707C831.877 660.159 835.94 664.406 840.705 668.111C845.557 671.787 850.979 675.041 856.883 677.903L857.193 677.57C851.462 674.649 846.213 671.336 841.535 667.602C836.943 663.838 833.093 659.595 829.936 655.116C823.536 646.189 820.073 636.417 816.523 626.674C809.469 607.097 801.469 587.69 792.821 568.425C784.001 549.22 774.233 530.184 762.393 511.698C750.294 493.301 735.298 475.81 716.944 460.295C698.417 444.838 676.75 431.207 652.024 420.97C627.653 410.309 600.504 403.631 573.225 398.365C545.992 393.008 518.415 389.059 491.487 383.522C478.09 380.694 464.701 377.557 451.984 373.509C439.353 369.432 427.493 363.953 417.169 357.269C396.308 343.896 382.141 325.896 372.71 307.05C363.111 288.108 357.738 268.189 353.821 248.233C349.691 228.272 347.236 208.123 342.764 188.127C340.549 178.16 337.564 168.149 333.286 158.426C329.136 148.735 324.725 139.132 319.368 129.699C308.694 110.894 294.527 92.8937 275.568 77.584C256.516 62.4573 233.141 50.0899 207.114 41.7387C181.087 33.3875 152.869 29.4287 124.884 27.5954C96.771 25.7292 68.5915 26.0143 40.5225 25.5018L40.4673 25.9006L40.6717 26.2113Z" fill="#CE4141"></path><path d="M-0.591475 24.3221C28.3673 26.5093 57.3499 27.9283 85.9386 31.0013C114.486 34.0121 142.575 39.3832 168.15 48.4959C180.854 53.0047 192.922 58.641 204.025 65.0613C215.127 71.4816 225.396 78.5649 234.265 86.5789C252.05 102.516 265.738 120.754 275.323 140.156C280.288 149.799 284.689 159.709 288.53 169.733C292.543 179.698 295.227 189.734 297.133 200.035C301.03 220.606 302.733 241.543 305.596 262.313C308.674 283.086 312.261 303.991 320.452 324.171C324.547 334.26 329.803 344.184 336.577 353.517C343.391 362.913 352.022 371.692 362.317 379.298C372.653 386.967 384.784 393.342 397.942 398.381C411.1 403.42 424.77 407.145 438.617 410.657C466.317 417.529 494.538 422.779 522.129 429.003C549.721 435.227 576.372 442.758 600.077 454.178C624.051 465.202 645.194 479.163 662.933 495.191C680.585 511.248 694.533 529.398 705.89 548.276C717.114 567.274 726.302 587.039 734.457 607.002C742.484 626.933 750.074 647.164 756.594 667.378C759.788 677.546 763.359 687.965 770.041 697.482C773.362 702.209 777.374 706.701 782.257 710.746C787.1 714.729 792.685 718.231 798.671 721.218L799.332 720.614C793.697 717.356 788.458 713.736 784.003 709.698C779.548 705.66 776.049 701.145 773.156 696.425C767.371 686.984 764.778 676.765 762.012 666.605C756.403 646.005 750.102 625.641 742.685 605.351C735.096 585.12 726.431 565.025 715.527 545.387C704.535 525.777 689.832 507.123 671.735 490.228C662.621 481.841 652.504 474.022 641.512 466.804C636.145 463.151 630.255 459.828 624.538 456.446C618.556 453.306 612.575 450.166 606.197 447.388C593.659 441.683 580.502 436.644 566.841 432.612C553.141 428.517 539.288 425.158 525.213 422.103C497.234 415.935 468.953 411.237 441.494 404.892C427.851 401.69 414.176 398.119 401.427 393.702C388.637 389.222 376.874 383.406 366.606 376.323C346.028 362.094 332.318 343.179 324.158 323.369C315.744 303.494 311.724 282.736 309.416 262.005C308.198 251.623 307.281 241.216 306.363 230.808C305.533 220.371 304.702 209.934 303.229 199.487C301.797 189.102 299.56 178.458 295.938 168.284C292.49 158.051 288.695 147.935 283.912 137.927C274.214 118.03 260.819 98.6284 241.724 82.1481C232.263 73.8785 221.317 66.5691 209.664 59.9555C198.011 53.3419 185.387 47.6659 172.001 43.0846C145.147 33.7976 115.959 29.3313 86.9645 26.9282C57.8832 24.5546 28.7395 24.1785 -0.307983 23.4657L-0.331919 24.234L-0.591475 24.3221Z" fill="url(#paint0_linear_1_287)"></path><path d="M326.693 148.134L341.616 163.996L361.306 154.702L350.835 173.796L365.753 189.651L344.366 185.593L333.895 204.688L331.146 183.084L309.753 179.025L329.441 169.737L326.693 148.134Z" fill="url(#paint1_linear_1_287)"></path><path d="M360.268 186.643L348.465 174.096L356.75 158.994L341.17 166.345L329.367 153.798L331.537 170.884L315.958 178.236L332.886 181.448L335.062 198.535L343.347 183.433L360.268 186.643Z" fill="url(#paint2_linear_1_287)"></path><path d="M487.217 573.987L493.733 580.913L502.331 576.854L497.759 585.192L504.272 592.115L494.934 590.343L490.362 598.68L489.162 589.248L479.82 587.475L488.417 583.419L487.217 573.987Z" fill="url(#paint3_linear_1_287)"></path><path d="M501.877 590.801L496.724 585.323L500.341 578.729L493.539 581.938L488.385 576.46L489.332 583.92L482.53 587.13L489.921 588.533L490.872 595.994L494.489 589.4L501.877 590.801Z" fill="url(#paint4_linear_1_287)"></path><path d="M427 290.594C433.005 285.884 441.526 278.901 447.554 274.071L446.766 274.129C453.626 278.569 465.005 285.869 471.88 290.239L470.642 287.164L460.72 262.552L460.372 263.991C467.084 258.315 473.831 252.691 480.51 246.977L483.523 244.399L479.57 244.692C473.005 245.16 459.776 246.164 453.212 246.682L454.391 247.419C451.307 240.089 446.044 227.701 442.926 220.408L442.32 223.108C440.866 229.532 438.034 242.499 436.656 248.934L436.974 248.664C432.711 249.061 428.451 249.48 424.192 249.932C428.558 249.774 432.917 249.588 437.279 249.366C439.023 242.864 442.395 230.065 444.06 223.538L442.357 223.661C444.793 229.804 449.732 242.182 452.201 248.306L452.521 249.095L453.385 249.039C459.963 248.626 473.183 247.748 479.761 247.286L478.821 245.002C472.084 250.648 465.427 256.379 458.724 262.064L458.019 262.661L458.38 263.508L468.674 287.971L470.209 286.671C464.556 283.245 453.144 276.365 447.464 272.995L447.029 272.737L446.676 273.053C440.913 278.167 432.607 285.512 426.995 290.607L427 290.594Z" fill="url(#paint5_linear_1_287)"></path><path d="M255.734 314.023L263.801 324.028L275.803 319.453L268.781 330.203L276.839 340.204L264.444 336.851L257.42 347.61L256.78 334.777L244.376 331.421L256.377 326.846L255.734 314.023Z" fill="url(#paint6_linear_1_287)"></path><path d="M446.027 442.411C441.126 448.823 434.376 457.991 429.531 464.551C437.936 475.936 446.367 487.302 454.862 498.628L456.598 496.108C442.887 491.827 429.119 487.7 415.385 483.488L414.574 484.666L390.831 518.934L394.598 520.059L393.441 478.382L393.399 476.944C379.587 472.97 365.809 468.91 351.974 465.004L352.05 468.067C361.804 464.5 381.443 457.262 391.162 453.622L391.876 453.361L391.837 452.642L390.843 431.815C390.526 424.87 390.167 417.933 389.764 410.989C389.715 417.937 389.71 424.891 389.742 431.845L389.805 452.7L390.48 451.72L370.712 458.335C367.458 459.409 349.09 465.701 346.297 466.619C361.127 471.283 376.047 475.765 390.913 480.308L389.512 478.481L390.46 520.16L390.608 526.576L394.227 521.285L417.781 486.886L415.614 487.653C430.531 491.963 445.474 496.34 460.428 500.543L457.416 496.683C448.854 485.737 440.236 474.836 431.584 463.949L431.617 465.137C435.813 458.496 442.011 449.019 446.03 442.425L446.027 442.411Z" fill="url(#paint7_linear_1_287)"></path><path d="M212.801 122.314C210.917 124.779 208.321 128.305 206.458 130.827C209.69 135.205 212.932 139.576 216.199 143.931L216.866 142.962C211.594 141.316 206.3 139.729 201.018 138.11L200.707 138.562L191.576 151.74L193.025 152.172L192.58 136.146L192.564 135.593C187.252 134.065 181.954 132.503 176.634 131.001L176.663 132.179C180.414 130.808 187.966 128.024 191.703 126.624L191.978 126.524L191.963 126.248L191.581 118.239C191.459 115.568 191.321 112.901 191.166 110.231C191.147 112.902 191.145 115.576 191.157 118.251L191.182 126.27L191.441 125.893L183.839 128.437C182.588 128.85 175.525 131.27 174.451 131.622C180.154 133.416 185.891 135.14 191.608 136.886L191.069 136.184L191.434 152.211L191.49 154.678L192.882 152.644L201.94 139.416L201.106 139.711C206.842 141.368 212.589 143.051 218.339 144.668L217.181 143.184C213.888 138.974 210.574 134.782 207.248 130.596L207.26 131.053C208.874 128.499 211.257 124.855 212.802 122.319L212.801 122.314Z" fill="url(#paint8_linear_1_287)"></path><path d="M397.203 81.7271L405.892 76.2706L403.385 66.324L411.26 72.8999L419.945 67.4452L416.125 76.9623L424 83.5382L413.764 82.8452L409.943 92.3654L407.439 82.4201L397.203 81.7271Z" fill="url(#paint9_linear_1_287)"></path><path d="M418.056 69.7072L411.184 74.0228L404.956 68.8205L406.938 76.6901L400.065 81.0056L408.16 81.5557L410.142 89.4252L413.166 81.8923L421.262 82.4393L415.034 77.2371L418.056 69.7072Z" fill="url(#paint10_linear_1_287)"></path><path d="M281.828 29.0927L285.957 17.4801L276.189 9.96913L288.509 10.3063L292.635 -1.3014L296.119 10.5145L308.438 10.8517L298.273 17.8184L301.758 29.6381L291.993 22.126L281.828 29.0927Z" fill="url(#paint11_linear_1_287)"></path><path d="M292.539 2.23681L289.272 11.4216L279.528 11.1536L287.255 17.097L283.988 26.2819L292.03 20.774L299.757 26.7175L296.999 17.3651L305.039 11.8535L295.295 11.5854L292.539 2.23681Z" fill="url(#paint12_linear_1_287)"></path></g><defs><lineargradient id="paint0_linear_1_287" x1="-102.061" y1="237.903" x2="820.741" y2="675.727" gradientUnits="userSpaceOnUse"><stop stop-color="#EBC17D"></stop><stop offset="0.1" stop-color="#E4AF78"></stop><stop offset="0.2" stop-color="#DC9A72"></stop><stop offset="0.3" stop-color="#D79368"></stop><stop offset="0.5" stop-color="#CC824D"></stop><stop offset="0.6" stop-color="#BE6D2B"></stop><stop offset="0.7" stop-color="#C17332"></stop><stop offset="0.8" stop-color="#CC8746"></stop><stop offset="0.9" stop-color="#DDA667"></stop><stop offset="1" stop-color="#EABE81"></stop></lineargradient><lineargradient id="paint1_linear_1_287" x1="328.737" y1="147.425" x2="347.125" y2="200.06" gradientUnits="userSpaceOnUse"><stop stop-color="#EBC17D"></stop><stop offset="0.09" stop-color="#E4AF78"></stop><stop offset="0.19" stop-color="#DC9A72"></stop><stop offset="0.6" stop-color="#BE6D2B"></stop><stop offset="1" stop-color="#EABE81"></stop></lineargradient><lineargradient id="paint2_linear_1_287" x1="330.981" y1="153.234" x2="345.527" y2="194.875" gradientUnits="userSpaceOnUse"><stop stop-color="#EBC17D"></stop><stop offset="0.09" stop-color="#E4AF78"></stop><stop offset="0.19" stop-color="#DC9A72"></stop><stop offset="0.6" stop-color="#BE6D2B"></stop><stop offset="1" stop-color="#EABE81"></stop></lineargradient><lineargradient id="paint3_linear_1_287" x1="488.11" y1="573.677" x2="496.139" y2="596.66" gradientUnits="userSpaceOnUse"><stop stop-color="#EBC17D"></stop><stop offset="0.09" stop-color="#E4AF78"></stop><stop offset="0.19" stop-color="#DC9A72"></stop><stop offset="0.6" stop-color="#BE6D2B"></stop><stop offset="1" stop-color="#EABE81"></stop></lineargradient><lineargradient id="paint4_linear_1_287" x1="489.089" y1="576.214" x2="495.441" y2="594.396" gradientUnits="userSpaceOnUse"><stop stop-color="#EBC17D"></stop><stop offset="0.09" stop-color="#E4AF78"></stop><stop offset="0.19" stop-color="#DC9A72"></stop><stop offset="0.6" stop-color="#BE6D2B"></stop><stop offset="1" stop-color="#EABE81"></stop></lineargradient><lineargradient id="paint5_linear_1_287" x1="423.679" y1="251.41" x2="478.725" y2="270.959" gradientUnits="userSpaceOnUse"><stop stop-color="#EBC17D"></stop><stop offset="0.09" stop-color="#E4AF78"></stop><stop offset="0.19" stop-color="#DC9A72"></stop><stop offset="0.6" stop-color="#BE6D2B"></stop><stop offset="1" stop-color="#EABE81"></stop></lineargradient><lineargradient id="paint6_linear_1_287" x1="256.973" y1="313.695" x2="265.411" y2="345.493" gradientUnits="userSpaceOnUse"><stop stop-color="#EBC17D"></stop><stop offset="0.09" stop-color="#E4AF78"></stop><stop offset="0.19" stop-color="#DC9A72"></stop><stop offset="0.6" stop-color="#BE6D2B"></stop><stop offset="1" stop-color="#EABE81"></stop></lineargradient><lineargradient id="paint7_linear_1_287" x1="346.405" y1="465.297" x2="462.5" y2="474.542" gradientUnits="userSpaceOnUse"><stop stop-color="#EBC17D"></stop><stop offset="0.09" stop-color="#E4AF78"></stop><stop offset="0.19" stop-color="#DC9A72"></stop><stop offset="0.6" stop-color="#BE6D2B"></stop><stop offset="1" stop-color="#EABE81"></stop></lineargradient><lineargradient id="paint8_linear_1_287" x1="174.493" y1="131.114" x2="219.136" y2="134.669" gradientUnits="userSpaceOnUse"><stop stop-color="#EBC17D"></stop><stop offset="0.09" stop-color="#E4AF78"></stop><stop offset="0.19" stop-color="#DC9A72"></stop><stop offset="0.6" stop-color="#BE6D2B"></stop><stop offset="1" stop-color="#EABE81"></stop></lineargradient><lineargradient id="paint9_linear_1_287" x1="397.061" y1="80.7176" x2="423.063" y2="77.0021" gradientUnits="userSpaceOnUse"><stop stop-color="#EBC17D"></stop><stop offset="0.09" stop-color="#E4AF78"></stop><stop offset="0.19" stop-color="#DC9A72"></stop><stop offset="0.6" stop-color="#BE6D2B"></stop><stop offset="1" stop-color="#EABE81"></stop></lineargradient><lineargradient id="paint10_linear_1_287" x1="399.951" y1="80.2084" x2="420.521" y2="77.2696" gradientUnits="userSpaceOnUse"><stop stop-color="#EBC17D"></stop><stop offset="0.09" stop-color="#E4AF78"></stop><stop offset="0.19" stop-color="#DC9A72"></stop><stop offset="0.6" stop-color="#BE6D2B"></stop><stop offset="1" stop-color="#EABE81"></stop></lineargradient><lineargradient id="paint11_linear_1_287" x1="280.943" y1="28.2465" x2="302.69" y2="5.38699" gradientUnits="userSpaceOnUse"><stop stop-color="#EBC17D"></stop><stop offset="0.09" stop-color="#E4AF78"></stop><stop offset="0.19" stop-color="#DC9A72"></stop><stop offset="0.6" stop-color="#BE6D2B"></stop><stop offset="1" stop-color="#EABE81"></stop></lineargradient><lineargradient id="paint12_linear_1_287" x1="283.287" y1="25.6151" x2="300.493" y2="7.53113" gradientUnits="userSpaceOnUse"><stop stop-color="#EBC17D"></stop><stop offset="0.09" stop-color="#E4AF78"></stop><stop offset="0.19" stop-color="#DC9A72"></stop><stop offset="0.6" stop-color="#BE6D2B"></stop><stop offset="1" stop-color="#EABE81"></stop></lineargradient></defs></svg>