<svg xmlns="http://www.w3.org/2000/svg" width="537" height="630" viewBox="0 0 537 630" fill="none"><mask id="mask0_1_265" style="mask-type:alpha" maskUnits="userSpaceOnUse" x="0" y="0" width="537" height="630"><rect width="537" height="630" fill="#D9D9D9"></rect></mask><g mask="url(#mask0_1_265)"><path d="M496.328 603.789C468.274 602.815 440.077 602.27 412.188 600.1C384.34 597.992 356.691 593.612 331.347 585.333C306.09 577.025 283.224 564.789 264.764 549.917C246.436 534.925 232.169 517.416 221.572 498.889C216.21 489.609 211.367 480.153 207.084 470.583C202.628 461.072 199.465 451.274 196.99 441.395C191.999 421.574 189.03 401.448 184.9 381.488C180.556 361.524 175.442 341.517 166.148 322.396C156.895 303.337 142.783 284.938 121.636 271.131C111.149 264.198 99.1665 258.532 86.331 254.144C73.409 249.785 60.0664 246.558 46.546 243.542C19.5003 237.665 -8.06685 233.41 -34.9995 228.026C-62.0186 222.673 -88.5259 216.005 -112.173 205.478C-136.176 195.376 -157.47 182.15 -175.665 167.037C-193.815 151.833 -208.433 134.594 -220.675 116.625C-232.697 98.5058 -242.856 79.6785 -252.11 60.6197C-261.149 41.5644 -269.496 22.2742 -276.982 2.84412C-280.618 -6.8692 -284.591 -16.7724 -291.419 -25.7068C-294.877 -30.1594 -298.94 -34.4064 -303.705 -38.1112C-308.557 -41.7867 -313.979 -45.0409 -319.883 -47.9031L-320.193 -47.5699C-314.462 -44.649 -309.213 -41.3361 -304.535 -37.6019C-299.943 -33.8383 -296.093 -29.5947 -292.936 -25.1162C-286.536 -16.1887 -283.073 -6.41665 -279.523 3.32604C-272.469 22.9029 -264.469 42.3105 -255.821 61.5747C-247.001 80.7803 -237.233 99.8166 -225.393 118.302C-213.294 136.699 -198.298 154.19 -179.944 169.705C-161.417 185.162 -139.75 198.793 -115.024 209.03C-90.6528 219.691 -63.5038 226.369 -36.225 231.635C-8.99191 236.992 18.5848 240.941 45.5126 246.478C58.9104 249.307 72.2987 252.443 85.0164 256.491C97.6475 260.568 109.507 266.047 119.831 272.732C140.692 286.104 154.859 304.104 164.29 322.95C173.889 341.892 179.262 361.811 183.179 381.767C187.309 401.728 189.764 421.877 194.236 441.873C196.451 451.84 199.436 461.851 203.714 471.574C207.864 481.265 212.275 490.868 217.632 500.301C228.306 519.106 242.473 537.106 261.432 552.416C280.484 567.543 303.859 579.91 329.886 588.261C355.913 596.613 384.131 600.571 412.117 602.405C440.229 604.271 468.409 603.986 496.478 604.498L496.533 604.099L496.328 603.789Z" fill="#CE4141"></path><path d="M537.591 605.678C508.633 603.491 479.65 602.072 451.061 598.999C422.513 595.988 394.424 590.617 368.85 581.504C356.146 576.995 344.078 571.359 332.975 564.939C321.873 558.518 311.604 551.435 302.735 543.421C284.95 527.485 271.262 509.246 261.677 489.844C256.711 480.201 252.311 470.291 248.47 460.267C244.457 450.302 241.772 440.266 239.867 429.965C235.97 409.394 234.267 388.457 231.404 367.687C228.326 346.914 224.739 326.009 216.548 305.829C212.453 295.74 207.196 285.816 200.423 276.483C193.609 267.087 184.977 258.308 174.683 250.702C164.347 243.033 152.215 236.658 139.058 231.619C125.9 226.58 112.23 222.855 98.3828 219.343C70.6831 212.471 42.462 207.221 14.8706 200.997C-12.7209 194.773 -39.3725 187.242 -63.0774 175.823C-87.0515 164.798 -108.194 150.837 -125.933 134.809C-143.585 118.752 -157.533 100.602 -168.89 81.7243C-180.114 62.7261 -189.302 42.9612 -197.457 22.9976C-205.484 3.06686 -213.074 -17.1644 -219.594 -37.3784C-222.788 -47.5458 -226.359 -57.9653 -233.041 -67.4816C-236.362 -72.2086 -240.375 -76.7008 -245.258 -80.7458C-250.1 -84.7286 -255.685 -88.2314 -261.671 -91.2179L-262.332 -90.6136C-256.697 -87.356 -251.458 -83.7358 -247.003 -79.6977C-242.548 -75.6596 -239.049 -71.1449 -236.157 -66.4247C-230.371 -56.9843 -227.779 -46.765 -225.013 -36.6045C-219.404 -16.0054 -213.102 4.35884 -205.686 24.6488C-198.096 44.88 -189.432 64.9747 -178.527 84.6134C-167.536 104.223 -152.833 122.877 -134.736 139.772C-125.621 148.159 -115.504 155.978 -104.512 163.196C-99.1456 166.849 -93.2554 170.172 -87.5382 173.554C-81.5567 176.694 -75.5752 179.834 -69.197 182.612C-56.6594 188.317 -43.5017 193.356 -29.8417 197.388C-16.1408 201.483 -2.28854 204.842 11.7872 207.897C39.7657 214.065 68.0469 218.763 95.5061 225.108C109.149 228.31 122.824 231.881 135.572 236.298C148.362 240.778 160.126 246.594 170.394 253.677C190.972 267.906 204.682 286.821 212.841 306.631C221.256 326.506 225.276 347.264 227.584 367.995C228.802 378.377 229.719 388.784 230.636 399.192C231.467 409.629 232.298 420.066 233.771 430.513C235.202 440.898 237.44 451.542 241.061 461.716C244.51 471.949 248.305 482.065 253.088 492.074C262.786 511.97 276.181 531.372 295.276 547.852C304.737 556.121 315.683 563.431 327.336 570.044C338.989 576.658 351.613 582.334 364.999 586.915C391.853 596.202 421.04 600.669 450.035 603.072C479.117 605.445 508.26 605.822 537.308 606.534L537.332 605.766L537.591 605.678Z" fill="url(#paint0_linear_1_265)"></path><path d="M210.307 481.866L195.384 466.004L175.694 475.298L186.165 456.204L171.247 440.349L192.634 444.407L203.105 425.312L205.854 446.916L227.247 450.975L207.559 460.263L210.307 481.866Z" fill="url(#paint1_linear_1_265)"></path><path d="M176.732 443.357L188.535 455.904L180.25 471.006L195.829 463.655L207.633 476.202L205.463 459.116L221.042 451.764L204.114 448.552L201.937 431.465L193.653 446.567L176.732 443.357Z" fill="url(#paint2_linear_1_265)"></path><path d="M49.7831 56.0135L43.2668 49.0871L34.6693 53.1456L39.2414 44.808L32.7276 37.8852L42.066 39.6572L46.6382 31.3196L47.8385 40.7525L57.1799 42.5251L48.5829 46.5806L49.7831 56.0135Z" fill="url(#paint3_linear_1_265)"></path><path d="M35.1226 39.1986L40.2764 44.6772L36.659 51.2715L43.4614 48.0616L48.6153 53.5402L47.6678 46.0797L54.4703 42.8698L47.0789 41.4673L46.1284 34.0062L42.511 40.6005L35.1226 39.1986Z" fill="url(#paint4_linear_1_265)"></path><path d="M110 339.406C103.995 344.116 95.4738 351.099 89.4461 355.929L90.234 355.871C83.3737 351.431 71.9949 344.131 65.12 339.761L66.3575 342.836L76.28 367.448L76.628 366.009C69.9165 371.685 63.1686 377.309 56.4901 383.023L53.4768 385.601L57.4302 385.308C63.9949 384.84 77.2242 383.836 83.7883 383.318L82.6087 382.581C85.6928 389.911 90.9559 402.299 94.0744 409.592L94.6799 406.892C96.1339 400.468 98.9659 387.501 100.344 381.066L100.026 381.336C104.289 380.939 108.549 380.52 112.808 380.068C108.442 380.227 104.083 380.412 99.7213 380.634C97.9774 387.136 94.605 399.935 92.9402 406.462L94.6426 406.339C92.2074 400.196 87.2676 387.818 84.7993 381.694L84.4791 380.905L83.6149 380.961C77.0365 381.374 63.8171 382.252 57.2393 382.714L58.1794 384.999C64.9156 379.352 71.5729 373.621 78.2762 367.936L78.9807 367.339L78.6201 366.492L68.3257 342.029L66.7912 343.329C72.4443 346.755 83.8564 353.635 89.5365 357.005L89.9707 357.263L90.3244 356.947C96.0865 351.833 104.393 344.488 110.005 339.393L110 339.406Z" fill="url(#paint5_linear_1_265)"></path><path d="M281.266 315.977L273.199 305.973L261.197 310.547L268.219 299.797L260.161 289.796L272.556 293.149L279.58 282.391L280.22 295.223L292.624 298.58L280.623 303.154L281.266 315.977Z" fill="url(#paint6_linear_1_265)"></path><path d="M90.9728 187.589C95.8735 181.177 102.624 172.009 107.469 165.449C99.0636 154.064 90.6329 142.698 82.1379 131.372L80.4024 133.892C94.1128 138.173 107.881 142.3 121.615 146.512L122.426 145.334L146.169 111.066L142.402 109.941L143.559 151.618L143.601 153.056C157.413 157.03 171.191 161.091 185.026 164.996L184.95 161.933C175.196 165.5 155.557 172.738 145.838 176.378L145.124 176.639L145.163 177.358L146.157 198.185C146.474 205.13 146.833 212.067 147.236 219.011C147.285 212.063 147.29 205.109 147.258 198.155L147.195 177.3L146.52 178.28L166.288 171.665C169.542 170.591 187.91 164.299 190.703 163.381C175.873 158.717 160.953 154.235 146.087 149.692L147.488 151.519L146.54 109.84L146.392 103.424L142.773 108.715L119.219 143.114L121.386 142.348C106.469 138.037 91.5262 133.66 76.5719 129.457L79.5845 133.317C88.1462 144.263 96.7642 155.164 105.416 166.051L105.383 164.863C101.187 171.504 94.9888 180.981 90.9702 187.575L90.9728 187.589Z" fill="url(#paint7_linear_1_265)"></path><path d="M324.199 507.686C326.083 505.221 328.679 501.695 330.542 499.173C327.31 494.795 324.068 490.424 320.801 486.069L320.134 487.038C325.406 488.684 330.7 490.271 335.982 491.891L336.293 491.438L345.424 478.26L343.975 477.828L344.42 493.854L344.436 494.407C349.748 495.935 355.046 497.497 360.366 498.999L360.337 497.821C356.586 499.192 349.034 501.976 345.297 503.376L345.022 503.476L345.037 503.752L345.419 511.761C345.541 514.432 345.679 517.1 345.834 519.77C345.853 517.098 345.855 514.424 345.843 511.75L345.818 503.73L345.559 504.107L353.161 501.563C354.412 501.15 361.475 498.73 362.549 498.378C356.846 496.584 351.109 494.86 345.392 493.114L345.931 493.816L345.566 477.789L345.51 475.322L344.118 477.356L335.06 490.584L335.894 490.289C330.158 488.632 324.411 486.949 318.661 485.332L319.819 486.817C323.112 491.026 326.426 495.218 329.752 499.404L329.74 498.947C328.126 501.501 325.743 505.145 324.198 507.681L324.199 507.686Z" fill="url(#paint8_linear_1_265)"></path><path d="M139.797 548.273L131.108 553.729L133.615 563.676L125.74 557.1L117.055 562.555L120.875 553.038L113 546.462L123.236 547.155L127.057 537.635L129.561 547.58L139.797 548.273Z" fill="url(#paint9_linear_1_265)"></path><path d="M118.944 560.293L125.817 555.977L132.045 561.18L130.063 553.31L136.935 548.995L128.84 548.445L126.858 540.575L123.835 548.108L115.738 547.561L121.966 552.763L118.944 560.293Z" fill="url(#paint10_linear_1_265)"></path><path d="M255.172 600.908L251.043 612.52L260.811 620.031L248.492 619.694L244.365 631.302L240.881 619.486L228.562 619.149L238.727 612.182L235.242 600.362L245.007 607.875L255.172 600.908Z" fill="url(#paint11_linear_1_265)"></path><path d="M244.461 627.763L247.728 618.579L257.472 618.847L249.745 612.903L253.012 603.718L244.97 609.226L237.243 603.283L240.001 612.635L231.961 618.147L241.705 618.415L244.461 627.763Z" fill="url(#paint12_linear_1_265)"></path></g><defs><lineargradient id="paint0_linear_1_265" x1="639.061" y1="392.097" x2="-283.741" y2="-45.7274" gradientUnits="userSpaceOnUse"><stop stop-color="#EBC17D"></stop><stop offset="0.1" stop-color="#E4AF78"></stop><stop offset="0.2" stop-color="#DC9A72"></stop><stop offset="0.3" stop-color="#D79368"></stop><stop offset="0.5" stop-color="#CC824D"></stop><stop offset="0.6" stop-color="#BE6D2B"></stop><stop offset="0.7" stop-color="#C17332"></stop><stop offset="0.8" stop-color="#CC8746"></stop><stop offset="0.9" stop-color="#DDA667"></stop><stop offset="1" stop-color="#EABE81"></stop></lineargradient><lineargradient id="paint1_linear_1_265" x1="208.263" y1="482.575" x2="189.875" y2="429.94" gradientUnits="userSpaceOnUse"><stop stop-color="#EBC17D"></stop><stop offset="0.09" stop-color="#E4AF78"></stop><stop offset="0.19" stop-color="#DC9A72"></stop><stop offset="0.6" stop-color="#BE6D2B"></stop><stop offset="1" stop-color="#EABE81"></stop></lineargradient><lineargradient id="paint2_linear_1_265" x1="206.019" y1="476.766" x2="191.473" y2="435.125" gradientUnits="userSpaceOnUse"><stop stop-color="#EBC17D"></stop><stop offset="0.09" stop-color="#E4AF78"></stop><stop offset="0.19" stop-color="#DC9A72"></stop><stop offset="0.6" stop-color="#BE6D2B"></stop><stop offset="1" stop-color="#EABE81"></stop></lineargradient><lineargradient id="paint3_linear_1_265" x1="48.8904" y1="56.3229" x2="40.8614" y2="33.3403" gradientUnits="userSpaceOnUse"><stop stop-color="#EBC17D"></stop><stop offset="0.09" stop-color="#E4AF78"></stop><stop offset="0.19" stop-color="#DC9A72"></stop><stop offset="0.6" stop-color="#BE6D2B"></stop><stop offset="1" stop-color="#EABE81"></stop></lineargradient><lineargradient id="paint4_linear_1_265" x1="47.9106" y1="53.7864" x2="41.5594" y2="35.6042" gradientUnits="userSpaceOnUse"><stop stop-color="#EBC17D"></stop><stop offset="0.09" stop-color="#E4AF78"></stop><stop offset="0.19" stop-color="#DC9A72"></stop><stop offset="0.6" stop-color="#BE6D2B"></stop><stop offset="1" stop-color="#EABE81"></stop></lineargradient><lineargradient id="paint5_linear_1_265" x1="113.321" y1="378.59" x2="58.275" y2="359.041" gradientUnits="userSpaceOnUse"><stop stop-color="#EBC17D"></stop><stop offset="0.09" stop-color="#E4AF78"></stop><stop offset="0.19" stop-color="#DC9A72"></stop><stop offset="0.6" stop-color="#BE6D2B"></stop><stop offset="1" stop-color="#EABE81"></stop></lineargradient><lineargradient id="paint6_linear_1_265" x1="280.027" y1="316.305" x2="271.589" y2="284.507" gradientUnits="userSpaceOnUse"><stop stop-color="#EBC17D"></stop><stop offset="0.09" stop-color="#E4AF78"></stop><stop offset="0.19" stop-color="#DC9A72"></stop><stop offset="0.6" stop-color="#BE6D2B"></stop><stop offset="1" stop-color="#EABE81"></stop></lineargradient><lineargradient id="paint7_linear_1_265" x1="190.595" y1="164.703" x2="74.4999" y2="155.459" gradientUnits="userSpaceOnUse"><stop stop-color="#EBC17D"></stop><stop offset="0.09" stop-color="#E4AF78"></stop><stop offset="0.19" stop-color="#DC9A72"></stop><stop offset="0.6" stop-color="#BE6D2B"></stop><stop offset="1" stop-color="#EABE81"></stop></lineargradient><lineargradient id="paint8_linear_1_265" x1="362.507" y1="498.886" x2="317.864" y2="495.331" gradientUnits="userSpaceOnUse"><stop stop-color="#EBC17D"></stop><stop offset="0.09" stop-color="#E4AF78"></stop><stop offset="0.19" stop-color="#DC9A72"></stop><stop offset="0.6" stop-color="#BE6D2B"></stop><stop offset="1" stop-color="#EABE81"></stop></lineargradient><lineargradient id="paint9_linear_1_265" x1="139.939" y1="549.282" x2="113.937" y2="552.998" gradientUnits="userSpaceOnUse"><stop stop-color="#EBC17D"></stop><stop offset="0.09" stop-color="#E4AF78"></stop><stop offset="0.19" stop-color="#DC9A72"></stop><stop offset="0.6" stop-color="#BE6D2B"></stop><stop offset="1" stop-color="#EABE81"></stop></lineargradient><lineargradient id="paint10_linear_1_265" x1="137.049" y1="549.792" x2="116.479" y2="552.731" gradientUnits="userSpaceOnUse"><stop stop-color="#EBC17D"></stop><stop offset="0.09" stop-color="#E4AF78"></stop><stop offset="0.19" stop-color="#DC9A72"></stop><stop offset="0.6" stop-color="#BE6D2B"></stop><stop offset="1" stop-color="#EABE81"></stop></lineargradient><lineargradient id="paint11_linear_1_265" x1="256.057" y1="601.754" x2="234.31" y2="624.614" gradientUnits="userSpaceOnUse"><stop stop-color="#EBC17D"></stop><stop offset="0.09" stop-color="#E4AF78"></stop><stop offset="0.19" stop-color="#DC9A72"></stop><stop offset="0.6" stop-color="#BE6D2B"></stop><stop offset="1" stop-color="#EABE81"></stop></lineargradient><lineargradient id="paint12_linear_1_265" x1="253.713" y1="604.385" x2="236.508" y2="622.469" gradientUnits="userSpaceOnUse"><stop stop-color="#EBC17D"></stop><stop offset="0.09" stop-color="#E4AF78"></stop><stop offset="0.19" stop-color="#DC9A72"></stop><stop offset="0.6" stop-color="#BE6D2B"></stop><stop offset="1" stop-color="#EABE81"></stop></lineargradient></defs></svg>