<svg class="brxe-svg" id="brxe-mxbpgf" xmlns="http://www.w3.org/2000/svg" width="80" height="80" viewBox="0 0 80 80" fill="none"><g clip-path="url(#clip0_1_223)"><path d="M78.174 72.8949H74.9664L75.1503 57.8524C75.1503 56.4905 74.0424 55.3826 72.6805 55.3826H53.8171C53.7859 50.6463 53.7487 45.9141 53.6794 42.0193C53.6545 40.6634 52.5387 39.5446 51.0404 39.623C43.3174 40.1757 35.4787 40.2629 27.7471 39.8857C27.1424 39.8547 26.5482 40.0612 26.0784 40.4376C24.3205 41.3845 23.7023 43.8432 23.7708 45.7906C23.8255 47.346 23.8802 48.9014 23.9349 50.4568H5.27909C4.34733 50.4568 3.54434 50.9815 3.12382 51.7452C1.42322 53.2237 1.25133 55.1454 1.22786 57.3762C1.17332 62.5494 1.1187 67.7228 1.06424 72.8962H0.526318C-1.87763 72.663 -3.7455 77.9414 0.662005 79.5697C1.81223 79.9929 3.01598 79.9929 4.07907 79.9929C28.9429 80.0014 53.1078 80.0834 76.0677 79.368C77.0474 79.3369 78.2661 79.2983 79.3603 78.783C80.5043 78.2464 81.5997 77.0265 81.4678 75.514C81.3361 74.0015 79.7067 72.3143 78.174 72.8949ZM73.2382 57.8411L73.0541 72.8949L55.3991 72.8952C55.2761 71.0687 55.4643 72.1112 55.0224 63.948C54.9032 61.7491 54.9344 59.5593 55.5484 57.2947H72.6805C72.988 57.2947 73.2382 57.5449 73.2382 57.8411ZM51.1773 41.5301C51.3317 41.5152 51.4848 41.5687 51.598 41.672C51.9994 42.0404 51.8194 58.5273 52.0635 72.8952L27.6873 72.8957C27.7512 72.4755 27.7438 75.2172 27.0749 42.3405C27.068 42.0603 27.2606 41.809 27.6537 41.7953C35.46 42.1749 43.3759 42.0878 51.1773 41.5301ZM24.7238 72.8958L4.66406 72.8962C4.78276 72.5212 4.69122 73.9968 4.7214 52.9266C4.7214 52.6191 4.97161 52.3689 5.27909 52.3689H24.0021C24.2427 59.2111 24.4833 66.0535 24.7238 72.8958ZM78.5474 77.0526C77.8105 77.4 76.8943 77.4286 76.008 77.456C53.3809 78.1622 28.9503 78.0875 4.07907 78.0809C3.13175 78.0809 2.15332 78.0809 1.32301 77.7759C0.558686 77.4933 0.00473523 76.9282 -0.089872 76.3356C-0.191948 75.6933 0.233784 74.8505 0.491465 74.807C84.116 74.7777 78.4475 74.907 78.8064 74.6887C79.0304 74.7136 79.5271 75.2663 79.5632 75.6784C79.6118 76.2448 79.0902 76.7987 78.5474 77.0526Z" fill="url(#paint0_linear_1_223)"></path><path d="M34.1803 54.0534L38.1949 50.9612L38.2086 63.6348C38.2086 64.1626 38.6368 64.5909 39.1646 64.5909C39.6924 64.5909 40.1207 64.1626 40.1207 63.6348L40.1045 49.0192C40.1045 48.2285 39.1944 47.7773 38.5646 48.2611L33.0127 52.5371C32.5944 52.8596 32.5172 53.4596 32.8384 53.8791C33.1608 54.2948 33.7596 54.3758 34.1803 54.0534Z" fill="url(#paint1_linear_1_223)"></path><path d="M11.1037 59.3861C11.888 59.0325 12.6996 58.6666 13.4838 58.6354C14.0527 58.6317 14.7585 58.8272 15.0088 59.34C15.2042 59.7409 15.142 60.3396 14.8183 61.1699C14.0838 63.0558 12.854 64.714 11.2618 65.965C10.507 66.5594 11.0041 67.793 11.9925 67.663L18.6773 66.6771C19.2001 66.5999 19.5611 66.1144 19.4839 65.5916C19.4055 65.0687 18.93 64.7202 18.3984 64.7849L14.5868 65.3476C15.9142 63.6942 17.721 60.5417 16.7279 58.5023C16.1752 57.367 14.8569 56.6487 13.4104 56.7259C12.2527 56.7707 11.2245 57.2338 10.317 57.6433C9.83648 57.8599 9.62237 58.4263 9.83897 58.9081C10.0556 59.3898 10.6232 59.6014 11.1037 59.3861Z" fill="url(#paint2_linear_1_223)"></path><path d="M60.0829 71.1076C64.5785 72.3337 67.388 67.6874 64.8319 65.2021C66.5975 63.3172 65.8483 60.549 63.368 59.8842C61.2992 59.3268 59.3509 60.7599 60.2945 61.846C60.6418 62.2456 61.2455 62.2855 61.6439 61.9406C62.2647 61.3967 63.5577 61.7301 63.831 62.5257C64.0676 63.2119 63.4883 64.1292 62.7555 64.3071C62.5626 64.2809 62.4169 64.317 62.2489 64.3494C61.1395 64.5522 61.2466 66.1861 62.3733 66.244C62.5377 66.254 62.6995 66.2453 62.8601 66.2278C63.3107 66.2976 63.7613 66.7158 63.8547 67.2075C64.1034 68.5094 62.6087 69.8076 60.5808 69.2627C60.0716 69.1208 59.5463 69.4271 59.4094 69.9362C59.2712 70.4453 59.5725 70.9707 60.0829 71.1076Z" fill="url(#paint3_linear_1_223)"></path><path d="M54.9279 8.70767C55.3154 8.02895 54.7645 7.18239 53.9682 7.28732L42.751 8.82469C34.7377 0.139283 35.2067 0.297809 34.613 0.172169C34.4018 -0.096801 34.0602 -0.0127326 33.7705 0.166567C32.8196 0.753679 32.3797 2.03255 32.1019 3.12336C31.8981 3.92378 30.8839 9.97913 30.863 10.1081C30.8186 10.3814 30.4699 11.7784 30.3837 12.5676C20.6578 16.989 21.1402 16.6993 20.9115 16.9061C20.4898 17.2179 20.2715 17.8337 20.3827 18.3379C20.4809 18.783 20.7716 19.1607 21.0855 19.4913C23.703 22.2495 29.9744 23.9999 31.1711 24.6512C32.4691 35.8781 32.2025 34.9738 32.5173 35.545C32.8637 36.1794 33.8701 36.3331 34.4997 36.159C35.5252 35.8755 35.5482 35.6944 43.8755 28.1697L53.2014 30.0926C53.9705 30.2571 54.6016 29.454 54.2545 28.7408L49.3262 18.5468L54.9279 8.70767ZM51.6901 27.8295L42.0053 25.8316C41.7003 25.7644 41.3779 25.859 41.1501 26.0781L34.0147 32.9234L32.9218 23.0942C32.8869 22.7817 32.7015 22.5066 32.4239 22.3573L23.7088 17.6854L32.7189 13.6098C33.0052 13.4804 33.2093 13.2177 33.2654 12.9077L35.0156 3.17564L41.6755 10.484C41.8883 10.7168 42.202 10.8314 42.512 10.7878L52.3088 9.44461L47.4166 18.0377C47.261 18.3116 47.2498 18.6439 47.3867 18.9265L51.6901 27.8295Z" fill="url(#paint4_linear_1_223)"></path><path d="M58.3538 14.806C58.7347 14.4401 58.7472 13.8338 58.3812 13.4541C58.0139 13.0732 57.4102 13.062 57.0293 13.4268L53.4317 16.8849C52.8086 17.4836 53.2405 18.5306 54.094 18.5306C54.333 18.5306 54.5707 18.4422 54.7562 18.2642L58.3538 14.806Z" fill="url(#paint5_linear_1_223)"></path><path d="M62.5589 21.1909C62.5589 20.6631 62.1307 20.2349 61.6028 20.2349H57.2248C56.697 20.2349 56.2687 20.6631 56.2687 21.1909C56.2687 21.7187 56.697 22.1469 57.2248 22.1469H61.6028C62.1307 22.1469 62.5589 21.7187 62.5589 21.1909Z" fill="url(#paint6_linear_1_223)"></path><path d="M56.499 26.6496C56.1555 27.0504 56.2015 27.6542 56.6024 27.9977C60.0354 30.8371 60.0058 31.1472 60.6306 31.1472C61.5164 31.1472 61.9228 30.0395 61.2531 29.4654L57.8472 26.5463C57.4476 26.2039 56.8439 26.25 56.499 26.6496Z" fill="url(#paint7_linear_1_223)"></path></g><defs><lineargradient id="paint0_linear_1_223" x1="-2.00006" y1="79.9999" x2="85.6406" y2="66.359" gradientUnits="userSpaceOnUse"><stop stop-color="#E4AF78"></stop><stop offset="0.2" stop-color="#DC9A72"></stop><stop offset="0.6" stop-color="#BE6D2B"></stop><stop offset="1" stop-color="#EABE81"></stop></lineargradient><lineargradient id="paint1_linear_1_223" x1="32.6403" y1="64.5909" x2="40.6745" y2="64.3171" gradientUnits="userSpaceOnUse"><stop stop-color="#E4AF78"></stop><stop offset="0.2" stop-color="#DC9A72"></stop><stop offset="0.6" stop-color="#BE6D2B"></stop><stop offset="1" stop-color="#EABE81"></stop></lineargradient><lineargradient id="paint2_linear_1_223" x1="9.75446" y1="67.6725" x2="20.1809" y2="66.9744" gradientUnits="userSpaceOnUse"><stop stop-color="#E4AF78"></stop><stop offset="0.2" stop-color="#DC9A72"></stop><stop offset="0.6" stop-color="#BE6D2B"></stop><stop offset="1" stop-color="#EABE81"></stop></lineargradient><lineargradient id="paint3_linear_1_223" x1="59.3759" y1="71.3099" x2="66.274" y2="71.0209" gradientUnits="userSpaceOnUse"><stop stop-color="#E4AF78"></stop><stop offset="0.2" stop-color="#DC9A72"></stop><stop offset="0.6" stop-color="#BE6D2B"></stop><stop offset="1" stop-color="#EABE81"></stop></lineargradient><lineargradient id="paint4_linear_1_223" x1="20.3539" y1="36.2258" x2="57.4744" y2="33.5486" gradientUnits="userSpaceOnUse"><stop stop-color="#E4AF78"></stop><stop offset="0.2" stop-color="#DC9A72"></stop><stop offset="0.6" stop-color="#BE6D2B"></stop><stop offset="1" stop-color="#EABE81"></stop></lineargradient><lineargradient id="paint5_linear_1_223" x1="53.1367" y1="18.5306" x2="59.0275" y2="18.0754" gradientUnits="userSpaceOnUse"><stop stop-color="#E4AF78"></stop><stop offset="0.2" stop-color="#DC9A72"></stop><stop offset="0.6" stop-color="#BE6D2B"></stop><stop offset="1" stop-color="#EABE81"></stop></lineargradient><lineargradient id="paint6_linear_1_223" x1="56.2687" y1="22.1469" x2="62.6415" y2="20.5685" gradientUnits="userSpaceOnUse"><stop stop-color="#E4AF78"></stop><stop offset="0.2" stop-color="#DC9A72"></stop><stop offset="0.6" stop-color="#BE6D2B"></stop><stop offset="1" stop-color="#EABE81"></stop></lineargradient><lineargradient id="paint7_linear_1_223" x1="56.2687" y1="31.1472" x2="61.9479" y2="30.6764" gradientUnits="userSpaceOnUse"><stop stop-color="#E4AF78"></stop><stop offset="0.2" stop-color="#DC9A72"></stop><stop offset="0.6" stop-color="#BE6D2B"></stop><stop offset="1" stop-color="#EABE81"></stop></lineargradient><clippath id="clip0_1_223"><rect width="80" height="80" fill="white"></rect></clippath></defs></svg>