<svg class="brxe-svg" id="brxe-ofuyaw" xmlns="http://www.w3.org/2000/svg" width="80" height="80" viewBox="0 0 80 80" fill="none"><path d="M32.525 30.2999C32.3894 28.5289 33.0172 26.6621 34.3248 25.4359C35.2755 24.4678 36.7904 24.0709 38.1016 24.3798C38.4544 24.441 38.6091 24.8454 38.8573 25.0215C38.7862 25.0656 38.7169 25.0884 38.6766 25.1833C38.617 25.2399 38.5198 25.1927 38.4743 25.2985C38.3895 25.4309 38.2311 25.4075 38.1159 25.4949C38.0127 25.5338 37.9575 25.6865 37.8576 25.7339C37.1609 25.9497 36.4753 26.4592 36.137 27.0888C35.1595 28.6121 34.9427 30.9654 36.522 32.2038C37.5145 33.1366 38.9647 33.3262 40.1997 32.7963C41.8452 32.2411 42.8332 30.4194 42.4172 28.7354C42.3495 28.0974 41.8947 27.6144 41.6463 27.0803C41.5919 26.9133 41.4285 26.7787 41.303 26.6564C40.9895 26.4104 40.7133 26.0439 40.3277 25.9225C40.2034 25.8628 39.9993 25.9263 39.9402 25.7818C39.6548 25.5 39.1029 25.691 38.8575 25.2773C38.9355 25.1857 39.0368 25.2072 39.1348 25.1671C39.0358 25.1174 39.1394 25.0505 39.1581 24.9763C38.6212 24.4644 41.5675 24.7062 41.8333 24.9572C44.8139 26.1195 45.6063 30.3295 43.9514 32.8745C40.9172 37.8284 33.0829 36.1229 32.525 30.2999ZM72.961 45.1453C72.9038 46.3608 72.0145 47.3508 71.5346 48.4243C70.5035 50.3776 69.3216 52.325 67.7203 53.8723C65.078 56.6051 61.4619 58.2192 59.1756 61.29C56.4549 65.1908 55.1118 69.8905 53.8397 74.3806C57.1735 75.279 62.3301 76.6272 64.1258 79.7537C62.4149 79.6937 60.7999 78.9557 59.1387 78.4687C54.4504 77.4319 49.7426 76.1385 44.9017 75.8822C39.0022 75.502 32.9906 75.6968 27.1801 76.8575C24.7896 77.356 22.4442 77.9938 20.1124 78.6607C19.4485 78.8523 18.7764 79.0175 18.18 79.3858C18.0622 79.4785 17.9224 79.3653 17.799 79.4307C17.165 79.6278 16.5674 80.0934 15.8707 79.9834C15.961 79.8319 16.1288 79.7747 16.2584 79.6643C16.0766 79.6939 16.2006 79.5883 16.1941 79.4827C16.1198 79.4414 16.0412 79.5144 15.9634 79.4968C18.9791 76.8835 22.9928 75.4863 26.8686 74.5859C25.0152 70.228 23.7603 65.5216 21.1419 61.5529C19.1088 58.6249 15.7642 56.9243 13.2171 54.4669C10.4882 52.1538 8.65048 48.9713 7.11373 45.7864C6.44621 43.9131 8.86988 42.2257 10.4058 43.4987C12.5821 45.4078 14.8261 47.3075 17.2972 48.8083C19.4223 50.2909 21.9414 50.2589 24.1112 48.8714C26.1365 47.7224 28.1693 46.5645 30.2215 45.4586C28.9083 41.5812 25.5753 39.0102 23.1794 35.8102C22.4604 34.8093 21.401 33.5509 21.9109 32.198C22.279 31.3228 22.8125 30.3974 23.7516 30.0067C25.6708 29.2373 27.3799 31.0617 28.7826 32.064C32.4494 34.9271 37.416 37.6956 42.1071 36.0328C44.5522 34.935 47.0073 32.7843 48.2573 30.4256C49.9565 26.8232 50.3949 22.6703 50.835 18.724C51.0314 16.2025 54.5507 15.9088 55.379 18.1989C56.7287 21.7997 56.0479 28.7858 55.1477 32.5393C54.1389 37.1004 51.4732 40.9653 49.6154 45.1628C52.4548 46.8292 55.0167 49.2773 58.3382 49.9227C62.5118 50.3788 66.1031 46.2899 69.0819 43.8001C70.3098 42.2697 72.9892 43.1527 72.961 45.1453ZM70.799 45.1759C70.8 45.1757 70.8 45.1757 70.799 45.1759V45.1759ZM52.9674 19.1104C52.9669 19.111 52.9688 19.109 52.9688 19.109C52.9676 19.1078 52.9672 19.1104 52.9674 19.1104ZM24.6242 32.7722L24.6246 32.7732L24.625 32.773C24.625 32.773 24.6242 32.7724 24.6242 32.7722ZM23.5388 32.8816C23.5394 32.8818 23.5401 32.8822 23.5409 32.8824C23.335 32.7968 23.4482 32.8439 23.5388 32.8816ZM23.5261 32.8769C23.5298 32.8786 23.5334 32.8796 23.537 32.881C23.5316 32.8788 23.5272 32.8771 23.5213 32.8745C23.5223 32.8749 23.5251 32.8763 23.5261 32.8769ZM8.62606 45.6961C8.62765 45.6979 8.62983 45.699 8.63142 45.7006C8.62428 45.6939 8.61514 45.6854 8.62606 45.6961ZM31.3752 73.6914C31.4108 73.6863 31.4465 73.6823 31.4822 73.6774C30.6898 71.8221 29.6109 70.1339 29.0899 68.1514C28.022 65.4009 27.4581 62.4316 27.5081 59.488C27.8635 55.5363 29.1565 51.5189 31.248 48.2776C31.0508 47.6788 30.8395 47.0843 30.6227 46.4962C23.3581 53.7799 19.6665 55.0723 11.4482 48.1126C13.5326 51.7025 16.8237 54.2531 19.983 56.8499C25.2034 61.1564 26.4328 68.1687 27.6936 74.4005C28.8801 74.1136 30.1649 73.8701 31.3752 73.6914ZM34.9135 73.2924L35.2255 73.2701C33.9605 65.7438 34.1209 58.0003 31.951 50.6195C30.4145 55.9002 29.4086 59.4866 31.0292 65.0066C31.8916 67.7547 33.1717 70.5653 32.9709 73.4899C33.6174 73.4153 34.2655 73.3541 34.9135 73.2924ZM42.8475 72.9961C43.2513 72.9979 43.6548 73.0092 44.0586 73.0213C44.0521 65.5043 43.5498 57.819 45.4383 50.463C46.1799 47.6611 47.2457 44.9158 48.486 42.3021C50.6365 38.0443 52.9599 33.7592 53.3594 28.9176C53.6377 26.0047 53.7916 22.8931 53.3131 20.0054C52.8944 24.0991 52.4455 28.3954 50.4699 32.0781C49.4456 33.9578 47.8088 35.4081 46.1726 36.7436C42.1369 40.377 36.0216 39.7555 31.5531 37.2842C29.1165 36.1035 27.0826 34.1636 24.8325 32.7434C24.795 32.8034 24.7505 32.8824 24.712 32.9608C26.6204 36.0401 29.6399 38.436 31.5223 41.6139C36.2928 51.3285 36.5827 62.6623 35.6724 73.23C38.0538 72.965 40.454 72.9237 42.8475 72.9961ZM44.4335 72.9352C44.4259 72.9695 44.418 72.9989 44.4122 73.0317L44.4337 73.0323C44.4337 72.9995 44.4337 72.9679 44.4335 72.9352ZM44.2455 72.8655C44.223 72.907 44.2089 72.9632 44.1978 73.0255C44.2385 73.0267 44.2792 73.0279 44.3197 73.0291C44.2955 72.9753 44.2709 72.9213 44.2455 72.8655ZM46.1241 73.1282L46.7283 73.1728L46.7599 73.176C47.1202 71.9212 47.2169 70.6481 47.5082 69.3867C47.8946 67.8754 48.622 66.1885 48.9842 64.6611C49.5683 61.8261 49.5679 58.8913 49.1565 56.0283C48.8287 54.1423 48.1261 52.3363 47.6275 50.5341C45.483 57.8501 45.4439 65.5194 44.7512 73.041C45.2096 73.0519 45.6665 73.0986 46.1241 73.1282ZM68.6878 47.9762C60.9842 54.9827 55.5781 54.0654 49.1891 46.1226C48.8829 46.8951 48.4972 47.8197 48.2448 48.606C51.7448 52.595 52.5985 59.2598 51.9181 64.3796C51.7946 65.3386 51.4573 66.4721 51.1539 67.3923C50.3573 69.4171 49.8292 71.6244 48.4898 73.3698C49.9906 73.5503 51.4823 73.8018 52.9535 74.1533C53.4307 67.7626 55.1844 60.7865 60.4245 56.6309C63.6114 54.1764 66.8356 51.6215 68.6878 47.9762ZM43.1533 7.20528C44.5907 8.26394 46.2693 9.54358 47.7145 10.5961C47.5322 11.1671 47.102 12.5303 46.911 13.1143C46.7839 14.0274 45.4389 16.3931 46.2383 17.2434C46.7831 17.9777 47.8163 17.9407 48.4386 17.3252C49.8618 16.1905 51.3404 15.1275 52.7818 14.0178C54.3472 15.1369 55.9556 16.2017 57.5176 17.3262C58.3636 17.9803 59.6623 17.0497 59.2811 16.0259L59.0198 15.2379L59.0223 15.2361L59.0182 15.233C58.5986 13.9791 57.8424 11.6651 57.4226 10.4223C58.9932 9.24337 60.6534 7.98101 62.2257 6.82348C62.9585 6.26596 62.4618 4.97937 61.5264 5.08599C61.1528 5.12113 60.2831 5.12431 59.8956 5.13066C58.499 5.17534 56.6634 5.16164 55.2901 5.32683C54.5338 3.61416 53.5921 1.95569 52.9182 0.248581C52.8354 0.10106 52.9702 0.529923 52.9629 0.589288L52.9347 0.605569C52.8841 0.519201 52.9327 0.714771 52.9365 0.755076C52.886 0.611526 52.8291 0.368901 52.7741 0.255729C53.1199 2.33869 53.3344 4.38273 53.8708 6.41645C54.117 7.33295 55.2289 7.0939 55.9532 7.13619C56.5774 7.12229 57.1574 7.30337 57.7804 7.26266C54.696 9.62101 54.2389 8.65984 55.5623 12.6451C52.7014 10.5059 52.8604 10.4505 50.0428 12.6774C51.4055 8.87348 51.0469 9.53762 48.033 7.29364C48.9473 7.23586 49.864 7.13877 50.7832 7.10819C52.4955 7.05002 52.2283 1.42279 52.7739 0C51.6419 1.4218 50.8406 3.20177 49.9583 4.86044C47.9829 4.73456 45.9988 4.75203 44.0223 4.68433C42.7145 4.60511 42.0485 6.44564 43.1533 7.20528ZM16.236 45.5104C17.3971 50.215 24.4157 49.9821 25.223 45.2068C25.6066 42.9712 23.8908 40.292 21.397 40.9877C21.2471 41.0231 20.8697 41.0882 21.0927 41.2774C21.0821 41.3429 21.0085 41.4188 21.0732 41.4684C21.0041 41.5113 20.9404 41.4938 20.8931 41.5836C21.0299 41.9104 21.2578 41.8568 21.5148 41.964C21.5322 41.9725 21.5493 41.9809 21.5501 42.0285C21.559 42.1538 21.7018 42.0817 21.7834 42.1177C22.0197 42.1796 22.1513 42.459 22.3381 42.6057C22.4098 42.6754 22.5141 42.7735 22.5206 42.8757C22.4874 42.966 22.5184 42.997 22.5611 43.0238C22.6677 43.158 22.7483 43.3256 22.8222 43.4827C23.2654 44.6313 22.653 45.8349 21.452 46.1233C20.3493 46.5705 19.0264 45.685 18.969 44.4968C18.9464 44.0493 19.0706 43.5468 19.2559 43.1428C19.2454 43.0032 19.3035 42.8557 19.3812 42.7733C19.4338 42.6176 19.5307 42.4669 19.6931 42.3803C19.8754 42.2278 20.0286 42.0293 20.284 41.99C20.3658 41.8846 20.4315 41.7162 20.5574 41.6983C20.5931 41.6848 20.6263 41.663 20.6485 41.5981C20.6741 41.495 20.7359 41.5415 20.7762 41.4867C20.801 41.3928 20.8465 41.3709 20.8931 41.3282C20.7938 41.2065 20.695 41.0326 20.6058 40.8529C20.2605 40.5114 19.6863 40.4667 19.2227 40.5104C16.9128 40.6641 15.7406 43.471 16.236 45.5104ZM62.1634 41.5903C61.3823 40.8757 60.0878 40.6895 59.1379 41.1253C59.0533 41.1843 59.1685 41.2115 59.1901 41.2774C59.1796 41.3441 59.1059 41.418 59.1707 41.4684C59.1014 41.5113 59.038 41.494 58.9906 41.5836C59.1274 41.9102 59.3553 41.8568 59.6122 41.964C59.6297 41.9725 59.6468 41.9809 59.6476 42.0285C59.6565 42.1538 59.7993 42.0817 59.8809 42.1177C60.1171 42.1796 60.2488 42.459 60.4356 42.6057C60.5073 42.6754 60.6115 42.7735 60.6181 42.8757C60.5849 42.966 60.6159 42.997 60.6586 43.0238C60.7652 43.158 60.8458 43.3256 60.9199 43.4827C61.3628 44.6315 60.7509 45.8349 59.5495 46.1233C58.4468 46.5705 57.124 45.685 57.0665 44.4968C57.0438 44.0493 57.1681 43.5468 57.3534 43.1428C57.3424 43.0048 57.4016 42.8541 57.4786 42.7733C57.5315 42.6176 57.6281 42.4667 57.7906 42.3803C57.9728 42.2276 58.1263 42.0293 58.3814 41.99C58.4632 41.8846 58.529 41.7162 58.6548 41.6983C58.6906 41.6848 58.7237 41.663 58.746 41.5981C58.7716 41.495 58.8331 41.5415 58.8736 41.4867C58.8985 41.3928 58.9439 41.3709 58.9906 41.3282C58.5709 40.3714 57.6953 40.4344 56.7843 40.5924C53.5381 41.6137 53.4519 46.6302 56.2913 48.2333C60.6484 50.9792 65.7652 45.5156 62.1634 41.5903Z" fill="url(#paint0_linear_1_237)"></path><defs><lineargradient id="paint0_linear_1_237" x1="7" y1="80" x2="77.6551" y2="75.6139" gradientUnits="userSpaceOnUse"><stop stop-color="#E4AF78"></stop><stop offset="0.2" stop-color="#DC9A72"></stop><stop offset="0.6" stop-color="#BE6D2B"></stop><stop offset="1" stop-color="#EABE81"></stop></lineargradient></defs></svg>