<svg xmlns="http://www.w3.org/2000/svg" width="80" height="80" viewBox="0 0 80 80" fill="none"><path d="M62.2117 4.8116C62.0645 3.49127 61.4368 2.27121 60.448 1.38389C59.4593 0.496559 58.1787 0.00398141 56.8502 0H6.68458C5.24667 0.00143576 3.86806 0.57328 2.8513 1.59004C1.83455 2.60679 1.2627 3.9854 1.26127 5.42331C2.12357 7.87248 -0.907122 63.8935 3.28864 63.8593C6.59181 65.9567 17.3772 80.3243 21.5983 79.9944L56.8502 79.9938C58.2881 79.9924 59.6667 79.4205 60.6835 78.4038C61.7002 77.387 62.2721 76.0084 62.2735 74.5705V37.1913C85.4314 39.0958 84.854 2.81063 62.2117 4.8116ZM16.1754 72.8241L8.36988 65.0797C17.0837 64.9453 16.3455 64.0598 16.1754 72.8241ZM21.599 77.2837C20.88 77.2823 20.1909 76.9959 19.6826 76.4873C19.1743 75.9788 18.8882 75.2895 18.887 74.5705C18.5237 71.0833 20.653 62.2637 14.8196 62.3683C12.4674 61.8053 3.76976 64.1392 3.97326 59.6567C5.34058 58.0492 0.78072 0.440007 6.68268 2.71109C8.40263 4.03709 61.366 -0.327947 59.5472 5.27858C49.9139 7.45963 44.46 19.2027 48.9562 28.0116L44.4555 32.5111C42.1398 30.2243 38.3275 25.1043 34.8683 28.6767C32.5703 30.4682 30.3002 33.8056 32.9512 36.3465L48.2902 51.6856C51.5401 55.0101 56.8344 50.5296 57.1509 46.8927C57.4343 44.4766 53.4369 41.7785 52.1243 40.1813L56.6251 35.6805C57.5676 36.1258 58.5511 36.4785 59.5618 36.7336V74.5705C61.3454 80.1761 23.4231 76.1217 21.599 77.2837ZM45.4953 45.0776C44.9276 44.545 44.3363 43.9896 43.7314 43.4176C43.7427 40.934 43.6481 38.4346 43.8922 35.9509C44.3474 36.4617 45.1483 37.2035 46.1102 38.0738C45.6627 40.3807 45.4567 42.728 45.4953 45.0776ZM42.9289 34.9251C42.3835 37.1827 42.0889 39.4936 42.0506 41.8158C41.4593 41.2471 40.8726 40.6759 40.3001 40.1092C40.823 37.7703 41.1062 35.3841 41.1453 32.9877C41.6958 33.6728 42.2916 34.32 42.9289 34.9251ZM40.1979 31.9062C39.9441 34.3715 39.6303 36.8264 39.4868 39.2967C38.6701 38.4728 37.902 37.672 37.2274 36.9256C37.6707 34.796 38.1255 32.6857 38.3981 30.5242C39.0948 30.8428 39.7102 31.3153 40.1979 31.9062ZM36.9341 30.5761C36.6143 32.3018 36.4189 34.0377 36.2354 35.7818C34.8268 34.082 34.1388 32.825 34.8676 32.5125C35.3635 31.6878 36.079 31.0174 36.9341 30.5761ZM46.9578 46.4507C47.3474 44.042 47.0952 41.5565 47.2683 39.118C47.8541 39.6459 48.466 40.1999 49.0761 40.7655C48.6294 43.0665 48.3769 45.4009 48.3213 47.7441C47.914 47.3531 47.4555 46.919 46.9578 46.4507ZM51.3246 49.0871C53.1227 50.6871 53.218 46.4354 53.4774 45.4461C54.2019 46.4882 54.4992 47.3495 54.0428 47.8507C53.1285 48.5595 51.5701 51.1649 50.2075 49.7682C50.1291 49.6016 50.0208 49.4507 49.888 49.3231C50.1772 46.8645 50.1677 44.3805 50.287 41.9102C51.0376 42.6355 51.7457 43.3569 52.3533 44.0422C51.677 45.563 50.6061 47.4277 51.3246 49.0871ZM73.2168 30.5948C68.2498 36.3631 61.2169 33.8876 55.4083 33.0609L50.2074 38.2637C49.8357 37.8924 46.8217 34.8777 46.3725 34.4285L51.5739 29.2284C41.0346 -2.42723 91.1133 3.62013 73.2168 30.5948Z" fill="url(#paint0_linear_1_249)"></path><path d="M36.5201 48.7549C29.0445 48.7549 21.5988 55.969 21.5988 63.4446C22.3442 81.4314 47.9726 80.3494 48.7153 62.3679C48.7153 54.8923 43.9956 48.7549 36.5201 48.7549ZM35.157 73.2146C32.2813 73.2113 29.5244 72.0674 27.4909 70.034C25.4575 68.0006 24.3137 65.2436 24.3104 62.3679C24.8558 47.9983 45.4605 48.0022 46.0037 62.368C46.0003 65.2437 44.8565 68.0006 42.8231 70.0341C40.7897 72.0675 38.0327 73.2113 35.157 73.2146Z" fill="url(#paint1_linear_1_249)"></path><path d="M9.39649 12.2024H32.4456C32.8006 12.1954 33.1387 12.0495 33.3873 11.796C33.6359 11.5425 33.7752 11.2016 33.7752 10.8465C33.7751 10.4914 33.6359 10.1505 33.3872 9.89701C33.1386 9.64351 32.8005 9.49763 32.4455 9.49072H9.39649C9.04159 9.49782 8.70363 9.64379 8.45516 9.89728C8.20668 10.1508 8.0675 10.4916 8.0675 10.8466C8.0675 11.2015 8.20668 11.5423 8.45516 11.7958C8.70363 12.0493 9.04159 12.1953 9.39649 12.2024Z" fill="url(#paint2_linear_1_249)"></path><path d="M9.39644 18.9813C9.23917 18.0727 51.0269 21.4814 41.9362 16.2697C42.0935 17.1782 0.306146 13.7696 9.39644 18.9813Z" fill="url(#paint3_linear_1_249)"></path><path d="M41.9358 25.7616C51.7166 20.6857 8.57627 23.8858 9.39679 23.0479C-0.384031 28.1237 42.7563 24.9236 41.9358 25.7616Z" fill="url(#paint4_linear_1_249)"></path><path d="M41.2827 54.8588C38.5743 52.9097 34.3838 52.783 32.1822 55.5188C31.9733 55.6968 32.1966 56.1075 32.4603 55.9967C38.1593 54.8112 42.7965 57.324 42.3125 63.6083C42.3816 63.8337 42.5141 64.0344 42.6941 64.1865C42.8742 64.3387 43.0942 64.4358 43.328 64.4664C43.5617 64.4969 43.7993 64.4596 44.0125 64.3588C44.2256 64.258 44.4052 64.0981 44.5299 63.898C45.7997 60.729 43.9213 56.7901 41.2827 54.8588Z" fill="url(#paint5_linear_1_249)"></path><path d="M36.52 68.7123C35.0555 68.5756 33.6103 68.2785 32.2106 67.8264C30.6235 67.2166 28.9165 65.0162 27.8088 67.2257C27.1677 69.8758 33.0325 71.3478 34.978 70.9234C35.6638 70.7895 36.3194 70.5318 36.9129 70.1631C37.0558 70.0738 37.1662 69.9409 37.2277 69.784C37.2893 69.6271 37.2987 69.4546 37.2547 69.2919C37.2106 69.1293 37.1154 68.9851 36.9831 68.8807C36.8508 68.7763 36.6885 68.7173 36.52 68.7123Z" fill="url(#paint6_linear_1_249)"></path><path d="M28.3182 64.512C28.9394 63.979 28.7385 62.6784 28.8531 61.9043C29.0389 60.5573 29.5811 59.2844 30.4236 58.2171C30.5833 57.9879 30.6613 57.7116 30.645 57.4327C30.6287 57.1539 30.5191 56.8886 30.3338 56.6795C30.1485 56.4704 29.8983 56.3298 29.6234 56.2801C29.3485 56.2304 29.0649 56.2746 28.8181 56.4056C27.9419 57.2573 27.2785 58.3033 26.8817 59.4591C26.4849 60.6148 26.3658 61.8477 26.5341 63.058C26.6216 63.9268 27.3219 65.2206 28.3182 64.512ZM30.2486 58.4534L30.2332 58.4746C30.1813 58.5405 30.1977 58.5191 30.2486 58.4534Z" fill="url(#paint7_linear_1_249)"></path><path d="M40.9268 65.5942C40.5744 65.7208 40.2657 65.9455 40.0369 66.2419L40.1806 66.056C39.7592 66.8199 38.2442 67.4788 38.825 68.4724C39.5768 69.4206 41.515 67.586 41.7848 66.8123C42.0548 66.1348 41.8053 65.2286 40.9268 65.5942Z" fill="url(#paint8_linear_1_249)"></path><defs><lineargradient id="paint0_linear_1_249" x1="1.00012" y1="80" x2="84.8658" y2="73.8106" gradientUnits="userSpaceOnUse"><stop stop-color="#E4AF78"></stop><stop offset="0.2" stop-color="#DC9A72"></stop><stop offset="0.6" stop-color="#BE6D2B"></stop><stop offset="1" stop-color="#EABE81"></stop></lineargradient><lineargradient id="paint1_linear_1_249" x1="21.5988" y1="76.4065" x2="50.5988" y2="74.2653" gradientUnits="userSpaceOnUse"><stop stop-color="#E4AF78"></stop><stop offset="0.2" stop-color="#DC9A72"></stop><stop offset="0.6" stop-color="#BE6D2B"></stop><stop offset="1" stop-color="#EABE81"></stop></lineargradient><lineargradient id="paint2_linear_1_249" x1="8.0675" y1="12.2024" x2="26.3805" y2="-0.869105" gradientUnits="userSpaceOnUse"><stop stop-color="#E4AF78"></stop><stop offset="0.2" stop-color="#DC9A72"></stop><stop offset="0.6" stop-color="#BE6D2B"></stop><stop offset="1" stop-color="#EABE81"></stop></lineargradient><lineargradient id="paint3_linear_1_249" x1="8.10242" y1="19.249" x2="30.8102" y2="0.753331" gradientUnits="userSpaceOnUse"><stop stop-color="#E4AF78"></stop><stop offset="0.2" stop-color="#DC9A72"></stop><stop offset="0.6" stop-color="#BE6D2B"></stop><stop offset="1" stop-color="#EABE81"></stop></lineargradient><lineargradient id="paint4_linear_1_249" x1="7.95282" y1="25.9989" x2="30.3631" y2="7.25105" gradientUnits="userSpaceOnUse"><stop stop-color="#E4AF78"></stop><stop offset="0.2" stop-color="#DC9A72"></stop><stop offset="0.6" stop-color="#BE6D2B"></stop><stop offset="1" stop-color="#EABE81"></stop></lineargradient><lineargradient id="paint5_linear_1_249" x1="32.0998" y1="64.4767" x2="45.798" y2="63.2787" gradientUnits="userSpaceOnUse"><stop stop-color="#E4AF78"></stop><stop offset="0.2" stop-color="#DC9A72"></stop><stop offset="0.6" stop-color="#BE6D2B"></stop><stop offset="1" stop-color="#EABE81"></stop></lineargradient><lineargradient id="paint6_linear_1_249" x1="27.7601" y1="70.9957" x2="37.7692" y2="69.4796" gradientUnits="userSpaceOnUse"><stop stop-color="#E4AF78"></stop><stop offset="0.2" stop-color="#DC9A72"></stop><stop offset="0.6" stop-color="#BE6D2B"></stop><stop offset="1" stop-color="#EABE81"></stop></lineargradient><lineargradient id="paint7_linear_1_249" x1="26.4599" y1="64.7163" x2="30.9561" y2="64.5487" gradientUnits="userSpaceOnUse"><stop stop-color="#E4AF78"></stop><stop offset="0.2" stop-color="#DC9A72"></stop><stop offset="0.6" stop-color="#BE6D2B"></stop><stop offset="1" stop-color="#EABE81"></stop></lineargradient><lineargradient id="paint8_linear_1_249" x1="38.6941" y1="68.7382" x2="42.1097" y2="68.4837" gradientUnits="userSpaceOnUse"><stop stop-color="#E4AF78"></stop><stop offset="0.2" stop-color="#DC9A72"></stop><stop offset="0.6" stop-color="#BE6D2B"></stop><stop offset="1" stop-color="#EABE81"></stop></lineargradient></defs></svg>