<svg class="brxe-svg" id="brxe-vrsvyz" xmlns="http://www.w3.org/2000/svg" width="80" height="80" viewBox="0 0 80 80" fill="none"><path d="M57.7729 6.53066C58.256 7.36948 59.7061 5.99094 60.5096 6.53066C60.8558 13.5139 60.8534 22.9221 58.0374 29.3218C55.2215 35.7215 48.5102 41.5815 42.0369 41.792C48.6743 39.2595 54.0054 33.4677 56.4479 26.7966C58.8904 20.1255 57.7262 13.6347 57.7729 6.53066Z" fill="url(#paint0_linear_1_171)"></path><path d="M49.405 66.0539C49.3503 64.6512 49.2839 62.6111 49.2292 61.2084C49.0933 57.7214 45.6252 54.8745 44.0545 51.7584C43.7018 51.0587 43.3496 50.339 43.2546 49.5612C43.1597 48.7834 43.3679 47.9242 43.9728 47.4262C44.8871 46.6734 45.3824 45.6204 45.4793 44.44C45.5762 43.2596 45.2892 42.0851 45.0044 40.9355C43.9655 41.3711 42.8652 41.4618 41.8264 41.8973C42.803 42.0775 43.1415 43.7812 42.7243 44.6824C42.3072 45.5837 41.4778 46.2212 40.926 47.0469C39.6037 49.0258 40.1022 51.7456 41.2796 53.8139C42.457 55.8823 44.2149 57.5579 45.5392 59.5354C46.8634 61.513 47.7452 64.0483 46.8815 66.2659C47.6805 66.1234 48.606 66.1965 49.405 66.0539Z" fill="url(#paint1_linear_1_171)"></path><path d="M53.7205 65.6855C54.2169 65.7577 54.6156 65.8875 55.0888 66.054C55.9201 66.3464 56.7856 67.2282 56.9414 68.0956C57.5266 71.3532 57.8845 74.6241 58.4578 77.8825C58.6194 78.8006 58.1168 79.0264 57.2992 79.4743C55.8888 80.2471 55.3032 79.2909 55.4572 78.7375C55.5434 74.0452 54.9799 70.2065 53.7205 65.6855Z" fill="url(#paint2_linear_1_171)"></path><path d="M56.1765 79.9998C61.7941 79.9998 66.3481 79.4994 66.3481 78.882C66.3481 78.2646 61.7941 77.7642 56.1765 77.7642C50.5588 77.7642 46.0048 78.2646 46.0048 78.882C46.0048 79.4994 50.5588 79.9998 56.1765 79.9998Z" fill="url(#paint3_linear_1_171)"></path><path d="M7.53867 6.62793C6.95498 7.33812 6.67657 8.24749 6.47484 9.14436C5.38074 14.0086 6.2248 19.2812 8.7827 23.5608C11.3406 27.8405 15.5847 31.0809 20.387 32.4209C16.0018 33.2706 11.3947 31.1982 8.40014 27.8839C5.40559 24.5695 3.83935 20.1828 3.07024 15.7828C2.74373 13.9148 2.54891 11.9907 2.90434 10.128C3.25978 8.26529 4.22663 6.45412 5.81629 5.42021C7.40595 4.38631 9.65836 4.29229 11.1413 5.47423C11.2451 5.55696 9.57033 5.60022 9.4766 5.61158C8.70058 5.70567 8.04687 6.00959 7.53867 6.62793Z" fill="url(#paint4_linear_1_171)"></path><path d="M68.5802 7.96865C69.2557 9.38109 69.3183 11.0082 69.2051 12.5697C68.6106 20.7707 63.1377 28.4309 55.5721 31.6513C59.0106 32.2599 62.5672 30.6682 65.0422 28.2048C67.5172 25.7414 69.064 22.5038 70.3016 19.2385C71.0224 17.3367 71.6604 15.3751 71.7902 13.3454C71.9199 11.3158 71.499 9.19141 70.2743 7.56765C69.2927 6.26611 66.8958 4.62126 65.1933 5.35448C66.6608 5.82881 67.8685 6.48063 68.5802 7.96865Z" fill="url(#paint5_linear_1_171)"></path><path d="M40.9937 24.6137L37.4939 23.6572L34.7219 25.9981C34.5714 26.1252 34.3405 26.0245 34.3312 25.8277L34.1593 22.2036L31.0764 20.2907C30.9091 20.1868 30.9334 19.9361 31.1177 19.8664L34.5113 18.5831L35.378 15.06C35.425 14.8687 35.671 14.8144 35.7942 14.9681L38.0634 17.799L41.6819 17.5345C41.8784 17.5202 42.0061 17.7374 41.8979 17.902L39.9068 20.935L41.2765 24.2947C41.3508 24.4771 41.1838 24.6656 40.9937 24.6137Z" fill="url(#paint6_linear_1_171)"></path><path d="M37.23 42.1948C37.2263 42.1948 37.2232 42.1948 37.2195 42.1948C33.6738 42.1948 30.3138 41.3943 27.5027 39.8783C22.459 37.1597 18.5963 31.7756 16.9052 25.1061C15.4009 19.173 15.6526 12.881 16.1478 6.96391C16.183 6.54329 16.492 6.19668 16.9058 6.11404C24.1451 4.65976 30.7869 4.57588 37.2096 4.49447L39.9844 4.455C43.8582 4.38345 47.7498 4.79174 51.5163 5.18152C53.4313 5.38011 55.411 5.58364 57.3525 5.72302C57.7713 5.75263 58.1204 6.05483 58.2104 6.46558C59.1528 10.7828 59.3267 15.3233 58.7266 19.9612C58.1407 24.498 56.8708 28.4809 54.9528 31.7978C52.7183 35.6635 49.4896 38.7164 45.8613 40.3964C43.3185 41.5732 40.3341 42.1948 37.23 42.1948ZM17.9777 7.83476C17.4744 14.1675 17.435 19.4851 18.7418 24.6398C20.3028 30.7962 23.8238 35.7425 28.4019 38.2107C30.9374 39.5774 33.9872 40.3002 37.2201 40.3002H37.2294C40.0615 40.3002 42.7708 39.739 45.0657 38.6769C48.3431 37.1597 51.2714 34.3807 53.3122 30.8504C55.1045 27.7507 56.2942 24.0058 56.848 19.7194C57.3877 15.5441 57.2711 11.4563 56.502 7.55846C54.7653 7.42154 53.018 7.24145 51.3214 7.06629C47.6098 6.68145 43.7669 6.28056 40.0164 6.34964L37.2337 6.38911C30.8251 6.47052 24.7607 6.54699 17.9777 7.83476Z" fill="url(#paint7_linear_1_171)"></path><path d="M27.4646 67.4185C27.4374 67.4185 27.4103 67.4173 27.3832 67.4148C26.862 67.3704 26.4753 66.9128 26.5197 66.391C26.7115 64.1349 27.0705 61.2794 27.4054 60.3432C27.5546 59.9448 30.8419 54.4422 31.276 53.7292C32.4294 51.8839 33.0183 50.3421 33.1361 48.868C33.2465 47.2139 32.4688 45.3995 31.2871 44.5656C30.943 44.3226 30.7999 43.8811 30.9368 43.4826C31.2175 42.6673 31.4987 41.8507 31.804 41.0342C31.9871 40.5432 32.533 40.2965 33.0233 40.4791C33.5136 40.6616 33.7621 41.2081 33.579 41.6978C33.3563 42.2911 33.1479 42.8844 32.9431 43.4777C34.3443 44.7889 35.1652 46.9179 35.0259 49.0062C34.8821 50.8083 34.2031 52.6203 32.8882 54.7234C31.8866 56.3677 29.3376 60.696 29.1575 61.0574C28.9904 61.5372 28.6438 63.7723 28.4069 66.5514C28.365 67.046 27.9512 67.4185 27.4646 67.4185Z" fill="url(#paint8_linear_1_171)"></path><path d="M46.6576 67.4432C46.1612 67.4432 45.7449 67.0572 45.7128 66.5551C45.5506 63.9858 45.294 62.1306 45.1355 61.6902C44.9887 61.3917 42.5396 57.0067 41.5664 55.2971C40.7054 53.8243 39.6958 51.8334 39.5749 49.5749C39.4652 47.5138 40.3459 45.3527 41.7681 44.0625C41.58 43.4876 41.3826 42.9116 41.1853 42.3368L42.9578 41.6646L42.0617 41.9729L42.9769 41.7213C43.2507 42.5194 43.5246 43.3162 43.7737 44.1143C43.8983 44.5139 43.7466 44.9469 43.4006 45.1812C42.1912 46.0003 41.3777 47.8061 41.4671 49.4738C41.5658 51.3252 42.449 53.0521 43.2076 54.3498C43.4425 54.763 46.7779 60.6739 46.9136 61.0365C47.2263 61.9049 47.4742 64.3928 47.6037 66.4367C47.6364 66.9585 47.2405 67.4087 46.7181 67.4408C46.6977 67.4432 46.6774 67.4432 46.6576 67.4432Z" fill="url(#paint9_linear_1_171)"></path><path d="M36.2125 79.6153C29.799 79.6153 23.5476 79.5882 18.2066 79.4722C17.9149 79.4661 17.6423 79.3254 17.4678 79.0911C17.2938 78.8567 17.2365 78.5557 17.3142 78.2745C17.7058 76.8486 18.0216 75.4375 18.3275 74.072C18.9387 71.3435 19.516 68.7655 20.6415 66.1024C20.7902 65.7521 21.1337 65.5239 21.5142 65.5239L53.609 65.5511C54.074 65.5511 54.4694 65.889 54.5434 66.3479C54.8666 68.3474 55.1231 70.0286 55.3797 71.7099C55.6338 73.3702 55.8873 75.0304 56.2049 77.0003C56.2481 77.1187 56.2795 77.2322 56.3048 77.3235C56.3288 77.4098 56.3523 77.4949 56.3708 77.5615C56.3813 77.585 56.3905 77.6097 56.3992 77.6343L56.6354 78.3473C56.7353 78.6372 56.689 78.9566 56.5102 79.207C56.3326 79.455 56.0458 79.603 55.7399 79.603C55.7386 79.603 55.738 79.603 55.7368 79.603C52.2565 79.5943 48.3654 79.6005 44.3214 79.6054C41.6275 79.6104 38.9052 79.6153 36.2125 79.6153ZM19.4494 77.6023C26.7923 77.7404 35.6963 77.7268 44.3184 77.7108C47.8696 77.7059 51.303 77.7009 54.4441 77.7046C54.4324 77.6627 54.4219 77.6232 54.412 77.5899C54.3843 77.5258 54.3627 77.4592 54.3491 77.3889C54.3466 77.3765 54.3448 77.3654 54.3429 77.3543C54.0204 75.3561 53.7638 73.6748 53.5072 71.9948C53.2858 70.5467 53.0644 69.0986 52.8011 67.4445L22.1507 67.4186C21.241 69.7314 20.7223 72.0466 20.1759 74.4865C19.9489 75.5016 19.7158 76.5415 19.4494 77.6023Z" fill="url(#paint10_linear_1_171)"></path><path d="M37.3577 50.5602C36.3456 50.5602 35.3329 50.2963 34.4682 49.7659C34.0217 49.492 33.8817 48.9086 34.1549 48.4633C34.4288 48.0156 35.0141 47.8762 35.4575 48.15C36.6016 48.8519 38.1342 48.8469 39.2745 48.1414C39.7174 47.8663 40.3033 48.0032 40.5783 48.4485C40.854 48.8938 40.7165 49.4772 40.2712 49.7523C39.401 50.2913 38.379 50.5602 37.3577 50.5602Z" fill="url(#paint11_linear_1_171)"></path><path d="M19.9223 34.1704C15.4824 34.1704 10.1327 31.6898 7.17605 28.1842C4.42907 24.929 2.70156 20.5304 2.18041 15.4669C2.01513 13.8548 1.96394 12.1933 2.02499 10.3862C2.1027 8.08698 3.24862 6.04432 5.16978 4.78493C7.08168 3.53294 9.39756 3.29488 11.5204 4.13488L16.7646 6.20714C17.2512 6.39957 17.4899 6.94971 17.2981 7.4357C17.105 7.92293 16.553 8.16223 16.0689 7.96857L10.8247 5.89631C9.27976 5.28696 7.59852 5.45842 6.20899 6.36997C4.8096 7.28645 3.97514 8.77404 3.9184 10.4503C3.86043 12.1698 3.90853 13.7475 4.06519 15.2733C4.40131 18.5383 5.4652 23.2182 8.62416 26.9631C11.3557 30.201 16.5993 32.5125 20.5625 32.2547C21.083 32.2276 21.5369 32.6125 21.5721 33.1355C21.6079 33.6572 21.2138 34.1087 20.692 34.1444C20.4391 34.1617 20.182 34.1704 19.9223 34.1704Z" fill="url(#paint12_linear_1_171)"></path><path d="M55.5664 33.5212C55.0816 33.5212 54.6 33.4941 54.122 33.4386C53.6027 33.3769 53.2308 32.9069 53.2912 32.3876C53.3523 31.8683 53.821 31.5131 54.3428 31.5563C58.1931 32.0102 62.4511 30.2907 65.4374 27.0775C68.7728 23.488 70.0593 18.8649 70.5514 15.6196C70.7815 14.1048 70.9055 12.5322 70.9295 10.809C70.9536 9.13265 70.1913 7.60806 68.8387 6.62497C67.4949 5.64805 65.8241 5.39765 64.2502 5.93052L58.9122 7.74868C58.4176 7.9189 57.8792 7.65247 57.7102 7.15784C57.5418 6.66197 57.8064 6.12417 58.3017 5.95518L63.6396 4.13702C65.805 3.39939 68.1042 3.74847 69.9526 5.09174C71.8102 6.44241 72.8575 8.53564 72.8242 10.8361C72.7982 12.6456 72.6681 14.3034 72.4251 15.9033C71.6616 20.9359 69.7256 25.2457 66.8251 28.3677C63.7993 31.6241 59.5962 33.5212 55.5664 33.5212Z" fill="url(#paint13_linear_1_171)"></path><path d="M36.7293 31.7266C36.3235 31.7266 35.9171 31.7032 35.5113 31.6563C30.7586 31.1049 26.608 27.3045 25.6421 22.6185C24.6399 17.7635 26.8756 13.0109 31.3371 10.5118C35.7987 8.01277 41.0188 8.58881 44.636 11.9797C48.1274 15.2509 49.1999 20.7757 47.1869 25.1163C45.3459 29.0869 41.0805 31.7266 36.7293 31.7266ZM37.0864 10.872C35.465 10.872 33.8109 11.2976 32.2629 12.1647C28.5365 14.2518 26.6659 18.2051 27.4973 22.2361C28.3034 26.1438 31.7652 29.3151 35.7296 29.774C39.7008 30.2427 43.7905 27.9398 45.4686 24.3195C47.1474 20.6992 46.2525 16.0909 43.3408 13.3612C41.585 11.7157 39.369 10.872 37.0864 10.872Z" fill="url(#paint14_linear_1_171)"></path><path d="M71.4465 4.21117C71.3269 4.21117 71.2054 4.18897 71.0882 4.14086C70.6041 3.94227 70.3722 3.38843 70.5708 2.9049L71.5206 0.58841C71.7198 0.104882 72.273 -0.129481 72.7565 0.0728117C73.2407 0.271404 73.4719 0.824007 73.2733 1.30877L72.3236 3.62279C72.1737 3.98914 71.8197 4.21117 71.4465 4.21117Z" fill="url(#paint15_linear_1_171)"></path><path d="M74.5204 7.07291C74.2077 7.07291 73.9012 6.91749 73.7205 6.63379C73.4398 6.1922 73.57 5.60752 74.0116 5.32629L77.4845 3.11587C77.923 2.83464 78.5095 2.96415 78.792 3.40698C79.0726 3.84857 78.9424 4.43324 78.5008 4.71448L75.028 6.92489C74.8707 7.0248 74.6943 7.07291 74.5204 7.07291Z" fill="url(#paint16_linear_1_171)"></path><path d="M77.9883 12.0881C77.9143 12.0881 77.839 12.0794 77.7638 12.0609L74.6134 11.2949C74.1052 11.1716 73.7932 10.6597 73.9165 10.1515C74.0405 9.64205 74.5536 9.32874 75.0612 9.45455L78.2115 10.2206C78.7197 10.3439 79.0318 10.8558 78.9078 11.3652C78.803 11.7982 78.4151 12.0881 77.9883 12.0881Z" fill="url(#paint17_linear_1_171)"></path><path d="M41.6818 17.5346L38.0633 17.7989L35.7941 14.968C35.6709 14.8143 35.4249 14.8687 35.3779 15.0599L34.5112 18.5831L31.1176 19.8664C30.9333 19.9361 30.9089 20.1868 31.0764 20.2907L34.1592 22.2037L34.331 25.8277C34.3404 26.0244 34.5713 26.1253 34.7218 25.9981L37.4938 23.6572L40.9936 24.6136C41.1837 24.6656 41.3507 24.477 41.2763 24.2948L39.9067 20.935L41.8978 17.902C42.0059 17.7374 41.8783 17.5201 41.6818 17.5346Z" fill="url(#paint18_linear_1_171)"></path><path d="M63.6395 4.13698L58.3016 5.95514C58.2009 5.98953 58.1171 6.04796 58.0371 6.10933C57.8761 5.89285 57.6339 5.74314 57.3524 5.72325C51.5498 5.30667 45.7685 4.3484 39.9843 4.45522C31.9164 4.55952 24.7727 4.53388 16.9057 6.11426C16.8367 6.12814 16.7759 6.15898 16.7135 6.18673L11.5203 4.13451C7.06489 2.37153 2.18836 5.54825 2.02485 10.3858C1.80766 16.814 3.07509 23.3244 7.17591 28.1839C10.1326 31.6894 15.4822 34.17 19.9222 34.17C20.1818 34.17 20.439 34.1613 20.6919 34.1441C20.8071 34.1362 20.9127 34.1009 21.0123 34.0562C23.9386 38.0957 27.477 40.393 31.6439 41.4855C31.4015 42.1516 31.1655 42.8177 30.9366 43.4828C30.7997 43.8812 30.9428 44.3228 31.2869 44.5658C32.4686 45.3997 33.2463 47.2141 33.1359 48.8682C33.0181 50.3423 32.4291 51.8841 31.2758 53.7294C30.8416 54.4424 27.5544 59.945 27.4051 60.3434C27.1118 61.1634 26.8 63.4558 26.5983 65.5284C25.4644 65.5274 21.3264 65.5239 21.514 65.524C21.1335 65.524 20.7899 65.7522 20.6413 66.1026C18.9306 70.1501 18.4713 74.0609 17.314 78.2746C17.2362 78.5559 17.2936 78.8568 17.4675 79.0912C17.6421 79.3256 17.9147 79.4662 18.2064 79.4723C27.1704 79.6669 38.6927 79.6099 48.3879 79.6009C54.3008 80.3749 66.3487 79.9514 66.3487 78.8823C66.3487 78.3505 62.9686 77.9061 58.4435 77.7928C57.8793 74.564 57.5214 71.3233 56.9416 68.0956C56.7858 67.2281 55.9203 66.3463 55.089 66.0538C54.7926 65.9496 54.5187 65.8671 54.2385 65.7966C53.7575 65.3639 53.5552 65.6342 49.3862 65.5476C49.3355 64.1882 49.278 62.457 49.2293 61.2084C49.0933 57.7213 45.6253 54.8744 44.0545 51.7583C43.7019 51.0586 43.3497 50.3389 43.2548 49.5611C43.1598 48.7834 43.368 47.9242 43.9729 47.4261C45.8992 45.8399 45.6454 43.5694 45.0873 41.2804C49.0618 40.1342 52.8731 37.155 55.5661 33.5212C55.6987 33.4906 61.8427 33.7298 66.825 28.3676C71.1465 23.7163 72.7317 17.2864 72.8241 10.8361C72.8937 6.02542 68.2036 2.58223 63.6395 4.13698ZM66.014 5.65911C67.108 6.11704 68.0069 6.76956 68.5803 7.96851C70.8595 12.734 67.6501 25.2332 57.3 30.8083C60.8026 24.3353 60.8708 14.5849 60.5363 7.19542C63.8641 6.14041 64.5578 5.62391 66.014 5.65911ZM16.0707 7.96851C15.4093 16.475 15.4922 24.924 19.8256 32.2337C9.82691 29.1036 4.27422 18.9273 6.47474 9.14402C6.89244 7.28713 7.59557 5.83928 9.47652 5.61131C9.84512 5.56487 10.4804 5.76026 10.8246 5.89594C10.8246 5.89594 16.2011 8.02003 16.0707 7.96851ZM18.7417 24.64C17.4348 19.4853 17.4743 14.1677 17.9776 7.83498C25.4625 6.41395 32.1628 6.45146 40.0163 6.34986C45.421 6.25032 50.9013 7.11716 56.5019 7.55868C58.7251 18.8259 55.697 33.7556 45.0656 38.6772C41.1972 40.4674 37.0937 40.3132 37.22 40.3004C27.4395 40.3004 21.0807 33.8648 18.7417 24.64ZM32.9429 43.4779C33.1257 42.9481 33.3145 42.4182 33.5107 41.8882C36.6561 42.4123 39.8067 42.2675 42.8918 41.4355C42.6084 41.5577 42.3256 41.6819 42.037 41.792C42.0786 41.7905 42.1204 41.7831 42.1621 41.7812C42.0504 41.8207 41.9369 41.8509 41.8265 41.8972C41.918 41.9141 41.9982 41.9564 42.0785 41.998L41.1851 42.3369C41.3824 42.9117 41.5798 43.4878 41.7679 44.0626C40.7042 45.0275 39.944 46.4797 39.674 48.0128C39.5361 48.027 39.3997 48.064 39.2744 48.1417C38.134 48.8473 36.6014 48.8522 35.4573 48.1503C35.3186 48.0646 35.1666 48.0327 35.0138 48.0248C34.8852 46.2711 34.1243 44.5834 32.9429 43.4779ZM29.1573 61.0576C29.3374 60.6962 31.8864 56.3679 32.888 54.7236C33.968 52.9961 34.598 51.467 34.8758 49.9765C36.3852 50.7261 38.1363 50.7443 39.627 50.0882C39.8591 52.1336 40.7715 53.9377 41.5662 55.2972C42.5394 57.0068 44.9885 61.3919 45.1353 61.6904C45.2721 62.0703 45.4817 63.5076 45.6409 65.5444L28.5009 65.5299C28.728 63.2375 29.0112 61.477 29.1573 61.0576ZM54.4438 77.7048C42.5501 77.6907 29.6566 77.7944 19.4491 77.6024C20.3471 74.0271 20.8587 70.7027 22.1505 67.4187C25.5425 67.4216 49.8596 67.4421 52.8008 67.4446C53.5082 71.8874 54.2157 76.8883 54.4438 77.7048Z" fill="url(#paint19_linear_1_171)"></path><path d="M47.1867 25.1161C49.1998 20.7755 48.1273 15.2507 44.6359 11.9795C36.6986 4.53886 23.4408 11.955 25.642 22.6183C26.6775 27.6424 31.4058 31.7264 36.7292 31.7264C41.0803 31.7264 45.3457 29.0867 47.1867 25.1161ZM35.7294 29.7738C31.765 29.3149 28.3032 26.1436 27.4971 22.2359C25.6701 13.3771 36.7567 7.1909 43.3407 13.361C46.2523 16.0907 47.1472 20.699 45.4685 24.3193C43.7903 27.9396 39.7007 30.2425 35.7294 29.7738Z" fill="url(#paint20_linear_1_171)"></path><path d="M72.7562 0.0728117C72.2727 -0.129481 71.7195 0.104882 71.5203 0.58841L70.5705 2.9049C70.315 3.527 70.7744 4.21117 71.4463 4.21117C71.8194 4.21117 72.1734 3.98914 72.3233 3.62279L73.2731 1.30877C73.4717 0.824007 73.2404 0.271404 72.7562 0.0728117Z" fill="url(#paint21_linear_1_171)"></path><path d="M77.4842 3.11587L74.0113 5.32629C73.2102 5.83649 73.5804 7.07291 74.5201 7.07291C75.0073 7.07291 74.947 6.91622 78.5006 4.71448C78.9422 4.43324 79.0723 3.84857 78.7917 3.40698C78.5092 2.96415 77.9227 2.83464 77.4842 3.11587Z" fill="url(#paint22_linear_1_171)"></path><path d="M78.2115 10.2206L75.0612 9.45455C74.5536 9.32874 74.0405 9.64205 73.9165 10.1515C73.7932 10.6597 74.1052 11.1716 74.6134 11.2949C77.946 12.0957 77.7874 12.0881 77.9883 12.0881C78.4151 12.0881 78.803 11.7982 78.9078 11.3652C79.0318 10.8558 78.7197 10.3439 78.2115 10.2206Z" fill="url(#paint23_linear_1_171)"></path><defs><lineargradient id="paint0_linear_1_171" x1="42.0369" y1="41.792" x2="62.0368" y2="40.9994" gradientUnits="userSpaceOnUse"><stop stop-color="#E4AF78"></stop><stop offset="0.2" stop-color="#DC9A72"></stop><stop offset="0.6" stop-color="#BE6D2B"></stop><stop offset="1" stop-color="#EABE81"></stop></lineargradient><lineargradient id="paint1_linear_1_171" x1="40.1389" y1="66.2659" x2="50.0951" y2="65.9917" gradientUnits="userSpaceOnUse"><stop stop-color="#E4AF78"></stop><stop offset="0.2" stop-color="#DC9A72"></stop><stop offset="0.6" stop-color="#BE6D2B"></stop><stop offset="1" stop-color="#EABE81"></stop></lineargradient><lineargradient id="paint2_linear_1_171" x1="53.7205" y1="79.7641" x2="58.8436" y2="79.6335" gradientUnits="userSpaceOnUse"><stop stop-color="#E4AF78"></stop><stop offset="0.2" stop-color="#DC9A72"></stop><stop offset="0.6" stop-color="#BE6D2B"></stop><stop offset="1" stop-color="#EABE81"></stop></lineargradient><lineargradient id="paint3_linear_1_171" x1="46.0048" y1="79.9998" x2="60.8922" y2="69.8005" gradientUnits="userSpaceOnUse"><stop stop-color="#E4AF78"></stop><stop offset="0.2" stop-color="#DC9A72"></stop><stop offset="0.6" stop-color="#BE6D2B"></stop><stop offset="1" stop-color="#EABE81"></stop></lineargradient><lineargradient id="paint4_linear_1_171" x1="2.71454" y1="32.6117" x2="21.6747" y2="31.7106" gradientUnits="userSpaceOnUse"><stop stop-color="#E4AF78"></stop><stop offset="0.2" stop-color="#DC9A72"></stop><stop offset="0.6" stop-color="#BE6D2B"></stop><stop offset="1" stop-color="#EABE81"></stop></lineargradient><lineargradient id="paint5_linear_1_171" x1="55.5721" y1="31.7813" x2="72.9987" y2="30.9805" gradientUnits="userSpaceOnUse"><stop stop-color="#E4AF78"></stop><stop offset="0.2" stop-color="#DC9A72"></stop><stop offset="0.6" stop-color="#BE6D2B"></stop><stop offset="1" stop-color="#EABE81"></stop></lineargradient><lineargradient id="paint6_linear_1_171" x1="30.9641" y1="26.0545" x2="42.6995" y2="25.187" gradientUnits="userSpaceOnUse"><stop stop-color="#E4AF78"></stop><stop offset="0.2" stop-color="#DC9A72"></stop><stop offset="0.6" stop-color="#BE6D2B"></stop><stop offset="1" stop-color="#EABE81"></stop></lineargradient><lineargradient id="paint7_linear_1_171" x1="15.7643" y1="42.1948" x2="61.9918" y2="38.2014" gradientUnits="userSpaceOnUse"><stop stop-color="#E4AF78"></stop><stop offset="0.2" stop-color="#DC9A72"></stop><stop offset="0.6" stop-color="#BE6D2B"></stop><stop offset="1" stop-color="#EABE81"></stop></lineargradient><lineargradient id="paint8_linear_1_171" x1="26.5162" y1="67.4185" x2="35.6778" y2="67.2007" gradientUnits="userSpaceOnUse"><stop stop-color="#E4AF78"></stop><stop offset="0.2" stop-color="#DC9A72"></stop><stop offset="0.6" stop-color="#BE6D2B"></stop><stop offset="1" stop-color="#EABE81"></stop></lineargradient><lineargradient id="paint9_linear_1_171" x1="39.5657" y1="67.4432" x2="48.2062" y2="67.2404" gradientUnits="userSpaceOnUse"><stop stop-color="#E4AF78"></stop><stop offset="0.2" stop-color="#DC9A72"></stop><stop offset="0.6" stop-color="#BE6D2B"></stop><stop offset="1" stop-color="#EABE81"></stop></lineargradient><lineargradient id="paint10_linear_1_171" x1="17.2802" y1="79.6153" x2="57.8553" y2="71.0722" gradientUnits="userSpaceOnUse"><stop stop-color="#E4AF78"></stop><stop offset="0.2" stop-color="#DC9A72"></stop><stop offset="0.6" stop-color="#BE6D2B"></stop><stop offset="1" stop-color="#EABE81"></stop></lineargradient><lineargradient id="paint11_linear_1_171" x1="34.0153" y1="50.5602" x2="40.9556" y2="49.192" gradientUnits="userSpaceOnUse"><stop stop-color="#E4AF78"></stop><stop offset="0.2" stop-color="#DC9A72"></stop><stop offset="0.6" stop-color="#BE6D2B"></stop><stop offset="1" stop-color="#EABE81"></stop></lineargradient><lineargradient id="paint12_linear_1_171" x1="2.00012" y1="34.1704" x2="22.9992" y2="33.1567" gradientUnits="userSpaceOnUse"><stop stop-color="#E4AF78"></stop><stop offset="0.2" stop-color="#DC9A72"></stop><stop offset="0.6" stop-color="#BE6D2B"></stop><stop offset="1" stop-color="#EABE81"></stop></lineargradient><lineargradient id="paint13_linear_1_171" x1="53.2848" y1="33.5212" x2="74.2449" y2="32.4852" gradientUnits="userSpaceOnUse"><stop stop-color="#E4AF78"></stop><stop offset="0.2" stop-color="#DC9A72"></stop><stop offset="0.6" stop-color="#BE6D2B"></stop><stop offset="1" stop-color="#EABE81"></stop></lineargradient><lineargradient id="paint14_linear_1_171" x1="25.4056" y1="31.7266" x2="49.7737" y2="29.8891" gradientUnits="userSpaceOnUse"><stop stop-color="#E4AF78"></stop><stop offset="0.2" stop-color="#DC9A72"></stop><stop offset="0.6" stop-color="#BE6D2B"></stop><stop offset="1" stop-color="#EABE81"></stop></lineargradient><lineargradient id="paint15_linear_1_171" x1="70.4997" y1="4.21117" x2="73.5508" y2="4.05599" gradientUnits="userSpaceOnUse"><stop stop-color="#E4AF78"></stop><stop offset="0.2" stop-color="#DC9A72"></stop><stop offset="0.6" stop-color="#BE6D2B"></stop><stop offset="1" stop-color="#EABE81"></stop></lineargradient><lineargradient id="paint16_linear_1_171" x1="73.5724" y1="7.07291" x2="79.2887" y2="6.51025" gradientUnits="userSpaceOnUse"><stop stop-color="#E4AF78"></stop><stop offset="0.2" stop-color="#DC9A72"></stop><stop offset="0.6" stop-color="#BE6D2B"></stop><stop offset="1" stop-color="#EABE81"></stop></lineargradient><lineargradient id="paint17_linear_1_171" x1="73.8896" y1="12.0881" x2="79.2065" y2="11.3291" gradientUnits="userSpaceOnUse"><stop stop-color="#E4AF78"></stop><stop offset="0.2" stop-color="#DC9A72"></stop><stop offset="0.6" stop-color="#BE6D2B"></stop><stop offset="1" stop-color="#EABE81"></stop></lineargradient><lineargradient id="paint18_linear_1_171" x1="30.9639" y1="26.0546" x2="42.6994" y2="25.187" gradientUnits="userSpaceOnUse"><stop stop-color="#E4AF78"></stop><stop offset="0.2" stop-color="#DC9A72"></stop><stop offset="0.6" stop-color="#BE6D2B"></stop><stop offset="1" stop-color="#EABE81"></stop></lineargradient><lineargradient id="paint19_linear_1_171" x1="2.00153" y1="79.9972" x2="77.7875" y2="74.7046" gradientUnits="userSpaceOnUse"><stop stop-color="#E4AF78"></stop><stop offset="0.2" stop-color="#DC9A72"></stop><stop offset="0.6" stop-color="#BE6D2B"></stop><stop offset="1" stop-color="#EABE81"></stop></lineargradient><lineargradient id="paint20_linear_1_171" x1="25.3988" y1="31.7264" x2="49.7739" y2="29.888" gradientUnits="userSpaceOnUse"><stop stop-color="#E4AF78"></stop><stop offset="0.2" stop-color="#DC9A72"></stop><stop offset="0.6" stop-color="#BE6D2B"></stop><stop offset="1" stop-color="#EABE81"></stop></lineargradient><lineargradient id="paint21_linear_1_171" x1="70.4988" y1="4.21117" x2="73.5506" y2="4.05592" gradientUnits="userSpaceOnUse"><stop stop-color="#E4AF78"></stop><stop offset="0.2" stop-color="#DC9A72"></stop><stop offset="0.6" stop-color="#BE6D2B"></stop><stop offset="1" stop-color="#EABE81"></stop></lineargradient><lineargradient id="paint22_linear_1_171" x1="73.5724" y1="7.07291" x2="79.2885" y2="6.5103" gradientUnits="userSpaceOnUse"><stop stop-color="#E4AF78"></stop><stop offset="0.2" stop-color="#DC9A72"></stop><stop offset="0.6" stop-color="#BE6D2B"></stop><stop offset="1" stop-color="#EABE81"></stop></lineargradient><lineargradient id="paint23_linear_1_171" x1="73.8896" y1="12.0881" x2="79.2065" y2="11.3291" gradientUnits="userSpaceOnUse"><stop stop-color="#E4AF78"></stop><stop offset="0.2" stop-color="#DC9A72"></stop><stop offset="0.6" stop-color="#BE6D2B"></stop><stop offset="1" stop-color="#EABE81"></stop></lineargradient></defs></svg>