<svg xmlns="http://www.w3.org/2000/svg" width="80" height="80" viewBox="0 0 80 80" fill="none"><path fill-rule="evenodd" clip-rule="evenodd" d="M62.0561 37.8445C62.0459 37.8343 62.0459 37.826 62.0459 37.8189C62.0357 37.8138 62.0357 37.8138 62.0357 37.8118C62.0459 37.8098 62.0765 37.8005 62.1072 37.7894C62.0868 37.814 62.0663 37.8313 62.0561 37.8445ZM66.7408 4.55696C66.5572 4.78149 66.404 5.0449 66.2304 5.28769C65.3474 6.52152 63.6298 8.79605 62.4338 9.67428V9.67519C61.6116 9.90119 60.9858 10.3758 60.4639 11.0306L59.0656 12.8157C58.9227 12.9922 58.8002 13.1832 58.6575 13.3535C58.3716 13.6923 58.0961 14.0342 57.8307 14.3884C57.3203 15.0702 56.7592 15.7122 56.2794 16.4163L55.5242 17.498C55.4017 17.6572 55.269 17.7992 55.167 17.9716C54.9934 18.2615 54.8607 18.5676 54.6261 18.8228C54.6159 18.835 54.6057 18.8513 54.6057 18.8657C54.5766 19.0166 54.2285 19.3314 54.1055 19.6475C54.0416 19.8118 53.3067 20.7773 53.2176 20.8887C52.8373 21.3633 52.4591 22.0898 52.1663 22.4268C52.1254 22.4717 52.0847 22.5186 52.054 22.5655C52.0117 22.2946 51.998 21.9363 51.9111 21.6236C51.7243 20.9513 51.6984 20.7709 51.3804 20.0539C51.3092 19.8932 51.0232 19.3458 50.9109 19.2518C50.8282 19.1824 50.9168 19.155 50.7375 18.9874L50.3598 18.5322C50.0146 18.1731 49.6238 17.8131 49.1758 17.5891C49.3436 17.4393 50.0676 16.6618 50.2576 16.6543C50.4765 16.6455 50.9237 15.9393 51.3802 15.6174L53.1051 14.2131C53.2174 14.1182 53.3092 14.0048 53.4317 13.9212C53.6073 13.7964 53.9824 13.4413 54.0951 13.4037C54.3915 13.3049 54.5346 13.0881 54.7789 12.8771L59.2799 9.11916C61.9758 6.91016 64.6474 4.97353 67.496 2.96479C67.496 3.10097 67.5371 3.22984 67.4755 3.34248C67.2512 3.72016 67.0571 4.16923 66.7408 4.55696ZM62.4542 9.66935C62.4645 9.66424 62.4849 9.65804 62.4849 9.65603L62.444 9.67227C62.444 9.67027 62.444 9.66935 62.4542 9.66935ZM49.6658 22.5741C49.6035 21.8509 49.6108 21.791 49.3903 21.0504C49.1873 20.44 48.8624 19.9619 48.4208 19.4838C48.3553 19.4128 48.2372 19.4334 48.2372 19.2572C48.2372 19.139 47.4246 18.5495 47.3084 18.4429C47.226 18.356 46.9867 18.3131 46.8695 18.2866C46.7498 18.2596 46.8836 18.2001 46.7266 18.111C46.0422 18.8107 44.8367 19.6304 43.9302 19.9064C42.9815 20.1952 41.9791 20.2797 41.001 20.1596L40.9296 20.2382C40.8615 20.2291 40.8798 20.4672 40.7358 20.5464C41.2668 21.0621 41.4625 21.4058 41.8075 22.0038C42.457 23.1296 42.6867 25.389 42.2975 26.5763C41.6496 28.5525 40.4335 28.939 38.8172 29.7117L38.8479 29.8046C38.9465 29.8749 38.8572 29.9167 38.9297 29.9709C39.0406 30.1056 39.0215 30.3073 39.0215 30.3077C39.1031 30.4709 39.0616 30.9851 39.001 31.1589C38.9908 31.1956 39.001 31.2365 39.001 31.2752L38.8683 32.252C38.8581 32.3225 38.8785 32.3949 38.8683 32.4663C38.7854 32.9895 38.7188 33.2606 38.6745 33.8124C38.6485 34.2773 38.115 35.4466 38.1029 35.5944L37.807 36.5437L40.1953 36.5243C41.2336 36.5174 42.5594 36.452 43.5532 36.4957C43.6246 36.4988 43.6961 36.4957 43.7675 36.4936L47.6254 36.4374C47.6357 36.3854 47.6459 36.3343 47.6663 36.2843C47.7771 36.017 47.6871 35.8248 47.7786 35.53C47.9869 34.8589 47.844 34.9278 47.8909 34.7399L47.9113 34.5194C47.9725 34.3949 47.9318 34.2449 47.9215 34.105C47.9215 34.0214 47.9624 33.952 47.9829 33.8723L48.0542 33.3456L48.4319 31.8453L48.983 29.3561C49.0035 29.1947 49.0137 29.0304 49.0442 28.8692L49.3301 27.1261L49.4934 25.142C49.5121 24.68 49.621 24.1102 49.6464 23.6365L49.6658 22.5741ZM33.1318 53.7795C35.6245 55.6557 39.0994 55.2753 41.1131 52.9212C41.4528 53.1808 41.7761 53.3642 42.1644 53.5407C41.4439 54.1327 41.012 54.6461 40.3681 55.2779C39.6869 55.9465 39.0646 56.7187 38.4187 57.3007C37.819 57.8412 36.4416 59.4452 35.8161 60.1471C35.3262 60.6973 34.8262 61.2393 34.3362 61.7822C33.6875 62.4972 33.649 62.5647 32.8972 63.1856C31.0902 64.6779 28.9686 66.2666 27.1001 67.6927C24.5996 69.5952 22.5472 71.0506 19.9863 72.8091C18.3603 73.9255 17.1183 74.7537 15.4241 75.772C15.1893 75.9118 14.9546 76.073 14.7198 76.2159L12.852 77.3121C12.8315 77.3223 12.8315 77.3192 12.8315 77.3192V77.3203C12.8213 77.3223 12.8111 77.3286 12.8111 77.3346C12.7713 77.3373 12.7083 77.4111 12.6477 77.2336C12.6327 77.1898 12.565 77.2324 12.6884 77.0193L14.1274 74.4708L16.1891 70.8905C16.8134 69.8149 17.8319 70.616 19.2101 69.9413C19.7732 69.6656 20.0828 69.2845 20.4655 68.842L22.4149 66.6436L23.2416 65.773C23.5477 65.4453 23.8948 65.1657 24.1806 64.8269C24.2113 64.784 24.2622 64.7431 24.3031 64.7146C24.497 64.5881 24.6501 64.4267 24.8033 64.2644L26.0076 63.2478C27.2512 62.2632 27.9471 61.8994 29.2735 61.3189C29.4937 61.2225 29.6634 61.1449 29.7737 60.8667C30.6442 58.6674 31.5093 55.8759 32.264 53.5999C32.3151 53.4416 32.3762 53.2845 32.4274 53.1264L33.1318 53.7795ZM48.6145 52.2629C48.1145 52.7834 47.5225 53.2151 46.8692 53.5194C47.8792 54.1859 49.9755 55.2457 51.1457 55.7056C51.5752 55.8744 51.7019 56.4474 51.3498 56.7773C50.5148 57.5593 50.1172 58.0303 49.4003 58.9339C49.0635 59.3585 47.9372 61.0832 47.6755 61.6487L47.3387 62.253C47.206 62.5929 47.0121 62.9061 46.8487 63.2349L45.8995 65.2608C45.3323 66.5289 45.2277 67.1176 43.6133 67.6879C43.0605 67.8832 42.8811 67.8624 42.6233 68.4309L41.7354 72.147L41.1536 74.7791C42.6173 73.2118 43.997 71.6674 45.3484 69.9944L48.2368 66.4079C48.7879 65.6976 49.339 64.982 49.8699 64.2595L50.7068 63.1766L52.2276 61.1517C52.6152 60.6436 53.1128 59.897 53.5137 59.435L54.4832 58.0011C55.0096 57.1853 55.3074 56.7339 55.6263 55.8894C55.9143 55.1269 55.8855 54.9387 55.9222 54.189C55.9799 53.0126 54.8501 51.5786 54.3811 50.4993C53.1571 50.8993 51.5279 50.9165 50.3905 50.3442L49.9005 50.1185C49.7163 50.8166 49.1225 51.7275 48.6145 52.2629ZM41.1538 74.8136C41.164 74.8136 41.164 74.8136 41.1538 74.8136V74.8136ZM41.1538 74.7912C41.1436 74.7901 41.1538 74.7901 41.1436 74.7901V74.7983L41.1538 74.7912ZM19.3534 38.1099L19.3227 38.0446C19.4145 38.2375 19.3125 38.0314 19.3534 38.1099ZM37.4592 8.69656C37.0149 9.02971 36.3782 9.80444 36.1018 10.2825L35.8364 10.8327C35.6809 10.7781 35.0425 10.4831 34.9894 10.3979C34.8541 10.1812 33.8459 10.1031 33.4686 9.98151C32.3571 9.62317 31.1057 9.73909 29.9679 9.92328C29.7065 9.97329 29.6587 9.84423 29.2025 10.0427L28.5084 10.2896C26.9139 10.8973 24.8656 12.5132 23.8951 13.9455C24.3396 12.1653 24.6173 11.328 25.3853 9.65274C26.0802 8.13688 27.3695 6.59472 28.7228 5.67341C29.7344 4.98448 31.1225 4.59091 32.3562 4.63856C33.0935 4.66685 32.9735 4.74644 33.3972 4.79171C34.263 4.88408 34.6287 5.19167 34.8976 5.23968C35.2397 5.30083 36.3815 6.26158 36.6836 6.48684C37.2442 6.90487 37.4961 7.44868 37.7654 7.61571C37.9797 7.7444 38.1737 7.91892 38.3267 8.12611C37.9028 8.36177 37.8526 8.38185 37.4592 8.69656ZM70.1292 2.8423C70.0741 1.63311 69.6895 0.688798 68.588 0.147913C68.0776 -0.102724 67.3395 -0.00980718 66.8631 0.239734C66.5791 0.388509 65.117 1.56411 64.6789 1.90328C63.3639 2.90674 62.0523 3.89486 60.7699 4.93866C60.0592 5.51715 56.491 8.53081 56.075 8.98444C55.9934 9.07352 55.8503 9.11843 55.575 9.40503L54.6666 10.2287C52.8048 11.9092 52.1376 12.5691 50.523 14.5439C50.1718 14.9789 48.5995 16.9133 48.3491 17.3078L47.4714 17.1791C48.0574 16.3002 48.4142 15.2629 48.4715 14.2071C48.5009 13.6669 48.5048 13.1045 48.3797 12.5751C48.3087 12.2743 48.4007 12.3318 48.2063 11.8851C48.1441 11.7422 48.2582 11.8097 48.0736 11.4525L47.7266 10.6748C47.473 10.185 46.9095 9.4304 46.4405 9.06531C45.4013 8.25571 44.1468 7.98335 42.848 8.06404C42.7797 8.06824 42.1772 8.11534 42.2356 8.23655C42.2573 8.28164 42.447 8.26393 42.3274 8.40704C42.2991 8.44082 42.2569 8.4556 42.3478 8.51018C42.2471 8.53428 42.0866 8.55363 42.0417 8.61533C42.1043 8.75333 42.6071 8.99338 42.8887 8.95834C42.9249 8.95377 43.2524 9.04578 43.2766 9.13084C43.323 9.29386 43.7516 9.20514 43.9911 9.4116C44.1238 9.52605 44.9051 10.1086 45.0015 10.2546C45.0798 10.3733 45.2465 10.5029 45.2465 10.5874C45.2465 10.7646 45.3602 10.7816 45.4608 10.9384C46.0773 11.8986 46.2383 12.4344 46.2569 13.5298C46.2786 14.8068 45.5395 16.0917 44.4811 16.7784C43.7619 17.2452 42.8973 17.5247 42.0419 17.5857C41.8394 17.6001 41.2208 17.5572 41.0519 17.4714C40.784 17.3352 40.731 17.4575 39.8068 16.9161C39.4375 16.6998 38.819 16.1227 38.6128 15.767C38.2104 15.0727 38.0281 14.6702 37.9596 13.8022C37.9494 13.7011 37.9187 13.599 37.9289 13.4981C38.0266 12.6423 38.0684 12.3915 38.3678 11.5711C38.4883 11.2714 38.6485 11.0823 38.6739 11.0138C38.715 10.903 38.7632 10.6788 38.8984 10.5903L38.9598 10.4567C39.0228 10.3838 39.129 10.3355 39.1639 10.1964C39.2057 10.0299 40.0361 9.50159 40.164 9.39115C40.4399 9.15329 40.8915 9.14435 40.9908 9.00744C41.1722 8.7568 41.5112 8.77907 41.6032 8.63997C41.6825 8.52004 41.8055 8.57681 41.838 8.5257C41.8789 8.43278 41.9605 8.41143 42.0421 8.36743C41.8473 8.26648 41.8586 8.19182 41.7971 8.1398C41.7155 8.08156 41.6337 8.02552 41.5828 7.91526C41.4572 7.67449 40.0383 7.60037 39.5313 7.75608C39.4395 7.78675 39.3375 7.81724 39.2252 7.8448C39.11 7.21629 38.8378 6.77928 38.5721 6.21174C38.2845 5.59802 37.7513 5.05367 37.3473 4.47572C37.2758 4.3839 37.2044 4.30231 37.1126 4.22052C36.2864 3.43466 35.9284 3.17344 34.8673 2.67947C33.4053 1.99875 32.2169 1.946 30.6828 2.06702C30.1245 2.1258 29.0835 2.42573 28.5702 2.63858C26.5433 3.47884 24.8789 5.14567 23.7325 6.97113C22.2245 9.37235 21.7517 11.3026 21.1911 13.9952C21.0193 14.9199 20.8634 17.0207 20.8952 18.0481C20.9465 18.775 20.9437 19.5347 21.0686 20.2496C21.1323 20.6139 21.0478 20.8976 20.987 21.2957L21.1911 21.2915L21.232 21.615C21.3136 22.107 21.7117 22.5029 22.2219 22.5551C22.8344 22.6163 23.3855 22.1692 23.4466 21.5559C23.4568 21.4507 23.4671 21.3456 23.4875 21.2415L23.6814 21.2364C23.6507 20.965 23.6303 20.6933 23.6098 20.421C23.6284 19.9925 24.1315 18.4024 24.2936 17.9776C24.8159 16.6092 25.5276 15.3022 26.5287 14.2248L27.2023 13.5379C27.379 13.4524 27.5368 13.2761 27.7534 13.1031C29.13 12.0049 31.3965 11.3139 33.1424 11.315C33.9157 11.3154 34.7601 11.4326 35.5 11.6763C34.8395 13.854 35.2287 15.9555 36.6533 17.7582C37.1668 18.408 37.805 18.927 38.5209 19.3208L38.5107 19.3228L38.3985 19.5709C37.2559 19.5137 36.6062 19.9381 35.755 20.4945L27.4573 25.9313C27.243 26.0723 27.0492 26.2283 26.8347 26.3599C25.6569 27.0921 23.3382 28.7082 22.3236 29.5903C22.146 29.7447 21.7508 29.9817 21.5582 30.1659C21.2929 30.4251 21.048 30.7119 20.7212 30.9232C20.7008 30.9335 20.6905 30.9477 20.6805 30.9619C20.5073 31.196 20.2013 31.2922 19.9151 31.6631L18.6086 32.7766C17.9344 33.3186 17.5788 33.7947 17.0573 34.2005C15.9664 35.0493 16.3908 34.975 15.5163 35.8671C15.23 36.159 15.2731 36.3706 15.2203 36.8164C15.2101 36.9002 15.2203 37.0216 15.2408 37.0563C15.3428 37.1921 15.4142 37.3868 15.5571 37.54C15.4476 37.1862 15.5798 37.1108 15.6287 36.9776C15.7417 36.6687 15.8706 36.7308 15.9655 36.659C16.1066 36.5522 16.171 36.5637 16.3739 36.4509L18.701 35.0495C19.0275 34.8179 19.3746 34.5953 19.7318 34.4197C20.3946 34.1003 24.4943 31.1852 25.2533 30.6607C25.2942 30.6332 25.3349 30.6047 25.3758 30.5821C25.8643 30.3071 26.6518 29.7414 27.172 29.4003C27.3354 29.29 27.5088 29.192 27.6824 29.0828C30.6718 27.1652 33.6194 25.1789 36.5823 23.2285C36.8543 23.0495 37.7376 22.3947 37.9602 22.2997C38.2787 22.1637 38.7237 22.2512 38.9603 22.5058L39.5523 23.3479L39.6237 23.3041L39.5523 23.351C39.6724 23.4834 40.0936 25.4788 39.6033 26.2731C39.3278 26.7192 38.6505 27.0069 38.205 27.2354C35.0805 28.8384 32.2523 30.3676 29.2133 32.0844L27.3557 33.1368C27.2359 33.22 27.116 33.2136 26.723 33.4716L25.5287 34.1278C23.6458 35.1589 22.65 35.6862 20.8136 36.8754L19.2521 37.9V37.9091C18.9602 38.0698 17.3596 37.9602 17.1088 37.9305C16.7618 37.8867 16.4147 37.8366 16.0677 37.7702C15.7756 37.7132 16.1696 37.9188 16.2004 37.9845C16.0655 38.0656 15.8852 38.0029 16.1086 38.1479C15.4546 37.9734 15.5801 37.7782 15.3432 37.6692C15.3432 38.1163 16.1051 38.5458 16.4149 38.6541C16.9958 38.8573 17.0111 38.8003 17.4458 38.898C17.6018 38.933 18.1425 39.0325 18.2214 39.1083C18.3795 39.26 19.4583 39.2448 19.834 39.0367L20.3545 38.7837C21.3411 38.4398 22.7717 37.7167 23.794 37.2518C24.0284 37.1452 24.0554 37.27 24.5594 36.965L25.2637 36.617C28.2405 35.1132 31.2459 33.4902 34.2145 31.9855L36.2455 30.9802L36.1332 32.2336C36.1332 32.4608 36.1632 32.6529 36.1026 32.8816C36.0923 32.9143 36.1128 32.953 36.1128 32.9847L36.0617 33.3633C36.0861 33.4919 36.0412 33.4398 36.0412 33.5521L36.031 34.0492C35.9602 34.5176 35.8912 34.6534 35.8474 35.1678L35.7964 35.8496C35.8046 35.8781 35.7298 35.8715 35.7658 35.9528C35.7822 35.9896 35.6758 36.4444 35.7251 36.6702C35.4647 36.7704 35.337 36.8779 35.1535 37.0763L34.4697 37.8509C30.7001 42.0252 27.258 44.6206 22.702 47.7367C22.1133 48.1392 21.981 48.9331 22.4264 49.4962C22.5998 49.7177 22.7632 49.9433 22.957 50.1545C23.9406 51.2301 25.2463 52.0254 26.6823 52.3091C28.1724 52.6036 30.0302 52.4119 31.3874 51.6242C31.5303 51.9049 31.6833 52.1744 31.8671 52.4305C31.6563 52.747 31.4078 53.2963 31.2853 53.6461L30.9077 54.3952C30.7512 54.7156 30.7222 54.5203 30.5709 54.877C30.3889 55.3056 30.1191 56.1083 29.8973 56.4845C29.4918 57.1721 28.8956 58.406 28.5296 59.1595C28.4478 59.332 28.3867 59.5188 28.2949 59.6851C28.2102 59.7555 27.6362 59.7765 27.1415 60.0821L26.2434 60.5721C24.4284 61.598 21.8804 63.9753 20.3952 65.5507L18.3846 67.7328C18.0022 68.153 17.0944 67.6301 15.7004 68.241C14.6322 68.7093 14.2481 69.4327 13.7101 70.3354L10.5869 75.4803C10.0767 76.3291 9.8668 76.882 10.087 77.8972C10.1996 78.4169 10.5762 78.9611 10.9646 79.3046C11.8922 80.1246 13.1656 80.2201 14.2101 79.5874L15.8534 78.6097C16.4659 78.2668 17.0272 77.8483 17.6599 77.5177C18.5505 77.0524 21.8052 74.9124 22.8446 74.2037C23.3039 73.8823 23.7632 73.5506 24.2224 73.224C26.3332 71.7373 28.5084 70.1804 30.5197 68.5751C31.5433 67.7483 35.06 64.9579 35.5106 64.4048L36.5516 63.1352C36.7353 62.9269 36.9191 62.7351 37.0723 62.5147C37.3377 62.1401 37.5622 61.7524 37.8786 61.4074C37.8888 61.3912 37.9092 61.3707 37.9193 61.3512C38.091 61.0235 38.4288 60.7353 38.644 60.3275L39.8789 58.6648C40.451 57.9332 40.8762 57.1404 41.3179 56.5878C42.4561 55.1643 41.9462 55.4055 42.6856 54.32C42.9104 53.9898 42.8446 53.963 42.8999 53.8138C43.9062 54.0977 44.9351 54.1041 45.9413 53.8423C46.2061 54.1815 47.4162 54.9398 47.4723 55.1528C47.5296 55.3713 48.5071 55.8408 48.8808 56.1652C48.9726 56.2439 49.0747 56.3184 49.1665 56.3929L48.4318 57.0633C48.1463 57.2026 47.9444 57.529 47.7173 57.8114C46.6269 59.1681 45.7359 60.6809 44.9207 62.2144L43.4919 65.0702C43.3444 65.4818 42.8792 65.4256 42.2876 65.6611C41.3592 66.0308 40.6456 66.7675 40.328 67.7228C40.12 68.3482 39.8251 69.6211 39.6441 70.3009L38.6133 74.1344C38.56 74.5442 38.504 74.5438 38.5522 75.0714C38.7201 76.9127 40.809 78.0031 42.3692 77.1341C42.9827 76.7924 43.3325 76.2687 43.8491 75.7594C44.2573 75.3461 44.5941 74.8775 45.0229 74.4775L46.9825 72.2974L49.2278 69.5857C50.6429 67.8562 51.8326 66.3031 53.1674 64.4957C53.3203 64.2905 53.4531 64.0762 53.6062 63.8782C53.9021 63.4893 54.1982 63.0832 54.4737 62.6871C54.9841 61.9328 55.6066 61.1867 56.0965 60.3468L57.209 58.3914C57.334 58.079 57.5185 57.4695 57.6478 57.2371C57.658 57.2198 57.658 57.1973 57.6682 57.176C57.6989 56.9779 57.7703 56.7769 57.8418 56.578C57.9634 56.188 57.9076 56.0124 57.9643 55.6574C58.0373 55.1999 57.9868 54.3974 57.9132 53.9529C57.7701 53.0877 57.3073 52.4697 56.8619 51.7688C56.6984 51.5112 56.3167 50.9833 56.0658 50.8369C55.6582 50.599 55.2232 50.1523 55.1984 50.1388C56.8488 49.2456 57.9662 47.6264 58.0766 45.7358C61.0565 45.2144 63.1028 42.5739 62.9143 39.5783C62.8602 38.7187 62.4656 37.7618 62.4143 37.9097C62.4143 38.0373 62.4856 38.2189 62.4449 38.3271C62.4143 38.2996 62.3736 38.274 62.3429 38.2485C62.2438 38.1537 62.2613 38.073 62.2613 38.3363L62.0572 37.8454C61.9364 37.9118 61.9362 37.8761 61.8938 37.8761C61.9648 38.4029 62.066 39.8302 61.9856 40.2532C61.9479 40.4522 61.8102 41.0706 61.6488 41.1982C61.4572 41.3497 61.1812 42.4335 60.3935 43.019C59.5028 43.681 58.5729 44.048 57.4541 44.0447C56.8028 44.0429 56.3126 44.4309 56.2906 45.0755C56.2783 45.4319 56.2794 45.619 56.1681 45.9819C56.1266 46.1168 56.073 46.4563 55.9333 46.5992C55.7457 46.7915 55.573 47.1803 55.2802 47.5229C55.0102 47.8389 54.4012 48.2564 54.0248 48.417C52.634 49.0099 51.0942 48.6306 50.075 47.5372C49.3969 46.8095 48.0639 47.1963 48.0134 48.3301C47.9111 50.6231 45.8024 52.1901 43.6655 51.5859C42.2301 51.1801 42.089 50.3476 41.5017 50.0488C40.8396 49.712 40.1109 49.9606 39.736 50.653C38.0593 53.7494 33.8308 52.641 33.5 49.5037C33.3815 48.3802 31.9976 47.7827 31.0811 48.6005C30.3363 49.2651 29.6391 49.6269 28.6419 49.7925C27.9197 49.9125 26.5267 49.6638 25.9575 49.2281C25.8657 49.1476 25.7535 49.0791 25.6514 49.0056C29.6023 46.4026 33.7532 42.9238 36.868 39.3218L38.062 39.283C38.8274 39.2809 39.5828 39.2727 40.3482 39.2452C41.8077 39.19 43.2671 39.2014 44.7268 39.1105L47.0028 38.9911C47.3396 38.9777 47.6866 38.9911 48.0234 38.9553C48.1895 38.9403 49.4608 39.2149 49.534 39.2196C50.184 39.2623 50.5551 39.4135 51.1873 39.3972L52.1977 39.4677C54.52 39.6364 55.1212 39.4923 57.2192 39.2636C59.3842 39.0274 58.687 38.9361 60.5669 38.4288C61.1423 38.2735 60.98 38.1984 61.5671 37.9991C61.8 37.9201 61.6801 37.8688 62.21 37.5634C61.8599 37.6525 61.798 37.5433 61.6487 37.5449C60.7246 37.5553 61.5318 37.3932 60.0565 37.5031C58.6607 37.6072 55.5341 37.801 54.1675 37.5531C53.9939 37.5205 53.8103 37.4971 53.6267 37.4807C52.4609 37.3715 50.4496 37.0426 49.2583 36.7153C49.4002 36.5238 49.4801 36.3224 49.6665 36.1651C49.9544 35.9223 50.6017 34.216 50.6564 33.8493L50.8299 33.382C51.3927 31.5726 51.5538 30.7358 51.83 28.8351L52.1159 25.4324C52.1159 25.2966 52.0955 25.161 52.0955 25.0243C52.1057 24.8691 52.1159 24.715 52.1057 24.5588C52.7044 24.0798 53.3547 23.5217 53.8917 22.9788C54.1571 22.7134 54.4123 22.445 54.7082 22.2214C55.2364 21.8014 57.1544 19.5417 57.7496 18.8186L58.7703 17.5336L60.0052 16.0302C60.1175 15.8894 60.2502 15.7576 60.3624 15.6158L62.2505 13.2642C62.4871 12.9585 62.7244 12.5558 63.0466 12.3968C63.4228 12.2111 63.5977 12.2602 64.1386 11.8579C65.9624 10.5012 68.1543 7.29826 69.3744 5.35961C69.4523 5.23585 69.9392 4.362 70.0071 4.1287C70.1486 3.64076 70.1635 3.32167 70.1292 2.8423Z" fill="url(#paint0_linear_1_243)"></path><defs><lineargradient id="paint0_linear_1_243" x1="10.0001" y1="80" x2="74.4665" y2="76.351" gradientUnits="userSpaceOnUse"><stop stop-color="#E4AF78"></stop><stop offset="0.2" stop-color="#DC9A72"></stop><stop offset="0.6" stop-color="#BE6D2B"></stop><stop offset="1" stop-color="#EABE81"></stop></lineargradient></defs></svg>