<?xml version="1.0" encoding="UTF-8"?> <svg xmlns="http://www.w3.org/2000/svg" width="147" height="184" viewBox="0 0 147 184" fill="none"><path d="M12.731 161.617C10.471 161.617 8.37834 161.283 6.49498 160.617C4.61162 159.95 3.06308 158.95 1.93306 157.659C0.761194 156.367 0.133405 154.742 0.00784731 152.826C-0.0340051 152.034 0.0915529 151.159 0.38452 150.242C0.677487 149.284 1.09601 148.368 1.6401 147.409C2.18418 146.493 2.85381 145.618 3.56531 144.868C4.31865 144.118 5.11385 143.534 5.99275 143.159C6.07645 143.118 6.16016 143.076 6.32757 143.076C6.49498 143.076 6.57869 143.076 6.66239 143.076C6.78795 143.076 6.87165 143.076 6.87165 143.159C6.87165 143.284 6.70424 143.451 6.36942 143.701C5.40681 144.451 4.61162 145.326 3.98383 146.326C3.35604 147.326 2.85381 148.368 2.51899 149.492C2.18417 150.617 2.01677 151.784 2.01677 152.909C2.01677 154.034 2.30974 155.45 2.89567 156.409C3.4816 157.409 4.2768 158.2 5.28126 158.825C6.28572 159.45 7.41573 159.909 8.6713 160.242C9.92688 160.534 11.2662 160.7 12.6473 160.7C14.0284 160.7 15.7444 160.534 17.2511 160.2C18.7577 159.867 20.1389 159.367 21.3944 158.7C23.3197 157.7 24.8263 156.409 25.9564 154.909C27.0864 153.409 27.6305 151.909 27.6305 150.451C27.6305 148.992 27.4631 148.909 27.1282 148.201C26.7934 147.493 26.2493 146.826 25.496 146.284C24.9519 145.826 24.2823 145.451 23.4452 145.034C22.65 144.659 21.813 144.243 20.8922 143.909C20.0133 143.534 19.1344 143.159 18.2555 142.784C17.4185 142.41 16.6651 141.993 15.9955 141.576C15.0747 140.951 14.4051 140.285 13.9447 139.576C13.5262 138.868 13.3169 138.16 13.3169 137.451C13.3169 136.743 13.568 135.785 14.0703 134.952C14.5725 134.16 15.2421 133.41 16.121 132.743C16.9999 132.077 17.9625 131.577 19.0507 131.202C20.0133 130.868 21.0178 130.618 22.1478 130.452C23.2778 130.285 24.366 130.16 25.4541 130.16C26.5423 130.16 27.2119 130.243 28.049 130.368C28.886 130.493 29.5975 130.702 30.2253 131.035C31.0205 131.41 31.6064 131.91 32.025 132.493C32.4435 133.118 32.6528 133.743 32.6528 134.41C32.6528 135.077 32.2342 136.16 31.3972 136.826C31.1042 137.076 30.7694 137.285 30.3927 137.451C30.0161 137.66 29.5975 137.826 29.0535 137.951C28.9697 137.951 28.8442 137.951 28.7605 137.951C28.4675 137.951 28.342 137.868 28.342 137.701C28.342 137.535 28.4257 137.493 28.5512 137.41C28.7186 137.326 28.9279 137.243 29.2209 137.201C29.9324 137.118 30.4346 136.826 30.8113 136.41C31.1879 135.952 31.3553 135.452 31.3553 134.868C31.3553 134.285 31.1461 133.66 30.7275 133.077C30.309 132.493 29.7231 131.993 28.886 131.577C28.049 131.16 27.0027 130.952 25.7053 130.952C24.4078 130.952 24.1567 131.035 23.236 131.202C22.3571 131.368 21.3944 131.618 20.3481 131.993C19.0926 132.452 18.0044 133.077 17.1674 133.91C16.3303 134.743 15.9118 135.66 15.9118 136.66C15.9118 137.66 16.121 137.868 16.5396 138.493C16.9581 139.118 17.5859 139.701 18.5066 140.243C19.26 140.701 20.1389 141.16 21.1015 141.618C22.0641 142.076 23.0685 142.534 24.073 142.951C25.0775 143.409 25.9564 143.868 26.7934 144.368C28.049 145.159 28.9697 145.993 29.5557 146.909C30.0998 147.826 30.3927 148.743 30.3927 149.659C30.3927 150.576 30.0579 151.867 29.3883 152.992C28.7186 154.117 27.8816 155.159 26.7934 156.159C25.7471 157.159 24.5752 157.992 23.2778 158.784C21.813 159.659 20.1389 160.325 18.2555 160.825C16.3722 161.283 14.4888 161.533 12.6054 161.533L12.731 161.617ZM40.0188 140.16C39.7258 140.618 39.391 141.16 39.0143 141.826C38.6377 142.493 38.3028 143.159 38.0099 143.743C37.7169 144.368 37.4658 144.826 37.2984 145.159H40.4792C40.4792 145.243 40.4792 145.409 40.3536 145.618C40.2699 145.826 40.1025 145.993 39.8932 146.076H36.8799C36.5869 146.701 36.2939 147.451 35.9173 148.326C35.5406 149.201 35.2058 150.117 34.8709 151.076C34.5361 152.034 34.2432 152.909 34.0339 153.742C33.8246 154.576 33.6991 155.242 33.6991 155.742C33.6991 156.242 33.7828 156.95 33.992 157.284C34.1594 157.617 34.4943 157.784 34.9965 157.784C35.4987 157.784 36.2102 157.492 36.7962 156.867C37.3821 156.242 37.9262 155.492 38.4284 154.576C38.9306 153.659 39.391 152.742 39.8095 151.826C40.1025 151.826 40.2281 151.909 40.2281 152.117C39.9769 152.742 39.6421 153.409 39.3073 154.159C38.9306 154.909 38.5121 155.617 38.0517 156.284C37.5914 156.95 37.0473 157.534 36.4613 157.95C35.8754 158.367 35.2058 158.575 34.4943 158.575C33.7828 158.575 32.862 158.284 32.5272 157.742C32.1924 157.2 32.025 156.492 32.025 155.659C32.025 154.826 32.1505 154.284 32.3598 153.409C32.6109 152.534 32.862 151.617 33.1968 150.659C33.5317 149.701 33.8665 148.826 34.2013 147.993C34.5361 147.159 34.7872 146.534 34.9546 146.118H32.7365C32.7365 145.951 32.8202 145.743 32.9876 145.534C33.155 145.326 33.3224 145.243 33.4898 145.243H35.3313C35.4987 144.868 35.7498 144.409 35.9591 143.868C36.2102 143.326 36.545 142.701 36.9636 142.035C37.2984 141.493 37.7588 141.035 38.3028 140.701C38.8469 140.368 39.4329 140.201 40.0606 140.201L40.0188 140.16ZM47.343 158.534C46.7989 158.534 46.3385 158.367 45.92 158.075C45.5015 157.784 45.2922 157.159 45.2922 156.242C45.2922 155.325 45.2922 155.492 45.3759 155.117C45.4596 154.742 45.5015 154.409 45.5852 153.992C45.3759 154.326 45.0829 154.784 44.7063 155.284C44.3296 155.784 43.9111 156.284 43.4925 156.784C43.0322 157.284 42.5718 157.659 42.1114 157.992C41.651 158.325 41.1907 158.492 40.7721 158.492C40.1862 158.492 39.684 158.2 39.3073 157.659C38.9306 157.117 38.7632 156.409 38.7632 155.534C38.7632 154.659 38.9725 153.576 39.4329 152.492C39.8932 151.409 40.4792 150.367 41.2325 149.367C41.9859 148.368 42.8648 147.576 43.8692 146.951C44.8737 146.326 45.92 146.034 47.0081 146.034C48.0963 146.034 48.0545 146.118 48.5567 146.284C49.0589 146.451 49.4774 146.743 49.8541 147.118C50.0215 147.284 50.1052 147.451 50.1052 147.659C50.1052 147.868 50.0634 147.909 49.9378 147.993C49.8123 148.076 49.6867 148.118 49.4774 148.076C49.2263 147.284 48.6822 146.868 47.8452 146.868C47.0081 146.868 47.0081 146.993 46.5059 147.243C45.8781 147.576 45.2085 148.076 44.497 148.784C43.7855 149.492 43.1159 150.284 42.5299 151.159C41.9021 152.034 41.3999 152.951 41.0232 153.826C40.6466 154.742 40.4373 155.534 40.4373 156.284C40.4373 157.034 40.7303 157.409 41.3162 157.409C41.9021 157.409 42.3625 157.159 42.9066 156.7C43.4507 156.2 43.9529 155.617 44.4551 154.867C44.9574 154.159 45.4178 153.409 45.8363 152.701C46.2548 151.992 46.5896 151.409 46.7989 150.951C47.1337 150.326 47.4685 149.826 47.7615 149.409C48.0545 148.992 48.473 148.784 49.0589 148.784C49.6449 148.784 49.5611 148.784 49.8123 148.867C50.0634 148.951 50.3145 148.951 50.6075 148.867C49.896 149.576 49.31 150.367 48.7659 151.326C48.2637 152.284 47.8452 153.201 47.5522 154.117C47.2593 155.034 47.1337 155.784 47.1337 156.409C47.1337 157.034 47.3848 157.45 47.8452 157.45C48.3056 157.45 48.5985 157.242 49.0589 156.825C49.4774 156.409 49.896 155.867 50.3145 155.242C50.733 154.617 51.1097 153.951 51.4445 153.326C51.7793 152.659 52.0723 152.117 52.2816 151.617C52.4071 151.617 52.4908 151.617 52.5745 151.617C52.6582 151.617 52.7001 151.742 52.7001 151.909C52.7001 151.992 52.6164 152.117 52.5745 152.201C52.5327 152.284 52.449 152.492 52.3234 152.742C52.156 153.117 51.863 153.617 51.5701 154.242C51.2352 154.867 50.8586 155.492 50.44 156.117C49.9797 156.742 49.5193 157.284 49.0171 157.742C48.5148 158.2 47.9708 158.409 47.4267 158.409L47.343 158.534ZM52.2816 151.659C52.449 151.284 52.7001 150.659 52.993 149.784C53.286 148.909 53.6208 147.951 53.9138 146.909C54.2486 145.868 54.4997 144.826 54.6253 143.909C54.709 143.534 54.8346 143.284 55.002 143.076C55.1694 142.909 55.3786 142.826 55.5879 142.826C55.8809 142.826 56.1738 142.951 56.4249 143.243C56.6761 143.534 56.8016 143.951 56.8016 144.451C56.8016 144.951 56.5924 145.659 56.2157 146.118C55.839 146.576 55.3786 147.034 54.7927 147.451C55.0438 147.451 55.2531 147.451 55.5042 147.493C55.7553 147.493 56.0483 147.493 56.3412 147.493C57.4294 147.493 58.5176 147.409 59.5639 147.284C59.6057 147.409 59.6476 147.534 59.6476 147.576C59.6476 147.868 59.5639 148.243 59.3965 148.701C59.2291 149.159 59.0616 149.576 58.8524 149.951C58.7687 150.159 58.5594 150.534 58.3083 151.076C58.0153 151.617 57.7224 152.242 57.3876 152.909C57.0527 153.576 56.8016 154.242 56.5505 154.909C56.3412 155.575 56.2157 156.117 56.2157 156.575C56.2157 157.034 56.4668 157.492 56.9272 157.492C57.3876 157.492 57.9735 156.992 58.7687 155.95C59.5639 154.909 60.3591 153.492 61.1124 151.701C61.4054 151.701 61.531 151.784 61.531 151.992C61.2798 152.617 60.945 153.284 60.5683 154.034C60.1917 154.784 59.7731 155.45 59.3128 156.117C58.8524 156.784 58.3502 157.325 57.8061 157.742C57.262 158.159 56.7179 158.367 56.132 158.367C55.546 158.367 55.2531 158.2 54.7927 157.825C54.3323 157.45 54.1231 156.867 54.1231 156.075C54.1231 155.284 54.2486 154.659 54.5416 153.992C54.8346 153.326 55.1275 152.659 55.4623 152.076C55.7972 151.492 56.132 150.951 56.3831 150.492C56.6761 150.034 56.8016 149.659 56.8016 149.367C56.8016 148.951 56.5505 148.659 56.0064 148.451C55.5042 148.284 54.7927 148.159 53.9557 148.159C53.5371 149.201 53.2442 149.992 53.0349 150.492C52.8256 150.992 52.6164 151.492 52.449 151.951C52.0723 151.951 51.9467 151.826 52.0723 151.534L52.2816 151.659ZM71.9522 159.909C70.9896 159.909 70.1107 159.784 69.2318 159.492C68.3948 159.2 67.6833 158.784 67.1392 158.242C66.5951 157.7 66.3021 156.992 66.3021 156.159C66.3021 155.325 66.6788 154.534 67.4321 153.826C68.1855 153.117 69.2737 152.784 70.6548 152.784C72.0359 152.784 73.5007 153.117 74.7982 153.784C76.0956 154.451 77.4767 155.159 78.9416 155.909C80.1553 154.742 81.2435 153.367 82.2061 151.826C83.1687 150.284 84.0894 148.618 84.9683 146.909C85.8472 145.159 86.768 143.451 87.7306 141.743C88.6932 140.035 89.7395 138.41 90.9114 136.951C91.1206 136.701 91.3299 136.451 91.5391 136.16C91.7484 135.91 91.9577 135.618 92.2088 135.368C90.9532 134.618 89.6139 134.077 88.191 133.66C86.768 133.243 85.2613 133.035 83.7546 133.035C82.2479 133.035 80.1134 133.285 78.4812 133.743C76.8489 134.243 75.4678 134.868 74.2541 135.702C73.0404 136.535 72.1196 137.451 71.45 138.451C70.7803 139.493 70.4455 140.535 70.4455 141.618C70.4455 142.701 70.6548 143.368 71.0733 144.034C71.4918 144.659 71.9941 145.118 72.6218 145.451C73.2496 145.743 73.8774 145.909 74.4634 145.909C75.0493 145.909 75.97 145.743 76.556 145.451C77.1419 145.159 77.6023 144.743 77.979 144.284C78.3556 143.826 78.6067 143.368 78.816 142.951C78.9834 142.493 79.109 142.16 79.109 141.868C79.109 141.701 79.1927 141.618 79.4019 141.618C79.7368 141.618 79.8623 141.826 79.7786 142.201C79.6531 143.118 79.3182 143.909 78.7323 144.618C78.1464 145.284 77.4767 145.826 76.6397 146.201C75.8445 146.576 75.0074 146.784 74.1285 146.784C73.2496 146.784 72.2033 146.576 71.3663 146.201C70.5292 145.826 69.8596 145.243 69.3574 144.451C68.8551 143.659 68.604 142.743 68.604 141.618C68.604 140.493 69.0225 138.785 69.8177 137.576C70.6129 136.368 71.7429 135.368 73.1659 134.535C74.5889 133.702 76.2212 133.077 78.0208 132.618C79.8623 132.16 81.7875 131.952 83.8383 131.952C85.8891 131.952 87.0191 132.16 88.6095 132.535C90.1999 132.91 91.7066 133.493 93.1714 134.243C93.7573 133.577 94.3851 132.993 95.0129 132.452C95.6407 131.952 96.3103 131.535 96.98 131.243C97.2729 131.118 97.5241 131.077 97.6915 131.077C97.8589 131.077 97.9007 131.077 97.9007 131.16C97.9007 131.285 97.6496 131.577 97.1055 132.035C96.8126 132.327 96.4359 132.743 96.0174 133.285C95.5988 133.868 95.1803 134.452 94.7199 135.118C96.1011 136.035 97.3566 137.118 98.4029 138.368C99.4911 139.66 100.328 141.118 100.956 142.743C101.584 144.368 101.877 146.159 101.877 148.159C101.877 150.159 101.542 151.784 100.872 153.242C100.203 154.701 99.2819 155.867 98.11 156.825C96.9381 157.784 95.6407 158.492 94.134 158.95C92.6273 159.409 91.0369 159.659 89.3628 159.659C87.6887 159.659 85.5543 159.409 83.8802 158.867C82.2061 158.325 80.6575 157.742 79.1927 157.075C78.0627 157.992 76.8908 158.659 75.6771 159.117C74.4634 159.575 73.1659 159.825 71.7848 159.825L71.9522 159.909ZM71.9522 158.825C73.1241 158.909 74.2959 158.7 75.426 158.2C76.556 157.7 77.4767 157.159 78.2301 156.575C76.8489 155.909 75.5515 155.284 74.3796 154.742C73.2078 154.201 72.1196 153.909 71.1152 153.909C70.1107 153.909 69.6922 154.159 69.2318 154.617C68.7714 155.075 68.5622 155.617 68.5622 156.2C68.5622 156.784 68.8551 157.534 69.4411 158.034C70.027 158.534 70.864 158.784 71.9104 158.825H71.9522ZM92.4599 138.951C91.9577 139.701 91.3717 140.66 90.7021 141.826C89.9906 142.993 89.2373 144.243 88.3584 145.618C87.5213 146.993 86.6006 148.326 85.6798 149.701C84.7591 151.076 83.8383 152.326 82.8757 153.534C81.9549 154.742 81.0342 155.7 80.1553 156.534C81.369 157.117 82.7501 157.659 84.215 158.075C85.6798 158.534 87.3958 158.742 89.2373 158.742C91.0788 158.742 93.2133 158.284 94.8036 157.409C96.394 156.534 97.6078 155.325 98.4867 153.784C99.3656 152.242 99.8259 150.534 99.8259 148.576C99.8259 146.618 99.2819 143.784 98.2355 141.701C97.1892 139.618 95.7244 137.91 93.9666 136.535C93.6736 137.035 93.3807 137.493 93.1295 137.91C92.8784 138.326 92.6692 138.701 92.4599 138.951ZM111.628 158.534C111.084 158.534 110.624 158.367 110.205 158.075C109.787 157.784 109.578 157.159 109.578 156.242C109.578 155.325 109.578 155.492 109.661 155.117C109.703 154.784 109.787 154.409 109.871 153.992C109.661 154.326 109.368 154.784 108.992 155.284C108.615 155.784 108.196 156.284 107.778 156.784C107.318 157.284 106.857 157.659 106.397 157.992C105.936 158.325 105.476 158.492 105.057 158.492C104.472 158.492 103.969 158.2 103.593 157.659C103.216 157.117 103.049 156.409 103.049 155.534C103.049 154.659 103.258 153.576 103.718 152.492C104.179 151.409 104.765 150.367 105.518 149.367C106.271 148.368 107.15 147.576 108.155 146.951C109.159 146.326 110.205 146.034 111.294 146.034C112.382 146.034 112.34 146.118 112.842 146.284C113.344 146.451 113.763 146.743 114.139 147.118C114.307 147.284 114.391 147.451 114.391 147.659C114.391 147.868 114.349 147.909 114.223 147.993C114.098 148.076 113.972 148.118 113.763 148.076C113.512 147.284 112.968 146.868 112.131 146.868C111.294 146.868 111.294 146.993 110.791 147.243C110.163 147.576 109.494 148.076 108.782 148.784C108.071 149.492 107.401 150.284 106.815 151.159C106.188 152.034 105.685 152.951 105.309 153.826C104.932 154.742 104.723 155.534 104.723 156.284C104.723 157.034 105.016 157.409 105.602 157.409C106.188 157.409 106.648 157.159 107.192 156.7C107.736 156.2 108.238 155.617 108.741 154.867C109.243 154.159 109.703 153.409 110.122 152.701C110.54 151.992 110.875 151.409 111.084 150.951C111.419 150.326 111.754 149.826 112.047 149.409C112.34 148.992 112.758 148.784 113.344 148.784C113.93 148.784 113.847 148.784 114.098 148.867C114.349 148.951 114.6 148.951 114.893 148.867C114.181 149.576 113.595 150.367 113.051 151.326C112.549 152.284 112.131 153.201 111.838 154.117C111.545 155.034 111.419 155.784 111.419 156.409C111.419 157.034 111.67 157.45 112.131 157.45C112.591 157.45 112.884 157.242 113.344 156.825C113.763 156.409 114.181 155.867 114.6 155.242C115.018 154.617 115.395 153.951 115.73 153.326C116.065 152.659 116.358 152.117 116.567 151.617C116.692 151.617 116.776 151.617 116.86 151.617C116.944 151.617 116.985 151.742 116.985 151.909C116.985 151.992 116.902 152.117 116.86 152.201C116.818 152.284 116.734 152.492 116.609 152.742C116.441 153.117 116.148 153.617 115.855 154.242C115.521 154.867 115.144 155.492 114.725 156.117C114.265 156.742 113.805 157.284 113.302 157.742C112.8 158.2 112.256 158.409 111.712 158.409L111.628 158.534ZM113.219 158.7C114.056 157.034 114.851 155.367 115.604 153.701C116.358 152.034 117.153 150.492 117.948 148.992C118.408 148.159 118.785 147.576 119.12 147.243C119.455 146.909 119.873 146.743 120.417 146.743C120.961 146.743 120.794 146.743 121.003 146.826C121.213 146.868 121.422 146.909 121.631 146.909C121.84 146.909 121.882 146.909 121.924 146.909C121.589 147.076 121.171 147.534 120.668 148.284C120.166 148.992 119.622 149.867 119.078 150.784C118.534 151.742 118.074 152.617 117.655 153.451C118.115 152.909 118.576 152.409 119.036 151.867C119.538 151.326 120.041 150.826 120.627 150.326C121.171 149.826 121.84 149.326 122.636 148.826C123.431 148.326 124.184 147.868 124.896 147.534C125.649 147.201 126.235 147.034 126.653 147.034C127.072 147.034 126.946 147.034 126.988 147.034C126.486 147.951 126.026 148.742 125.649 149.492C125.272 150.201 124.896 150.992 124.477 151.826C124.1 152.659 123.724 153.409 123.431 154.159C123.138 154.909 122.928 155.534 122.803 156.034C122.719 156.325 122.719 156.617 122.719 156.867C122.719 157.242 122.803 157.492 122.928 157.575C123.054 157.7 123.221 157.742 123.389 157.742C123.849 157.742 124.268 157.534 124.728 157.159C125.189 156.784 125.649 156.284 126.067 155.659C126.486 155.034 126.904 154.409 127.281 153.701C127.658 152.992 127.951 152.367 128.202 151.784C128.495 151.784 128.62 151.867 128.62 152.076C128.369 152.701 128.034 153.367 127.658 154.117C127.281 154.867 126.863 155.575 126.36 156.242C125.9 156.909 125.356 157.45 124.77 157.909C124.184 158.367 123.556 158.575 122.887 158.575C122.217 158.575 121.924 158.409 121.464 158.075C120.961 157.742 120.71 157.159 120.71 156.284C120.71 155.409 120.71 155.742 120.794 155.45C120.836 155.159 120.92 154.825 121.045 154.492C121.213 154.034 121.464 153.534 121.715 152.992C121.966 152.451 122.384 151.742 122.97 150.826C123.138 150.576 123.221 150.367 123.263 150.242C123.305 150.117 123.305 149.992 123.305 149.909C123.305 149.617 123.18 149.492 122.928 149.492C122.677 149.492 122.426 149.617 122.008 149.826C121.589 150.076 121.087 150.451 120.501 151.034C119.915 151.576 119.245 152.367 118.45 153.367C117.655 154.367 116.734 155.867 115.688 157.867C115.521 158.159 115.353 158.325 115.144 158.367C114.935 158.367 114.684 158.409 114.307 158.45C114.056 158.45 113.847 158.45 113.637 158.492C113.428 158.492 113.261 158.575 113.135 158.7H113.219ZM131.257 158.575C130.002 158.575 129.039 158.242 128.411 157.575C127.783 156.909 127.49 155.992 127.49 154.867C127.49 153.742 127.574 153.742 127.783 153.034C127.993 152.326 128.286 151.659 128.62 150.909C128.955 150.201 129.332 149.576 129.75 148.992C130.42 148.076 131.173 147.409 131.969 146.909C132.764 146.409 133.601 146.159 134.438 146.159C135.275 146.159 135.945 146.368 136.321 146.743C136.698 147.118 136.907 147.576 136.907 148.076C136.907 148.576 136.782 148.992 136.572 149.367C136.321 149.742 136.07 150.034 135.777 150.284C135.484 150.534 135.233 150.617 135.024 150.617C134.815 150.617 134.689 150.534 134.522 150.409C134.689 150.159 134.898 149.909 135.108 149.576C135.317 149.242 135.484 148.951 135.568 148.659C135.652 148.368 135.693 148.118 135.693 147.826C135.693 147.243 135.401 146.909 134.856 146.909C134.312 146.909 133.517 147.201 132.889 147.743C132.262 148.284 131.676 148.992 131.132 149.867C130.629 150.742 130.211 151.659 129.876 152.617C129.583 153.576 129.416 154.451 129.416 155.284C129.416 156.117 129.583 156.617 129.876 157.117C130.169 157.617 130.713 157.825 131.425 157.825C132.136 157.825 133.224 157.534 133.936 156.909C134.647 156.284 135.275 155.534 135.861 154.576C136.405 153.659 136.907 152.701 137.326 151.742C137.409 151.742 137.493 151.742 137.619 151.784C137.702 151.784 137.744 151.909 137.744 152.034C137.284 153.201 136.74 154.242 136.112 155.242C135.484 156.242 134.773 157.034 133.978 157.617C133.182 158.2 132.262 158.534 131.173 158.534L131.257 158.575ZM139.921 158.575C139.084 158.575 138.288 158.284 137.619 157.742C136.949 157.2 136.572 156.367 136.572 155.2C136.572 154.034 136.782 153.242 137.2 152.201C137.619 151.159 138.205 150.159 138.916 149.201C139.628 148.284 140.423 147.493 141.26 146.909C142.139 146.326 143.018 146.034 143.897 146.034C144.775 146.034 144.775 146.159 145.194 146.409C145.613 146.659 145.822 147.118 145.822 147.743C145.822 148.368 145.613 148.951 145.152 149.659C144.692 150.367 144.106 150.992 143.269 151.576C142.934 151.826 142.474 152.076 141.929 152.284C141.385 152.534 140.883 152.701 140.339 152.867C139.795 153.034 139.376 153.076 139 153.076C138.874 153.367 138.791 153.742 138.665 154.201C138.581 154.659 138.498 155.117 138.498 155.617C138.498 156.117 138.623 156.7 138.832 157.159C139.084 157.617 139.502 157.867 140.13 157.867C140.758 157.867 141.595 157.659 142.264 157.2C142.934 156.742 143.52 156.2 144.022 155.534C144.524 154.867 144.985 154.201 145.361 153.492C145.738 152.784 146.031 152.201 146.24 151.742C146.533 151.742 146.659 151.826 146.659 152.034C146.366 152.701 146.031 153.367 145.654 154.159C145.278 154.909 144.817 155.617 144.315 156.284C143.813 156.95 143.185 157.492 142.432 157.909C141.72 158.325 140.841 158.534 139.879 158.534L139.921 158.575ZM139.293 152.451C139.628 152.451 140.172 152.326 140.925 152.076C141.678 151.826 142.39 151.451 143.018 150.909C143.604 150.367 144.064 149.784 144.399 149.159C144.734 148.534 144.901 147.993 144.901 147.534C144.901 147.076 144.734 146.784 144.357 146.784C143.98 146.784 143.687 146.951 143.227 147.326C142.725 147.701 142.139 148.326 141.427 149.201C140.967 149.742 140.59 150.367 140.172 150.992C139.795 151.659 139.502 152.117 139.335 152.409L139.293 152.451Z" fill="url(#paint0_linear_1_559)"></path><path d="M88.9443 55.7887C90.1998 55.372 91.3298 56.6636 90.4091 58.9552C90.1161 59.7051 89.0698 60.0385 88.0235 59.9135C87.4794 59.8301 87.312 59.3718 87.312 59.3718C87.312 59.3718 88.1072 59.4968 88.3165 59.4135C88.5257 59.3302 88.5257 59.0385 88.6094 59.0385C89.4465 59.0385 90.2835 58.2886 89.5302 57.4136C89.5302 57.4136 89.865 57.2469 89.9069 57.122C90.158 56.497 89.2791 56.0803 88.6094 56.1637C88.4839 56.1637 88.9443 55.7887 88.9443 55.7887ZM88.6094 55.9553C88.4002 55.8304 88.1909 55.747 87.9398 55.7887C87.7724 55.7887 87.5213 55.9553 87.4376 56.0803C87.3539 56.247 87.3957 56.5386 87.312 56.622C87.2283 56.7053 86.9353 56.8303 86.7261 57.0386C86.5168 57.2469 86.3913 57.5803 86.4331 57.8302C86.4331 59.0385 87.1865 58.9135 87.0609 59.2468C86.9353 59.5802 86.0146 59.8718 85.4705 59.8718C84.8846 59.8718 84.4242 59.7051 84.1312 59.8718C83.5453 60.1635 82.8338 61.9967 83.629 62.5383C85.3868 62.3717 85.9309 62.9133 87.5631 62.9966C88.4002 63.0383 91.8739 62.3717 92.5017 61.9134C93.1295 61.4551 92.8784 61.4551 93.0039 61.1217C93.3806 59.9551 94.3851 57.2469 94.2595 56.8303C94.2595 56.6636 94.0502 56.4553 93.841 56.122C93.7154 55.9137 93.3806 55.4554 93.2132 55.1637C92.8365 54.5388 92.5017 54.0804 92.3343 53.8721C91.9158 53.4138 91.4973 53.3722 91.4554 53.2472C91.4554 53.0388 91.9576 53.2472 91.9158 53.2055C91.581 52.9972 91.3298 52.9972 91.3717 52.8722C91.4136 52.7472 91.7065 52.7472 92.4599 53.0388C92.711 53.1222 93.3388 53.5805 93.3388 53.5805C93.548 53.1638 91.8321 52.0389 91.9158 51.7889C91.9995 51.5389 93.841 52.9555 93.841 52.9555C93.841 52.9555 94.678 50.8306 94.8454 50.9556C95.1803 51.1639 93.9665 52.9555 94.2595 53.9971C94.3851 54.4554 94.678 54.6637 95.3895 55.622C96.101 56.5803 95.6407 57.0803 95.6407 57.0803C97.231 55.4137 97.6077 54.2054 97.6496 52.0389C97.6496 51.0389 97.1473 49.8723 97.2729 49.8723C98.8214 53.0388 98.947 54.9137 97.4403 56.997C96.9381 57.7053 95.5569 58.5802 95.5569 58.5802C95.3895 59.7885 95.3058 63.1216 94.1758 63.9549C93.6736 64.3299 90.7858 65.0382 89.2372 65.3715C86.2657 66.0381 81.7875 65.8298 80.6156 69.1213C82.7501 69.5379 82.6664 73.0794 81.7875 73.4544C81.4527 73.6211 81.2434 73.1628 80.9086 73.2461C80.6156 73.2878 80.4901 73.6627 80.1134 73.7044C79.653 73.7461 79.5275 73.6211 79.4437 73.8711C81.1597 75.4126 81.5364 75.496 82.6664 76.9542C83.2105 77.6625 83.2105 78.4125 83.3779 78.5375C84.0475 79.1208 89.7394 82.4123 91.4973 83.2039C96.5195 85.4954 104.848 86.912 109.996 84.4122C113.093 82.9122 115.353 78.4541 111.838 76.2043C111.461 75.9543 110.038 75.496 110.038 75.496C115.562 74.9543 117.655 81.079 113.344 84.6205C107.778 89.2452 97.7751 87.8703 91.6228 85.0788C88.6513 83.7455 85.9727 81.579 83.5453 79.4541C83.5453 80.6624 83.2942 81.829 83.1268 82.7873C82.8756 84.0788 83.1268 85.2038 83.7127 86.787C86.0146 93.12 93.5899 100.703 99.7422 103.453C104.513 105.578 112.842 105.203 115.981 100.036C116.86 98.5364 117.362 95.1199 115.395 93.4533C113.135 91.5368 111.377 91.9118 109.787 92.1618C108.74 92.3284 107.025 93.12 106.899 92.9117C106.606 92.2867 109.578 91.0368 109.829 90.9535C115.688 88.8703 119.58 91.0368 119.371 97.4115C119.12 105.411 111.335 108.786 103.76 107.286C100.244 106.578 96.2266 103.369 96.0592 103.786C95.9755 104.036 100.454 107.619 105.057 108.953C110.498 110.536 113.846 109.244 116.692 106.536C115.311 110.827 110.498 114.244 106.564 116.119C97.9007 120.244 79.4019 121.952 71.2407 116.452C70.1944 115.744 69.3573 114.869 68.7295 113.577C67.8925 111.952 67.6832 110.119 67.4739 110.119C67.2647 110.119 67.181 110.369 67.0136 111.119C66.888 111.744 66.888 113.744 66.888 113.744C66.8043 113.827 66.3439 113.994 66.3439 113.994V110.911C65.465 111.369 65.5906 112.702 65.4232 113.369C64.9628 114.994 64.2095 116.827 62.6191 117.452C62.4935 117.494 62.1587 117.66 62.0331 117.244C61.8657 116.785 62.1587 113.452 62.1587 113.452C62.4098 113.786 62.8702 114.327 63.5817 113.661C64.0002 113.286 64.1257 112.411 64.5443 111.411C65.0047 110.286 65.5487 108.911 66.1347 107.911C67.3484 105.994 68.311 104.369 69.3155 102.786C70.2781 101.245 71.1151 99.7863 71.4918 98.2448C71.9522 96.2449 71.4918 94.9533 72.8311 92.995C73.9192 91.4118 77.3093 89.1202 77.3511 87.662C77.393 86.2037 77.0163 84.0372 76.3048 82.6623C76.1793 82.4539 76.2211 82.4123 76.0118 82.5789C75.4259 82.9539 73.5844 84.9121 72.5381 86.6204C71.5336 88.2036 69.3992 91.5368 68.8969 92.7867C68.7295 93.2034 68.6458 95.5782 68.5203 95.9949C67.5158 99.4114 65.8836 104.786 64.0002 107.661L64.4187 106.411C65.2976 103.536 66.888 99.9947 67.4739 98.0781C68.1436 96.0365 67.474 95.2449 67.3903 93.2867C67.3065 91.7868 67.3902 90.7868 67.5577 89.4119C67.5577 89.2036 67.6832 88.4119 67.6832 88.4119C67.6832 88.4119 54.4578 111.869 53.7045 113.202C53.6208 113.369 53.286 113.452 53.0349 113.369C52.5326 113.202 49.9378 112.077 49.9378 112.077C49.9378 112.369 49.7704 112.702 49.4774 112.994C49.2263 113.286 49.017 113.286 48.9752 113.369C48.8496 113.577 48.9333 113.952 48.8078 114.202C47.7196 116.66 44.9992 118.035 45.5433 114.036C45.7107 112.869 48.1381 108.286 48.8496 106.953C50.5656 103.578 52.5745 100.328 54.709 97.1615C51.8211 95.4116 49.603 92.7867 47.9289 89.8285C44.7062 84.0788 42.8647 74.7877 49.6867 70.6212C54.7927 67.4547 60.9868 69.7879 65.7998 71.8295C66.051 70.6212 66.5113 68.5797 66.2184 67.6214C65.8417 66.3715 64.1676 63.7049 63.5817 62.955C61.3216 60.1218 53.3697 58.5802 51.9467 55.2054C51.5282 54.2471 51.6537 53.8721 52.7419 53.1638C55.7553 51.2056 59.1453 52.6222 62.4098 51.1639C63.1631 50.8306 63.6654 50.289 64.1258 49.9973C64.3769 49.8307 64.4606 50.539 64.2513 50.789C64.0839 50.9556 63.6235 51.4556 63.6235 51.4556C65.6324 51.8306 65.1302 54.4138 64.2095 54.8304C63.3724 55.2054 62.1587 54.8721 61.4891 55.0387C61.3216 55.0804 61.4053 55.1637 61.2379 55.4137C61.0705 55.6637 61.0287 55.6637 60.652 55.7054C60.4846 55.7054 59.1872 55.5804 59.2709 55.997C61.5309 56.4553 64.7535 57.8302 66.2184 57.2053C66.9299 56.9136 68.0599 55.372 68.3529 54.6637C69.1899 52.5805 67.6832 51.0389 67.9343 49.039C68.3947 45.4976 72.3288 45.8726 74.7981 46.9558C76.7233 47.7891 75.4678 48.7891 75.4259 49.3724C75.3841 50.2473 75.5933 52.4139 75.5933 52.9555C75.5933 53.4971 75.0911 52.9972 74.9655 53.3305C74.6726 54.3304 74.6307 55.2054 74.1285 55.4137C73.5425 55.6637 72.2451 54.7471 72.287 55.9137C72.3288 58.1219 76.1374 58.1636 77.7697 59.1218C78.23 59.3718 78.8578 60.2468 79.0252 60.2468C79.7786 59.5802 81.3271 58.0802 80.6993 57.0803C80.4901 56.7053 79.8623 56.5803 79.9041 56.0387C79.9041 55.6637 80.6156 54.9137 80.6156 54.9137L81.2853 53.7471C81.4527 53.5388 82.499 54.0388 83.1268 53.3305C83.5871 52.8305 83.9638 51.3306 84.3823 50.6223C84.8846 49.7473 86.6842 47.5808 88.5257 46.0392C89.2791 45.3726 89.8232 44.706 90.1998 44.4143C91.2043 43.706 92.125 44.0393 93.6317 44.206C94.3432 44.2476 96.0173 44.1643 96.0592 44.2476C96.101 44.4143 95.2221 44.5393 95.1803 44.6643C95.1384 44.7893 96.2684 44.7893 96.687 44.581C96.8125 44.5393 96.8544 44.7893 96.5614 44.9559C96.2684 45.1226 95.4732 45.2476 95.4732 45.2892C95.4732 45.3726 96.2684 45.7059 96.6451 45.7892C96.8125 45.8309 97.3984 45.9142 97.3984 45.9142C97.4403 46.0809 97.3148 46.1225 96.8544 46.1225C96.3521 46.1225 95.1384 45.8309 95.1384 45.8309C96.0173 46.4975 96.2684 47.2058 96.0173 47.0808C95.6825 46.9142 95.3477 46.5392 95.0547 46.3309C94.3851 45.8726 93.7154 45.6226 93.2551 45.6226C92.2924 45.6226 93.3388 46.1642 93.9247 46.4142C94.2177 46.5392 94.2177 47.0392 94.0084 46.9558C93.7991 46.8725 93.6317 46.6225 93.4643 46.5808C92.5854 46.2892 91.6228 46.2892 91.0787 45.5392L86.2239 52.5389C86.5587 52.6222 87.6887 52.8722 88.4839 54.2888C88.8187 54.8721 88.6931 55.7887 88.6931 55.7887L88.6094 55.9553ZM78.6067 61.7467C76.3885 62.33 73.7937 62.705 73.0403 65.1632C72.4125 67.1214 72.6637 69.4546 73.0403 71.4545L74.1285 67.6631C74.6726 65.9965 75.3004 64.5799 76.3885 63.5383C77.1419 62.7883 77.8534 62.455 78.6486 61.7884L78.6067 61.7467ZM55.4623 96.2032C59.229 89.8285 62.3261 82.8289 64.6698 75.7876C67.0136 68.7463 65.758 72.9961 65.3395 72.7461C60.5683 71.8712 55.4204 70.5379 51.3189 73.9127C46.1292 78.2042 47.2174 84.5372 50.1052 89.8702C51.3608 92.2034 53.1604 94.8699 55.4623 96.2032ZM84.0057 32.4983L73.417 24.832L62.8283 32.4983L66.888 20.0823L56.2994 12.416H69.3992L73.4589 0L77.5185 12.416H90.6184L80.0297 20.0823L84.0894 32.4983H84.0057ZM59.815 13.5826L68.2273 19.6656L65.0047 29.4984L73.417 23.4154L81.8293 29.4984L78.6067 19.6656L87.019 13.5826H76.6396L73.417 3.7498L70.1944 13.5826H59.815ZM97.6914 47.4558C101.081 47.6225 105.811 47.7891 109.243 47.8724C111.168 42.2894 113.093 36.7064 114.976 31.1233H113.679C115.479 36.8314 117.32 42.5394 119.12 48.2474H119.706L137.158 48.2891L136.656 46.7475L122.552 56.997L122.05 57.3303C123.975 62.9966 125.816 68.7047 127.783 74.371L128.83 73.6211C125.272 71.1212 118.115 66.0798 114.558 63.6216L114.307 63.4549L114.056 63.6216L107.108 68.8713C104.806 70.6212 102.463 72.3711 100.203 74.1627C102.63 72.5378 105.016 70.9129 107.401 69.2463L114.558 64.2882H114.056L121.045 69.4963C122.175 70.3712 128.704 75.1627 129.709 75.9126C127.783 69.7046 125.816 63.5383 123.849 57.3719L123.556 58.2886L137.702 48.1224L139.879 46.5392H137.2L119.748 46.5808L120.543 47.1225C118.492 40.9978 116.441 34.8315 114.349 28.7068L113.721 30.665C111.963 36.2064 110.289 41.7061 108.573 47.2475L108.992 46.9558C105.727 47.0808 100.956 47.2058 97.7333 47.3725L97.6914 47.4558ZM55.2112 47.4558C50.147 47.2475 42.8647 47.1642 37.7587 46.9975L38.1772 47.2891C36.6287 42.1644 33.992 33.7065 32.4016 28.6235L31.732 30.665L26.2074 47.1641L27.0026 46.5808C21.1851 46.5808 15.3676 46.5392 9.55016 46.5808H6.91345L9.04793 48.1224C12.5635 50.664 19.6785 55.747 23.1941 58.2886L22.9011 57.4136C21.3107 62.3717 18.674 70.7879 17.1255 75.746L18.5903 74.6627C22.064 72.0795 29.0534 66.7881 32.4853 64.1632H32.1923C34.4942 65.7882 36.838 67.3714 39.1817 68.913C36.9217 67.1631 34.6198 65.4132 32.3179 63.6633C28.6767 66.1631 21.4781 71.1212 17.8369 73.7044L18.7577 74.371C20.1388 70.2879 22.9429 61.9967 24.3241 57.9136L24.4915 57.3719L24.0311 57.0386C20.5155 54.4554 13.4843 49.3307 9.96868 46.7475L9.46645 48.2891C15.2839 48.2891 21.1014 48.2891 26.9189 48.2891H27.5467L27.7141 47.7058L32.9875 31.165H31.6483C33.0294 35.2481 35.8754 43.5393 37.2983 47.6225L37.4239 47.9558H37.7587C42.8647 47.8308 50.1889 47.6641 55.2112 47.4975V47.4558ZM52.0723 34.1648L47.7196 30.9983L43.3669 34.1648L45.041 29.0818L40.6884 25.9153H46.0455L47.7196 20.8322L49.3937 25.9153H54.7508L50.3982 29.0818L52.0723 34.1648ZM103.593 34.1648L99.24 30.9983L94.8873 34.1648L96.5614 29.0818L92.2087 25.9153H97.5659L99.24 20.8322L100.914 25.9153H106.271L101.919 29.0818L103.593 34.1648ZM35.0383 92.1201L30.6856 88.9536L26.333 92.1201L28.0071 87.037L23.6544 83.8705H29.0115L30.6856 78.7875L32.3597 83.8705H37.7169L33.3642 87.037L35.0383 92.1201ZM42.8647 104.869L40.3954 103.078L37.9261 104.869L38.8887 101.953L36.4194 100.161H39.4747L40.4373 97.2448L41.3999 100.161H44.4551L41.9858 101.953L42.9484 104.869H42.8647Z" fill="url(#paint1_linear_1_559)"></path><path d="M41.9019 177.241C41.9019 173.449 44.3712 170.949 48.0961 170.949C51.821 170.949 50.7747 171.366 51.6954 172.074L51.3187 172.741C50.4817 172.116 49.4354 171.741 48.1798 171.741C45.6268 171.741 44.0783 173.949 44.0783 177.074C44.0783 180.199 45.6687 182.407 48.3472 182.407C51.0258 182.407 50.9839 181.74 51.6954 180.907L52.1139 181.449C51.1095 182.657 49.5609 183.282 47.7194 183.282C44.2875 183.282 41.9019 180.907 41.9019 177.199V177.241ZM56.6759 178.032L52.6999 171.158H55.0436L58.0151 176.491L58.2663 177.032L61.8237 171.158H62.7445L58.6848 177.782V183.115H56.634V178.032H56.6759ZM64.4186 171.158H68.2271C71.2405 171.158 72.8728 172.657 72.8728 174.782C72.8728 176.907 70.9894 178.532 68.1853 178.532H66.8041L66.5949 177.741H67.8923C69.6083 177.741 70.6964 176.741 70.6964 174.782C70.6964 172.824 69.5664 171.949 67.7668 171.949H66.4693V183.115H64.4186V171.158ZM81.2432 183.115L78.188 177.907H77.1836V177.282C77.1417 177.282 78.1043 177.282 78.1043 177.282C79.9877 177.282 80.9084 176.157 80.9084 174.616C80.9084 173.074 79.9877 171.949 78.0625 171.949H76.6395V183.115H74.5887V171.158H78.5228C81.4525 171.158 83.0848 172.574 83.0848 174.574C83.0848 176.574 81.9547 177.407 80.0295 177.782L83.6707 183.115H81.2432ZM85.3029 179.032V171.158H87.3537V179.115C87.3537 181.24 88.5256 182.449 90.4926 182.449C92.4597 182.449 93.7571 181.115 93.7571 178.949V171.199H94.5523V178.824C94.5523 181.615 93.0457 183.324 89.9904 183.324C86.9352 183.324 85.2611 181.74 85.2611 179.032H85.3029ZM96.3101 181.949L96.6868 181.282C97.6494 181.907 99.0724 182.532 100.454 182.532C101.835 182.532 103.007 181.74 103.007 180.49C103.007 179.24 101.918 178.615 100.161 177.782C98.4028 176.949 96.6868 175.991 96.6868 174.116C96.6868 172.241 98.3609 171.033 100.788 171.033C103.216 171.033 103.383 171.491 104.346 172.157L103.969 172.824C103.048 172.157 101.96 171.824 100.705 171.824C99.4491 171.824 98.4865 172.532 98.4865 173.574C98.4865 174.616 99.8676 175.407 101.374 176.116C103.425 177.074 104.806 178.074 104.806 179.949C104.806 181.824 102.965 183.324 100.412 183.324C97.8587 183.324 97.482 182.74 96.2683 181.949H96.3101Z" fill="#D19661"></path><defs><linearGradient id="paint0_linear_1_559" x1="93.3807" y1="186.157" x2="51.1036" y2="112.58" gradientUnits="userSpaceOnUse"><stop stop-color="#E4AF78"></stop><stop offset="0.2" stop-color="#DC9A72"></stop><stop offset="0.6" stop-color="#BE6D2B"></stop><stop offset="1" stop-color="#EABE81"></stop></linearGradient><linearGradient id="paint1_linear_1_559" x1="109.368" y1="114.661" x2="50.8786" y2="12.9379" gradientUnits="userSpaceOnUse"><stop stop-color="#E4AF78"></stop><stop offset="0.2" stop-color="#DC9A72"></stop><stop offset="0.6" stop-color="#BE6D2B"></stop><stop offset="1" stop-color="#EABE81"></stop></linearGradient></defs></svg> 