<?xml version="1.0" encoding="UTF-8"?> <svg xmlns="http://www.w3.org/2000/svg" width="64" height="71" viewBox="0 0 64 71" fill="none"><path d="M5.56 70.52C4.56 70.52 3.67999 70.36 2.83999 70.08C1.99999 69.8 1.35999 69.36 0.83999 68.8C0.31999 68.24 0.04 67.52 0 66.68C0 66.32 -2.44379e-06 65.96 0.159998 65.56C0.279998 65.16 0.479995 64.72 0.719995 64.32C0.959995 63.92 1.24 63.56 1.56 63.2C1.88 62.88 2.24 62.64 2.6 62.44C2.6 62.44 2.68 62.44 2.76 62.4C2.84 62.4 2.88 62.4 2.92 62.4C3 62.4 3 62.4 3 62.44C3 62.48 2.92 62.56 2.76 62.68C2.32 63 2 63.4 1.72 63.84C1.44 64.28 1.23999 64.72 1.07999 65.24C0.919993 65.72 0.879993 66.24 0.879993 66.72C0.879993 67.2 0.999993 67.84 1.27999 68.24C1.51999 68.68 1.88 69.04 2.32 69.28C2.76 69.56 3.24 69.76 3.8 69.88C4.36 70 4.92 70.08 5.52 70.08C6.12 70.08 6.88 70 7.52 69.84C8.16 69.68 8.8 69.48 9.31999 69.2C10.16 68.76 10.8 68.2 11.32 67.56C11.8 66.92 12.04 66.24 12.04 65.6C12.04 64.96 11.96 64.92 11.84 64.6C11.68 64.28 11.48 64 11.12 63.76C10.88 63.56 10.6 63.4 10.24 63.2C9.87999 63.04 9.52 62.88 9.12 62.72C8.72 62.56 8.36 62.4 8 62.24C7.64 62.08 7.32 61.88 7 61.72C6.6 61.44 6.32 61.16 6.12 60.84C5.92 60.52 5.83999 60.2 5.83999 59.92C5.83999 59.64 5.96 59.2 6.16 58.84C6.36 58.48 6.67999 58.16 7.03999 57.88C7.39999 57.6 7.84 57.36 8.31999 57.2C8.72 57.04 9.19999 56.96 9.67999 56.88C10.16 56.8 10.64 56.76 11.12 56.76C11.6 56.76 11.88 56.76 12.24 56.84C12.6 56.88 12.92 57 13.2 57.12C13.56 57.28 13.8 57.48 14 57.76C14.2 58.04 14.28 58.32 14.28 58.6C14.28 58.88 14.08 59.36 13.72 59.64C13.6 59.76 13.44 59.84 13.28 59.92C13.12 60 12.92 60.08 12.72 60.12C12.68 60.12 12.64 60.12 12.6 60.12C12.48 60.12 12.4 60.12 12.4 60C12.4 59.88 12.4 59.92 12.48 59.88C12.56 59.84 12.64 59.8 12.76 59.8C13.08 59.76 13.28 59.64 13.44 59.44C13.6 59.24 13.68 59.04 13.68 58.76C13.68 58.48 13.6 58.24 13.4 58C13.24 57.76 12.96 57.52 12.6 57.36C12.24 57.2 11.76 57.08 11.2 57.08C10.64 57.08 10.52 57.08 10.12 57.2C9.72 57.28 9.31999 57.4 8.83999 57.56C8.27999 57.76 7.83999 58.04 7.43999 58.4C7.07999 58.76 6.87999 59.16 6.87999 59.6C6.87999 60.04 6.96 60.12 7.16 60.4C7.32 60.68 7.64 60.92 8 61.16C8.32 61.36 8.72 61.56 9.12 61.76C9.56 61.96 9.96 62.16 10.4 62.36C10.84 62.56 11.24 62.76 11.56 63C12.12 63.36 12.52 63.72 12.76 64.12C13 64.52 13.12 64.92 13.12 65.32C13.12 65.72 12.96 66.28 12.68 66.76C12.4 67.24 12 67.72 11.56 68.12C11.08 68.56 10.6 68.92 10.04 69.24C9.39999 69.64 8.67999 69.92 7.83999 70.12C7.03999 70.32 6.2 70.44 5.4 70.44L5.56 70.52ZM17.44 61.16C17.32 61.36 17.16 61.6 17 61.88C16.84 62.16 16.68 62.44 16.56 62.72C16.44 63 16.32 63.2 16.24 63.32H17.64C17.64 63.36 17.64 63.44 17.6 63.52C17.6 63.6 17.48 63.68 17.4 63.72H16.08C15.96 64 15.84 64.32 15.68 64.72C15.52 65.12 15.36 65.52 15.24 65.92C15.08 66.32 14.96 66.72 14.88 67.08C14.8 67.44 14.72 67.72 14.72 67.96C14.72 68.2 14.76 68.48 14.84 68.64C14.92 68.8 15.08 68.84 15.28 68.84C15.48 68.84 15.8 68.72 16.08 68.44C16.32 68.16 16.56 67.84 16.8 67.44C17.04 67.04 17.24 66.64 17.4 66.24C17.52 66.24 17.6 66.28 17.6 66.36C17.48 66.64 17.36 66.92 17.2 67.24C17.04 67.56 16.84 67.88 16.64 68.16C16.44 68.44 16.2 68.68 15.96 68.88C15.72 69.08 15.4 69.16 15.12 69.16C14.84 69.16 14.4 69.04 14.24 68.8C14.08 68.56 14 68.24 14 67.88C14 67.52 14.04 67.28 14.16 66.88C14.28 66.48 14.4 66.08 14.52 65.68C14.68 65.28 14.8 64.88 14.96 64.52C15.12 64.16 15.2 63.88 15.28 63.68H14.32C14.32 63.6 14.32 63.52 14.44 63.44C14.52 63.36 14.6 63.32 14.68 63.32H15.48C15.56 63.16 15.64 62.96 15.76 62.72C15.88 62.48 16 62.2 16.2 61.92C16.36 61.68 16.56 61.48 16.8 61.36C17.04 61.2 17.28 61.16 17.56 61.16H17.44ZM20.6 69.16C20.36 69.16 20.16 69.08 20 68.96C19.84 68.84 19.72 68.56 19.72 68.16C19.72 67.76 19.72 67.84 19.72 67.68C19.72 67.52 19.76 67.36 19.8 67.2C19.72 67.36 19.6 67.52 19.44 67.76C19.28 68 19.12 68.2 18.92 68.4C18.72 68.6 18.52 68.8 18.32 68.92C18.12 69.08 17.92 69.12 17.72 69.12C17.44 69.12 17.24 69 17.08 68.76C16.92 68.52 16.84 68.2 16.84 67.84C16.84 67.48 16.92 67 17.12 66.52C17.32 66.04 17.56 65.6 17.92 65.16C18.24 64.72 18.64 64.36 19.08 64.12C19.52 63.84 19.96 63.72 20.44 63.72C20.92 63.72 20.88 63.72 21.12 63.84C21.32 63.92 21.52 64.04 21.68 64.2C21.76 64.28 21.8 64.36 21.8 64.44C21.8 64.52 21.8 64.56 21.72 64.6C21.68 64.64 21.6 64.64 21.52 64.6C21.4 64.24 21.16 64.08 20.8 64.08C20.44 64.08 20.44 64.12 20.2 64.24C19.92 64.4 19.64 64.6 19.32 64.92C19 65.24 18.72 65.56 18.44 65.96C18.16 66.36 17.96 66.72 17.8 67.12C17.64 67.52 17.56 67.88 17.56 68.2C17.56 68.52 17.68 68.68 17.92 68.68C18.16 68.68 18.36 68.56 18.6 68.36C18.84 68.16 19.08 67.88 19.28 67.56C19.48 67.24 19.68 66.92 19.88 66.6C20.08 66.28 20.2 66.04 20.32 65.84C20.48 65.56 20.6 65.36 20.76 65.16C20.88 64.96 21.08 64.88 21.32 64.88C21.56 64.88 21.56 64.88 21.64 64.92C21.76 64.92 21.88 64.92 22 64.92C21.68 65.24 21.44 65.56 21.2 66C20.96 66.4 20.8 66.8 20.68 67.2C20.56 67.6 20.48 67.92 20.48 68.2C20.48 68.48 20.6 68.64 20.8 68.64C21 68.64 21.12 68.56 21.32 68.36C21.52 68.16 21.68 67.96 21.88 67.68C22.04 67.4 22.2 67.12 22.36 66.84C22.52 66.56 22.64 66.32 22.72 66.08C22.76 66.08 22.8 66.08 22.84 66.08C22.84 66.08 22.88 66.12 22.88 66.2C22.88 66.24 22.88 66.28 22.84 66.32C22.84 66.36 22.76 66.44 22.72 66.56C22.64 66.72 22.52 66.92 22.4 67.2C22.24 67.48 22.08 67.76 21.92 68.04C21.72 68.32 21.52 68.56 21.32 68.76C21.08 68.96 20.88 69.04 20.64 69.04L20.6 69.16ZM22.76 66.16C22.84 66 22.96 65.72 23.08 65.32C23.2 64.96 23.36 64.52 23.48 64.04C23.64 63.56 23.72 63.12 23.8 62.72C23.8 62.56 23.88 62.44 23.96 62.36C24.04 62.28 24.12 62.24 24.2 62.24C24.32 62.24 24.44 62.32 24.56 62.44C24.68 62.56 24.72 62.76 24.72 62.96C24.72 63.16 24.64 63.48 24.48 63.68C24.32 63.88 24.12 64.08 23.88 64.24C24 64.24 24.08 64.24 24.2 64.24C24.32 64.24 24.44 64.24 24.56 64.24C25.04 64.24 25.52 64.24 25.96 64.16C25.96 64.24 25.96 64.28 25.96 64.28C25.96 64.4 25.96 64.56 25.84 64.76C25.76 64.96 25.68 65.16 25.6 65.32C25.56 65.4 25.48 65.56 25.36 65.8C25.24 66.04 25.12 66.32 24.96 66.6C24.8 66.88 24.72 67.2 24.6 67.48C24.52 67.76 24.44 68 24.44 68.2C24.44 68.4 24.56 68.6 24.76 68.6C24.96 68.6 25.2 68.36 25.56 67.92C25.92 67.48 26.24 66.84 26.6 66.08C26.72 66.08 26.8 66.12 26.8 66.2C26.68 66.48 26.56 66.76 26.4 67.08C26.24 67.4 26.04 67.72 25.84 68C25.64 68.28 25.44 68.52 25.2 68.72C24.96 68.92 24.72 69 24.48 69C24.24 69 24.08 68.92 23.92 68.76C23.72 68.6 23.64 68.36 23.64 68C23.64 67.64 23.72 67.4 23.84 67.08C23.96 66.8 24.08 66.52 24.24 66.24C24.4 65.96 24.52 65.76 24.64 65.56C24.76 65.36 24.84 65.2 24.84 65.08C24.84 64.88 24.72 64.76 24.52 64.68C24.28 64.6 24 64.56 23.64 64.56C23.44 65.04 23.32 65.36 23.24 65.6C23.16 65.84 23.08 66.04 23 66.24C22.84 66.24 22.8 66.16 22.84 66.04L22.76 66.16ZM31.32 69.76C30.92 69.76 30.52 69.68 30.16 69.56C29.8 69.44 29.48 69.24 29.24 69C29 68.76 28.88 68.44 28.88 68.08C28.88 67.72 29.04 67.36 29.36 67.08C29.68 66.76 30.16 66.64 30.76 66.64C31.36 66.64 32 66.8 32.56 67.08C33.12 67.36 33.72 67.68 34.36 68C34.88 67.48 35.36 66.88 35.8 66.2C36.2 65.52 36.64 64.8 37 64.04C37.36 63.28 37.8 62.52 38.2 61.8C38.6 61.04 39.08 60.36 39.6 59.72C39.68 59.6 39.8 59.48 39.88 59.4C39.96 59.28 40.08 59.16 40.16 59.08C39.6 58.76 39.04 58.52 38.4 58.32C37.76 58.16 37.12 58.04 36.48 58.04C35.84 58.04 34.88 58.16 34.2 58.36C33.48 58.56 32.88 58.84 32.36 59.2C31.84 59.56 31.44 59.96 31.16 60.4C30.88 60.84 30.72 61.32 30.72 61.8C30.72 62.28 30.8 62.56 31 62.84C31.16 63.12 31.4 63.32 31.68 63.44C31.96 63.56 32.2 63.64 32.48 63.64C32.76 63.64 33.12 63.56 33.4 63.44C33.64 63.32 33.84 63.12 34 62.92C34.16 62.72 34.28 62.52 34.36 62.32C34.44 62.12 34.48 61.96 34.48 61.84C34.48 61.76 34.52 61.72 34.6 61.72C34.76 61.72 34.8 61.8 34.76 61.96C34.72 62.36 34.56 62.72 34.32 63C34.08 63.28 33.76 63.52 33.4 63.68C33.04 63.84 32.68 63.92 32.32 63.92C31.96 63.92 31.48 63.84 31.12 63.68C30.76 63.52 30.48 63.28 30.24 62.92C30.04 62.6 29.92 62.16 29.92 61.68C29.92 61.2 30.08 60.44 30.44 59.92C30.8 59.4 31.28 58.96 31.88 58.6C32.48 58.24 33.2 57.96 34 57.76C34.8 57.56 35.64 57.48 36.52 57.48C37.4 57.48 37.88 57.56 38.6 57.72C39.28 57.88 39.96 58.12 40.56 58.48C40.84 58.2 41.08 57.92 41.36 57.72C41.64 57.48 41.92 57.32 42.2 57.2C42.32 57.16 42.44 57.12 42.52 57.12C42.6 57.12 42.6 57.12 42.6 57.16C42.6 57.2 42.48 57.32 42.24 57.52C42.12 57.64 41.96 57.84 41.76 58.08C41.56 58.32 41.4 58.6 41.2 58.88C41.8 59.28 42.32 59.76 42.8 60.32C43.28 60.88 43.64 61.52 43.92 62.24C44.2 62.96 44.32 63.72 44.32 64.6C44.32 65.48 44.16 66.2 43.88 66.8C43.6 67.44 43.2 67.96 42.68 68.36C42.16 68.76 41.6 69.08 40.96 69.28C40.32 69.48 39.6 69.6 38.88 69.6C38.16 69.6 37.24 69.48 36.52 69.24C35.8 69 35.12 68.76 34.48 68.44C34 68.84 33.48 69.12 32.96 69.32C32.44 69.52 31.88 69.64 31.28 69.64L31.32 69.76ZM31.32 69.28C31.84 69.28 32.32 69.2 32.84 69C33.36 68.8 33.72 68.56 34.04 68.28C33.44 68 32.88 67.72 32.36 67.48C31.84 67.24 31.4 67.12 30.96 67.12C30.52 67.12 30.32 67.24 30.16 67.44C29.96 67.64 29.88 67.88 29.88 68.12C29.88 68.36 30 68.72 30.28 68.92C30.52 69.12 30.88 69.24 31.36 69.28H31.32ZM40.2 60.6C40 60.92 39.72 61.36 39.44 61.88C39.12 62.4 38.8 62.92 38.44 63.52C38.08 64.12 37.68 64.72 37.28 65.32C36.88 65.92 36.48 66.48 36.08 67C35.68 67.52 35.28 67.96 34.88 68.32C35.4 68.6 36 68.8 36.64 69C37.28 69.2 38 69.28 38.84 69.28C39.68 69.28 40.56 69.08 41.24 68.68C41.92 68.28 42.44 67.76 42.84 67.08C43.24 66.4 43.4 65.64 43.4 64.8C43.4 63.96 43.16 62.72 42.72 61.8C42.24 60.88 41.64 60.16 40.88 59.56C40.76 59.76 40.64 59.96 40.52 60.16C40.4 60.36 40.32 60.48 40.24 60.64L40.2 60.6ZM48.56 69.16C48.32 69.16 48.12 69.08 47.96 68.96C47.8 68.84 47.68 68.56 47.68 68.16C47.68 67.76 47.68 67.84 47.68 67.68C47.68 67.52 47.72 67.36 47.76 67.2C47.68 67.36 47.56 67.52 47.4 67.76C47.24 68 47.08 68.2 46.88 68.4C46.68 68.6 46.48 68.8 46.28 68.92C46.08 69.08 45.88 69.12 45.68 69.12C45.4 69.12 45.2 69 45.04 68.76C44.88 68.52 44.8 68.2 44.8 67.84C44.8 67.48 44.88 67 45.08 66.52C45.28 66.04 45.52 65.6 45.88 65.16C46.2 64.72 46.6 64.36 47.04 64.12C47.48 63.84 47.92 63.72 48.4 63.72C48.88 63.72 48.84 63.72 49.08 63.84C49.28 63.92 49.48 64.04 49.64 64.2C49.72 64.28 49.76 64.36 49.76 64.44C49.76 64.52 49.76 64.56 49.68 64.6C49.64 64.64 49.56 64.64 49.48 64.6C49.36 64.24 49.12 64.08 48.76 64.08C48.4 64.08 48.4 64.12 48.16 64.24C47.88 64.4 47.6 64.6 47.28 64.92C46.96 65.24 46.68 65.56 46.4 65.96C46.12 66.36 45.92 66.72 45.76 67.12C45.6 67.52 45.52 67.88 45.52 68.2C45.52 68.52 45.64 68.68 45.88 68.68C46.12 68.68 46.32 68.56 46.56 68.36C46.8 68.16 47.04 67.88 47.24 67.56C47.44 67.24 47.64 66.92 47.84 66.6C48.04 66.28 48.16 66.04 48.28 65.84C48.44 65.56 48.56 65.36 48.72 65.16C48.84 64.96 49.04 64.88 49.28 64.88C49.52 64.88 49.52 64.88 49.6 64.92C49.68 64.96 49.84 64.92 49.96 64.92C49.64 65.24 49.4 65.56 49.16 66C48.92 66.4 48.76 66.8 48.64 67.2C48.52 67.6 48.44 67.92 48.44 68.2C48.44 68.48 48.56 68.64 48.76 68.64C48.96 68.64 49.08 68.56 49.28 68.36C49.48 68.16 49.64 67.96 49.84 67.68C50 67.4 50.16 67.12 50.32 66.84C50.48 66.56 50.6 66.32 50.68 66.08C50.72 66.08 50.76 66.08 50.8 66.08C50.8 66.08 50.84 66.12 50.84 66.2C50.84 66.24 50.84 66.28 50.8 66.32C50.76 66.36 50.72 66.44 50.68 66.56C50.6 66.72 50.48 66.92 50.36 67.2C50.2 67.48 50.04 67.76 49.88 68.04C49.68 68.32 49.48 68.56 49.28 68.76C49.04 68.96 48.84 69.04 48.6 69.04L48.56 69.16ZM49.24 69.24C49.6 68.52 49.96 67.76 50.28 67.04C50.6 66.32 50.96 65.64 51.32 64.96C51.52 64.6 51.68 64.36 51.84 64.2C52 64.04 52.16 64 52.4 64C52.64 64 52.56 64 52.64 64C52.72 64 52.84 64 52.92 64C53 64 53.04 64 53.04 64C52.88 64.08 52.72 64.28 52.48 64.6C52.24 64.92 52.04 65.28 51.8 65.68C51.56 66.08 51.36 66.48 51.2 66.84C51.4 66.6 51.6 66.36 51.8 66.16C52 65.92 52.24 65.72 52.48 65.48C52.72 65.28 53 65.04 53.36 64.84C53.68 64.6 54.04 64.44 54.36 64.28C54.68 64.12 54.92 64.04 55.12 64.04C55.32 64.04 55.24 64.04 55.28 64.04C55.04 64.44 54.88 64.8 54.68 65.12C54.52 65.44 54.36 65.76 54.16 66.12C54 66.48 53.84 66.8 53.68 67.16C53.56 67.48 53.44 67.76 53.4 68C53.4 68.12 53.36 68.24 53.36 68.36C53.36 68.52 53.36 68.64 53.44 68.68C53.52 68.72 53.56 68.76 53.64 68.76C53.84 68.76 54.04 68.68 54.24 68.52C54.44 68.36 54.64 68.12 54.84 67.88C55.04 67.6 55.2 67.32 55.36 67.04C55.52 66.72 55.64 66.44 55.76 66.2C55.88 66.2 55.96 66.24 55.96 66.32C55.84 66.6 55.72 66.88 55.56 67.2C55.4 67.52 55.2 67.84 55 68.12C54.8 68.4 54.56 68.64 54.32 68.84C54.08 69.04 53.8 69.12 53.52 69.12C53.24 69.12 53.12 69.04 52.88 68.92C52.68 68.76 52.56 68.52 52.56 68.12C52.56 67.72 52.56 67.88 52.56 67.76C52.56 67.64 52.6 67.48 52.68 67.36C52.76 67.16 52.84 66.96 52.96 66.72C53.08 66.48 53.24 66.16 53.52 65.76C53.6 65.64 53.64 65.56 53.64 65.52C53.64 65.48 53.64 65.4 53.64 65.36C53.64 65.24 53.6 65.16 53.48 65.16C53.36 65.16 53.24 65.2 53.08 65.32C52.92 65.44 52.68 65.6 52.44 65.84C52.2 66.08 51.88 66.44 51.56 66.88C51.2 67.32 50.8 67.96 50.36 68.84C50.28 68.96 50.2 69.04 50.12 69.04C50.04 69.04 49.92 69.04 49.76 69.04C49.64 69.04 49.56 69.04 49.48 69.04C49.4 69.04 49.32 69.04 49.24 69.12V69.24ZM57.08 69.16C56.52 69.16 56.12 69 55.84 68.72C55.56 68.44 55.44 68.04 55.44 67.56C55.44 67.08 55.48 67.08 55.56 66.76C55.64 66.44 55.76 66.16 55.92 65.84C56.08 65.52 56.24 65.24 56.4 65C56.68 64.6 57 64.32 57.36 64.08C57.72 63.88 58.08 63.76 58.44 63.76C58.8 63.76 59.08 63.84 59.28 64C59.44 64.16 59.52 64.36 59.52 64.6C59.52 64.84 59.48 65 59.36 65.16C59.24 65.32 59.16 65.44 59.04 65.56C58.92 65.68 58.8 65.72 58.72 65.72C58.64 65.72 58.56 65.72 58.52 65.64C58.6 65.52 58.68 65.4 58.76 65.28C58.84 65.12 58.92 65 58.96 64.88C59 64.76 59.04 64.64 59.04 64.52C59.04 64.24 58.92 64.12 58.68 64.12C58.44 64.12 58.12 64.24 57.84 64.48C57.56 64.72 57.32 65.04 57.08 65.4C56.84 65.76 56.68 66.16 56.52 66.6C56.4 67 56.32 67.4 56.32 67.76C56.32 68.12 56.4 68.36 56.52 68.56C56.64 68.76 56.88 68.88 57.2 68.88C57.52 68.88 57.96 68.76 58.28 68.48C58.6 68.2 58.88 67.88 59.12 67.48C59.36 67.08 59.56 66.64 59.76 66.24C59.8 66.24 59.84 66.24 59.88 66.24C59.92 66.24 59.96 66.28 59.96 66.36C59.76 66.88 59.52 67.32 59.24 67.76C58.96 68.2 58.64 68.56 58.32 68.8C57.96 69.08 57.56 69.2 57.12 69.2L57.08 69.16ZM60.84 69.16C60.48 69.16 60.12 69.04 59.84 68.8C59.56 68.56 59.4 68.2 59.4 67.68C59.4 67.16 59.48 66.84 59.68 66.36C59.88 65.88 60.12 65.48 60.4 65.04C60.72 64.64 61.04 64.32 61.44 64.04C61.8 63.8 62.2 63.64 62.56 63.64C62.92 63.64 62.92 63.68 63.12 63.8C63.32 63.92 63.4 64.12 63.4 64.36C63.4 64.6 63.32 64.88 63.12 65.2C62.92 65.52 62.64 65.8 62.32 66.04C62.16 66.16 61.96 66.24 61.76 66.36C61.52 66.48 61.28 66.56 61.08 66.6C60.84 66.68 60.64 66.68 60.52 66.68C60.48 66.8 60.44 66.96 60.36 67.16C60.32 67.36 60.28 67.56 60.28 67.76C60.28 67.96 60.32 68.24 60.44 68.44C60.56 68.64 60.72 68.76 61 68.76C61.28 68.76 61.64 68.68 61.92 68.48C62.2 68.28 62.48 68.04 62.68 67.76C62.92 67.48 63.12 67.16 63.28 66.88C63.44 66.56 63.56 66.32 63.64 66.12C63.76 66.12 63.84 66.16 63.84 66.24C63.72 66.52 63.56 66.84 63.4 67.16C63.24 67.48 63.04 67.8 62.8 68.08C62.56 68.36 62.32 68.6 62 68.8C61.68 69 61.32 69.08 60.88 69.08L60.84 69.16ZM60.56 66.52C60.72 66.52 60.92 66.48 61.28 66.36C61.6 66.24 61.92 66.08 62.2 65.84C62.48 65.6 62.68 65.36 62.8 65.08C62.96 64.8 63 64.56 63 64.36C63 64.16 62.92 64.04 62.76 64.04C62.6 64.04 62.48 64.12 62.28 64.28C62.08 64.44 61.8 64.72 61.48 65.08C61.28 65.32 61.12 65.6 60.92 65.88C60.76 66.16 60.64 66.36 60.56 66.48V66.52Z" fill="url(#paint0_linear_1_41)"></path><path d="M38.6801 24.32C39.2401 24.16 39.7201 24.68 39.3201 25.72C39.2001 26.04 38.7201 26.2 38.2801 26.12C37.8401 26.04 37.9601 25.88 37.9601 25.88C37.9601 25.88 38.3201 25.92 38.4001 25.88C38.4801 25.84 38.4801 25.72 38.5201 25.72C38.8801 25.72 39.2401 25.4 38.9201 25C38.9201 25 39.0801 24.92 39.0801 24.88C39.2001 24.6 38.8001 24.44 38.5201 24.48C38.2401 24.52 38.6801 24.32 38.6801 24.32ZM38.5601 24.4C38.4801 24.36 38.4001 24.32 38.2801 24.32C38.2001 24.32 38.0801 24.4 38.0801 24.44C38.0801 24.48 38.0801 24.64 38.0401 24.68C38.0001 24.72 37.8801 24.76 37.7601 24.88C37.6401 25 37.6401 25.12 37.6401 25.24C37.6401 25.76 37.9601 25.72 37.9201 25.84C37.8801 25.96 37.4801 26.12 37.2401 26.12C37.0001 26.12 36.7601 26.04 36.6401 26.12C36.4001 26.24 36.0801 27.04 36.4401 27.28C37.2001 27.2 37.4401 27.44 38.1601 27.48C38.5201 27.48 40.0401 27.2 40.3201 27C40.6001 26.8 40.4801 26.8 40.5201 26.64C40.6801 26.12 41.1201 24.96 41.0801 24.76C41.0401 24.56 41.0001 24.6 40.8801 24.44C40.7601 24.28 40.6801 24.16 40.6001 24C40.4401 23.72 40.2801 23.52 40.2001 23.44C40.0001 23.24 39.8401 23.2 39.8401 23.16C39.8401 23.08 40.0801 23.16 40.0401 23.16C39.9201 23.08 39.7601 23.08 39.8001 23C39.8401 22.92 39.9601 22.96 40.2801 23.08C40.4001 23.08 40.6801 23.32 40.6801 23.32C40.7601 23.12 40.0401 22.64 40.0801 22.56C40.1201 22.48 40.9201 23.08 40.9201 23.08C40.9201 23.08 41.2801 22.16 41.3601 22.2C41.5201 22.28 40.9601 23.08 41.1201 23.52C41.1601 23.72 41.3201 23.8 41.6001 24.24C41.8801 24.68 41.7201 24.88 41.7201 24.88C42.4001 24.16 42.6001 23.64 42.6001 22.68C42.6001 22.24 42.4001 21.72 42.4401 21.76C43.1201 23.16 43.1601 23.96 42.5201 24.88C42.2801 25.2 41.6801 25.56 41.6801 25.56C41.6001 26.08 41.5601 27.52 41.0801 27.92C40.8801 28.08 39.6001 28.4 38.9201 28.56C37.6401 28.84 35.6801 28.76 35.1601 30.2C36.0801 30.36 36.0401 31.92 35.6801 32.08C35.5201 32.16 35.4401 31.96 35.2801 32C35.1201 32.04 35.1201 32.2 34.9201 32.2C34.7201 32.2 34.6801 32.2 34.6401 32.28C35.4001 32.96 35.5601 33 36.0401 33.64C36.2801 33.96 36.2801 34.28 36.3601 34.32C36.6401 34.6 39.1201 36 39.8801 36.36C42.0801 37.36 45.6801 37.96 47.9201 36.88C49.2801 36.24 50.2401 34.28 48.7201 33.28C48.5601 33.16 47.9201 32.96 47.9201 32.96C50.3201 32.72 51.2401 35.4 49.3601 36.96C46.9601 38.96 42.6001 38.4 39.9201 37.16C37.2401 35.92 37.4401 35.64 36.4001 34.72C36.4001 35.24 36.2801 35.76 36.2001 36.16C36.0801 36.72 36.2001 37.2 36.4801 37.92C37.4801 40.68 40.7601 44 43.4401 45.2C45.5201 46.12 49.1201 45.96 50.4801 43.72C50.8801 43.08 51.0801 41.6 50.2001 40.84C49.2001 40 48.4401 40.16 47.7601 40.28C47.3201 40.36 46.5601 40.72 46.5201 40.6C46.4001 40.32 47.6801 39.8 47.8001 39.72C50.3601 38.8 52.0401 39.72 51.9601 42.52C51.8401 46 48.4801 47.48 45.1601 46.84C43.6401 46.52 41.8801 45.12 41.8001 45.32C41.7201 45.52 43.7201 47 45.7201 47.6C48.0801 48.28 49.5201 47.72 50.7601 46.56C50.1601 48.44 48.0801 49.92 46.3601 50.76C42.6001 52.56 34.5601 53.32 31.0001 50.92C30.5201 50.6 30.2001 50.24 29.9201 49.68C29.6401 49.12 29.4801 48.16 29.3601 48.16C29.2401 48.16 29.2401 48.28 29.1601 48.6C29.0801 48.92 29.1201 49.76 29.1201 49.76L28.8801 49.88V48.52C28.5201 48.72 28.5601 49.32 28.4801 49.6C28.2801 50.32 27.9601 51.12 27.2801 51.4C27.2001 51.4 27.0801 51.48 27.0401 51.32C27.0001 51.16 27.0801 49.68 27.0801 49.68C27.2001 49.84 27.4001 50.08 27.6801 49.76C27.9601 49.44 27.9201 49.24 28.0801 48.8C28.2801 48.32 28.5201 47.72 28.7601 47.28C29.2801 46.44 29.7201 45.72 30.1201 45.04C30.5201 44.36 30.9201 43.72 31.0801 43.04C31.2801 42.16 31.0801 41.6 31.6801 40.76C32.1601 40.08 33.6401 39.08 33.6401 38.44C33.6401 37.96 33.4801 36.88 33.2001 36.28C32.9201 35.68 33.1601 36.16 33.0801 36.28C32.8401 36.44 32.0401 37.28 31.5601 38.04C31.1201 38.72 30.2001 40.2 29.9601 40.72C29.8801 40.92 29.8401 41.92 29.8001 42.12C29.3601 43.6 28.6401 45.96 27.8401 47.2L28.0401 46.64C28.4401 45.4 29.1201 43.84 29.3601 43C29.6401 42.12 29.3601 41.76 29.3601 40.92C29.3601 40.08 29.3601 39.84 29.4401 39.24C29.4401 39.16 29.4801 38.8 29.4801 38.8C29.4801 38.8 23.7201 49.04 23.4001 49.64C23.0801 50.24 23.2001 49.76 23.1201 49.72C22.8801 49.64 21.7601 49.16 21.7601 49.16C21.7601 49.28 21.6801 49.44 21.5601 49.56C21.4401 49.68 21.3601 49.68 21.3201 49.72C21.2801 49.8 21.3201 49.96 21.2401 50.08C20.7601 51.16 19.6001 51.76 19.8401 50C19.9201 49.48 20.9601 47.48 21.2801 46.92C22.0401 45.44 22.8801 44.04 23.8401 42.64C22.6001 41.88 21.6001 40.72 20.9201 39.44C19.5201 36.92 18.7201 32.88 21.6801 31.04C23.8801 29.68 26.6001 30.68 28.6801 31.56C28.8001 31.04 29.0001 30.12 28.8801 29.72C28.7601 29.32 28.0001 28 27.7201 27.68C26.7601 26.44 23.2801 25.76 22.6801 24.32C22.5201 23.88 22.5601 23.72 23.0401 23.44C24.3601 22.56 25.8001 23.2 27.2401 22.56C27.5601 22.4 27.8001 22.16 28.0001 22.04C28.1201 21.96 28.1601 22.28 28.0401 22.4C27.9201 22.52 27.7601 22.68 27.7601 22.68C28.6401 22.84 28.4001 23.96 28.0001 24.16C27.6401 24.32 27.1201 24.16 26.8001 24.24C26.4801 24.32 26.7601 24.32 26.6801 24.4C26.6001 24.48 26.6001 24.52 26.4401 24.52C26.2801 24.52 25.8001 24.48 25.8401 24.64C26.8001 24.84 28.2001 25.44 28.8801 25.16C29.2001 25.04 29.6801 24.36 29.8001 24.04C30.1601 23.12 29.5201 22.44 29.6401 21.56C29.8401 20 31.5601 20.2 32.6401 20.64C33.4801 21 32.9201 21.44 32.9201 21.72C32.9201 22.12 33.0001 23.04 33.0001 23.28C33.0001 23.52 32.7601 23.28 32.7201 23.44C32.6001 23.88 32.5601 24.28 32.3601 24.36C32.1601 24.44 31.5201 24.08 31.5601 24.6C31.5601 25.56 33.2401 25.6 33.9601 26C34.6801 26.4 34.4401 26.48 34.5201 26.48C34.8401 26.2 35.5201 25.52 35.2401 25.12C34.9601 24.72 34.8801 24.88 34.8801 24.68C34.8801 24.48 35.2001 24.2 35.2001 24.2L35.4801 23.68C35.5601 23.6 36.0001 23.8 36.2801 23.48C36.4801 23.24 36.6401 22.6 36.8401 22.28C37.0401 21.92 37.8401 20.96 38.6401 20.28C38.9601 20 39.2001 19.68 39.3601 19.56C39.8001 19.24 40.2001 19.4 40.8401 19.48C41.1601 19.48 41.8801 19.48 41.8801 19.48C41.8801 19.56 41.5201 19.6 41.4801 19.68C41.4401 19.76 41.9601 19.72 42.1201 19.68C42.2801 19.64 42.2001 19.76 42.0401 19.84C41.8801 19.92 41.5601 19.96 41.5601 20C41.5601 20 41.9201 20.16 42.0801 20.2C42.2401 20.24 42.4001 20.24 42.4001 20.24C42.4001 20.32 42.4001 20.32 42.1601 20.32C41.9601 20.32 41.4001 20.2 41.4001 20.2C41.8001 20.48 41.8801 20.8 41.8001 20.76C41.6401 20.68 41.5201 20.52 41.3601 20.44C41.0801 20.24 40.7601 20.12 40.5601 20.12C40.1201 20.12 40.5601 20.36 40.8401 20.48C40.9601 20.52 40.9601 20.76 40.8801 20.72C40.8001 20.68 40.7201 20.56 40.6401 20.56C40.2401 20.44 39.8401 20.44 39.6001 20.12L37.4801 23.16C37.6401 23.2 38.1201 23.32 38.4401 23.92C38.7601 24.52 38.5201 24.56 38.5201 24.56L38.5601 24.4ZM34.2001 26.92C33.2401 27.16 32.1201 27.36 31.7601 28.4C31.4801 29.24 31.6001 30.28 31.7601 31.16L32.2401 29.52C32.4801 28.8 32.7601 28.2 33.2401 27.72C33.5601 27.4 33.8801 27.24 34.2401 26.96L34.2001 26.92ZM24.1201 41.96C25.7601 39.16 27.0801 36.12 28.1201 33.04C28.2001 32.8 28.6001 31.84 28.4001 31.72C26.3201 31.36 24.0801 30.76 22.3201 32.24C20.0801 34.12 20.5201 36.88 21.8001 39.2C22.3601 40.2 23.1201 41.36 24.1201 41.96ZM36.5201 14.16L31.9201 10.8L27.3201 14.16L29.0801 8.76L24.4801 5.4H30.1601L31.9201 0L33.6801 5.4H39.3601L34.7601 8.76L36.5201 14.16ZM26.0401 5.92L29.6801 8.56L28.2801 12.84L31.9201 10.2L35.5601 12.84L34.1601 8.56L37.8001 5.92H33.2801L31.8801 1.64L30.4801 5.92H25.9601H26.0401ZM42.4801 20.68C43.9601 20.76 46.0001 20.8 47.4801 20.88C48.3201 18.44 49.1601 16 49.9601 13.56H49.4001C50.1601 16.04 50.9601 18.56 51.7601 21.04H52.0401H59.6401L59.4001 20.36L53.2801 24.84L53.0801 25C53.9201 27.48 54.7201 29.96 55.5601 32.44L56.0001 32.12C54.4801 31.04 51.3601 28.84 49.8001 27.76L49.6801 27.68L49.5601 27.76L46.5601 30.04C45.5601 30.8 44.5601 31.56 43.5601 32.36C44.6001 31.64 45.6401 30.92 46.6801 30.2L49.8001 28.04H49.6001L52.6401 30.32C53.1201 30.68 55.9601 32.8 56.4001 33.12C55.5601 30.4 54.7201 27.72 53.8401 25.04L53.7201 25.44L59.8801 21L60.8401 20.32H59.6801H52.0801L52.4001 20.56C51.5201 17.88 50.6401 15.2 49.7201 12.52L49.4401 13.36C48.6801 15.76 47.9601 18.2 47.2001 20.6L47.3601 20.48C45.9201 20.52 43.8801 20.6 42.4801 20.68ZM24.0401 20.68C21.8401 20.6 18.6801 20.56 16.4401 20.48L16.6401 20.6C15.9601 18.36 14.8401 14.68 14.1201 12.44L13.8401 13.32L11.4401 20.52L11.8001 20.28C9.28009 20.28 6.76009 20.28 4.20009 20.28H3.04008L3.96008 20.96C5.48008 22.08 8.56008 24.28 10.1201 25.4L10.0001 25.04C9.32009 27.2 8.16008 30.88 7.48008 33.04L8.12008 32.56C9.64008 31.44 12.6801 29.12 14.1601 27.96H14.0401C15.0401 28.68 16.0801 29.36 17.0801 30.04C16.0801 29.28 15.1201 28.52 14.1201 27.76C12.5201 28.84 9.40008 31 7.84008 32.12L8.24008 32.4C8.84008 30.6 10.0801 27 10.6401 25.2L10.7201 24.96L10.5201 24.8C9.00008 23.68 5.92009 21.44 4.40009 20.32L4.20009 21C6.72009 21 9.24009 21 11.8001 21H12.0801L12.1601 20.76L14.4401 13.52H13.8801C14.4801 15.32 15.7201 18.92 16.3201 20.68V20.8C16.3601 20.8 16.5201 20.8 16.5201 20.8C18.7201 20.76 21.9201 20.68 24.1201 20.6L24.0401 20.68ZM22.6801 14.88L20.8001 13.52L18.9201 14.88L19.6401 12.64L17.7601 11.28H20.0801L20.8001 9.04L21.5201 11.28H23.8401L21.9601 12.64L22.6801 14.88ZM45.0401 14.88L43.1601 13.52L41.2801 14.88L42.0001 12.64L40.1201 11.28H42.4401L43.1601 9.04L43.8801 11.28H46.2001L44.3201 12.64L45.0401 14.88ZM15.2801 40.16L13.4001 38.8L11.5201 40.16L12.2401 37.92L10.3601 36.56H12.6801L13.4001 34.32L14.1201 36.56H16.4401L14.5601 37.92L15.2801 40.16ZM18.6801 45.76L17.6001 44.96L16.5201 45.76L16.9201 44.48L15.8401 43.68H17.1601L17.5601 42.4L17.9601 43.68H19.2801L18.2001 44.48L18.6001 45.76H18.6801Z" fill="url(#paint1_linear_1_41)"></path><defs><linearGradient id="paint0_linear_1_41" x1="40.6" y1="81.2" x2="22.12" y2="49.2" gradientUnits="userSpaceOnUse"><stop stop-color="#E4AF78"></stop><stop offset="0.2" stop-color="#DC9A72"></stop><stop offset="0.6" stop-color="#BE6D2B"></stop><stop offset="1" stop-color="#EABE81"></stop></linearGradient><linearGradient id="paint1_linear_1_41" x1="47.5601" y1="50" x2="22.0001" y2="5.72" gradientUnits="userSpaceOnUse"><stop stop-color="#E4AF78"></stop><stop offset="0.2" stop-color="#DC9A72"></stop><stop offset="0.6" stop-color="#BE6D2B"></stop><stop offset="1" stop-color="#EABE81"></stop></linearGradient></defs></svg> 